<mxfile modified="2023-09-30T16:16:01.365Z" host="drawio-plugin" agent="5.0 (Macintosh; Intel Mac OS X 10_15_7) AppleWebKit/537.36 (KHTML, like Gecko) Chrome/98.0.4758.102 Safari/537.36" etag="3oHGWJp7B4iybIY1ejDp" version="20.5.3" type="embed" pages="2"><diagram id="6t7PZO2ZojvmjIfirSJG" name="EKS"><mxGraphModel dx="1816" dy="1277" grid="1" gridSize="10" guides="1" tooltips="1" connect="1" arrows="1" fold="1" page="1" pageScale="1" pageWidth="827" pageHeight="583" math="0" shadow="0"><root><mxCell id="WLScTma4pQYM-VvLQNHI-0"/><mxCell id="WLScTma4pQYM-VvLQNHI-1" parent="WLScTma4pQYM-VvLQNHI-0"/><mxCell id="GyVX4dUGZaKJVGpuHv79-2" value="" style="group" parent="WLScTma4pQYM-VvLQNHI-1" connectable="0" vertex="1"><mxGeometry x="-540" y="-160" width="1430" height="1230" as="geometry"/></mxCell><mxCell id="osYLP47kqnGwkNdqmFrV-0" value="AWS Cloud" style="points=[[0,0],[0.25,0],[0.5,0],[0.75,0],[1,0],[1,0.25],[1,0.5],[1,0.75],[1,1],[0.75,1],[0.5,1],[0.25,1],[0,1],[0,0.75],[0,0.5],[0,0.25]];outlineConnect=0;gradientColor=none;html=1;whiteSpace=wrap;fontSize=12;fontStyle=0;shape=mxgraph.aws4.group;grIcon=mxgraph.aws4.group_aws_cloud_alt;strokeColor=#232F3E;fillColor=none;verticalAlign=top;align=left;spacingLeft=30;fontColor=#232F3E;dashed=1;labelBackgroundColor=none;movable=1;resizable=1;rotatable=1;deletable=1;editable=1;connectable=1;container=0;dashPattern=8 8;" parent="GyVX4dUGZaKJVGpuHv79-2" vertex="1"><mxGeometry x="310" width="1120" height="1230" as="geometry"/></mxCell><mxCell id="R2yZjgUWp5QfsPpIxoeB-0" value="us-east-1a(AZ-A)" style="fillColor=none;strokeColor=#147EBA;dashed=1;verticalAlign=top;fontStyle=0;fontColor=#147EBA;container=0;" parent="GyVX4dUGZaKJVGpuHv79-2" vertex="1"><mxGeometry x="410" y="250" width="240" height="700" as="geometry"/></mxCell><mxCell id="R2yZjgUWp5QfsPpIxoeB-3" value="&lt;font color=&quot;#006633&quot;&gt;VPC&lt;br&gt;10.0.0.0/16&lt;/font&gt;" style="points=[[0,0],[0.25,0],[0.5,0],[0.75,0],[1,0],[1,0.25],[1,0.5],[1,0.75],[1,1],[0.75,1],[0.5,1],[0.25,1],[0,1],[0,0.75],[0,0.5],[0,0.25]];outlineConnect=0;gradientColor=none;html=1;whiteSpace=wrap;fontSize=12;fontStyle=0;shape=mxgraph.aws4.group;grIcon=mxgraph.aws4.group_vpc;strokeColor=#248814;fillColor=none;verticalAlign=top;align=left;spacingLeft=30;fontColor=#AAB7B8;dashed=0;container=0;" parent="GyVX4dUGZaKJVGpuHv79-2" vertex="1"><mxGeometry x="330" y="290" width="1080" height="670" as="geometry"/></mxCell><mxCell id="R2yZjgUWp5QfsPpIxoeB-1" value="us-east-1b(AZ-B)" style="fillColor=none;strokeColor=#147EBA;dashed=1;verticalAlign=top;fontStyle=0;fontColor=#147EBA;container=0;" parent="GyVX4dUGZaKJVGpuHv79-2" vertex="1"><mxGeometry x="730" y="250" width="240" height="700" as="geometry"/></mxCell><mxCell id="R2yZjgUWp5QfsPpIxoeB-2" value="us-east-1c(AZ-C)" style="fillColor=none;strokeColor=#147EBA;dashed=1;verticalAlign=top;fontStyle=0;fontColor=#147EBA;container=0;" parent="GyVX4dUGZaKJVGpuHv79-2" vertex="1"><mxGeometry x="1050" y="250" width="240" height="700" as="geometry"/></mxCell><mxCell id="R2yZjgUWp5QfsPpIxoeB-5" value="Private subnet" style="points=[[0,0],[0.25,0],[0.5,0],[0.75,0],[1,0],[1,0.25],[1,0.5],[1,0.75],[1,1],[0.75,1],[0.5,1],[0.25,1],[0,1],[0,0.75],[0,0.5],[0,0.25]];outlineConnect=0;gradientColor=none;html=1;whiteSpace=wrap;fontSize=12;fontStyle=0;shape=mxgraph.aws4.group;grIcon=mxgraph.aws4.group_security_group;grStroke=0;strokeColor=#147EBA;fillColor=#E6F2F8;verticalAlign=top;align=left;spacingLeft=30;fontColor=#147EBA;dashed=0;container=0;" parent="GyVX4dUGZaKJVGpuHv79-2" vertex="1"><mxGeometry x="430" y="310" width="200" height="620" as="geometry"/></mxCell><mxCell id="R2yZjgUWp5QfsPpIxoeB-6" value="Private subnet" style="points=[[0,0],[0.25,0],[0.5,0],[0.75,0],[1,0],[1,0.25],[1,0.5],[1,0.75],[1,1],[0.75,1],[0.5,1],[0.25,1],[0,1],[0,0.75],[0,0.5],[0,0.25]];outlineConnect=0;gradientColor=none;html=1;whiteSpace=wrap;fontSize=12;fontStyle=0;shape=mxgraph.aws4.group;grIcon=mxgraph.aws4.group_security_group;grStroke=0;strokeColor=#147EBA;fillColor=#E6F2F8;verticalAlign=top;align=left;spacingLeft=30;fontColor=#147EBA;dashed=0;container=0;" parent="GyVX4dUGZaKJVGpuHv79-2" vertex="1"><mxGeometry x="750" y="310" width="200" height="620" as="geometry"/></mxCell><mxCell id="R2yZjgUWp5QfsPpIxoeB-7" value="Private subnet" style="points=[[0,0],[0.25,0],[0.5,0],[0.75,0],[1,0],[1,0.25],[1,0.5],[1,0.75],[1,1],[0.75,1],[0.5,1],[0.25,1],[0,1],[0,0.75],[0,0.5],[0,0.25]];outlineConnect=0;gradientColor=none;html=1;whiteSpace=wrap;fontSize=12;fontStyle=0;shape=mxgraph.aws4.group;grIcon=mxgraph.aws4.group_security_group;grStroke=0;strokeColor=#147EBA;fillColor=#E6F2F8;verticalAlign=top;align=left;spacingLeft=30;fontColor=#147EBA;dashed=0;container=0;" parent="GyVX4dUGZaKJVGpuHv79-2" vertex="1"><mxGeometry x="1070" y="310" width="200" height="620" as="geometry"/></mxCell><mxCell id="R2yZjgUWp5QfsPpIxoeB-33" value="Generic group" style="fillColor=none;strokeColor=#000099;dashed=1;verticalAlign=top;fontStyle=0;fontColor=#5A6C86;container=0;" parent="GyVX4dUGZaKJVGpuHv79-2" vertex="1"><mxGeometry x="430" y="370" width="840" height="530" as="geometry"/></mxCell><mxCell id="F2gZCenwdg6Bxv1rIEDc-1" value="" style="shape=image;imageAspect=0;aspect=fixed;verticalLabelPosition=bottom;verticalAlign=top;image=data:image/png,iVBORw0KGgoAAAANSUhEUgAAAJAAAABCCAYAAAC4sF+cAAAKMmlDQ1BJQ0MgUHJvZmlsZQAASImVlgdYFNcWx+/M9kZbWCkLLL33toD03qRXUVl26bAuS1NERSQYSkQREQElgKEqGAxFYkFAsRAUFFBBAxJElBgsYEHlDZKY8r73vvfO9505vzlz59xz597vmz8ApHoWjxcPCwGQwE3m+zjZMoKCQxi4GYABNEABdKDCYifxbLy83AFif8S/29IogFbjba3VWv/+/L+aCCciiQ0AFIpwAieJnYDwAMLWbB4/GQCYjLBCWjJvlXURFuUjDSJsv8pRaxy0yuFrHP95jJ+PHcKZAODJLBY/CgBiAZJnpLKjkDrEkwjrcjkxXIQnELZkR7M4AJDoCGsmJGxdZWeEVZHxPIQRB8zwv9SM+lv98C/1WayoL7y2rs9GdXfUN/QzMGLYseJjwvms5AjO//mV/gdLiE/5Y77V3SBHcP19kaiIOB24A0egDwyBHzAARoAB7AALxIMYEA74CCWDCMBJjtiWvPqy3Vbedn5MVHQywwbZzQiGC5etrcnQ19XXA2D1bKxN8eru51kgGv7PXIo6sm2r5yPuz1yoEQCtEgAI5v6ZU0oDgFIOQC+TncJPXcuhVy8YQASCQBRIABmgAFSBFtKzMTAH1sABuAJPpPtgsBmwQTRIQPpOAxlgD8gB+eAAOAzKQCWoAfXgFGgFHeAcuASugBvgFhgB42ASzIBnYAEsgWUIgnAQBaJCEpAspARpQPoQE7KEHCB3yAcKhsKgKIgLpUAZ0F4oHyqCyqAqqAH6HjoLXYKuQUPQPWgKmoNeQu9hFEyGRWFpWBnWgZmwDewG+8Gb4Cg4EU6Hs+H9cClcDZ+E2+FL8A14BJ6En8GLKIAioWgoOZQWiomyQ3miQlCRKD5qFyoPVYKqRjWjulD9qNuoSdQ86h0ai6aiGWgttDnaGe2PZqMT0bvQBegydD26Hd2Hvo2eQi+gP2EoGDpGA2OGccEEYaIwaZgcTAmmFtOGuYwZwcxglrBYLA2rgjXBOmODsbHYHdgC7DFsC7YbO4Sdxi7icDgJnAbOAueJY+GScTm4o7iTuIu4YdwM7i2ehJfF6+Md8SF4Lj4LX4JvxF/AD+Nn8csEIYISwYzgSeAQthMKCScIXYSbhBnCMlGYqEK0IPoRY4l7iKXEZuJl4gTxFYlEkieZkrxJMaRMUinpNOkqaYr0jixCVifbkUPJKeT95DpyN/ke+RWFQlGmWFNCKMmU/ZQGSi/lIeWtAFVAW8BFgCOwW6BcoF1gWOC5IEFQSdBGcLNgumCJ4BnBm4LzQgQhZSE7IZbQLqFyobNCY0KLwlRhPWFP4QThAuFG4WvCT0RwIsoiDiIckWyRGpFekWkqiqpAtaOyqXupJ6iXqTOiWFEVURfRWNF80VOig6ILYiJihmIBYtvEysXOi03SUDRlmgstnlZIa6WN0t6vk15nsy5iXe665nXD696IS4lbi0eI54m3iI+Iv5dgSDhIxEkclOiQeCCJllSX9JZMkzwueVlyXkpUylyKLZUn1Sp1nw7T1ek+9B30GvoAfVFaRtpJmid9VLpXel6GJmMtEytTLHNBZk6WKmspGyNbLHtR9ilDjGHDiGeUMvoYC3J0OWe5FLkquUG5ZXkVeX/5LPkW+QcKRAWmQqRCsUKPwoKirKKHYoZik+J9JYISUyla6YhSv9IbZRXlQOV9yh3KT1TEVVxU0lWaVCZUKapWqomq1ap31LBqTLU4tWNqt9RhdSP1aPVy9ZsasIaxRozGMY0hTYymqSZXs1pzTIusZaOVqtWkNaVN03bXztLu0H6uo6gTonNQp1/nk66RbrzuCd1xPRE9V70svS69l/rq+mz9cv07BhQDR4PdBp0GLww1DCMMjxveNaIaeRjtM+ox+mhsYsw3bjaeM1E0CTOpMBljijK9mAXMq6YYU1vT3abnTN+ZGZslm7Wa/WauZR5n3mj+ZL3K+oj1J9ZPW8hbsCyqLCYtGZZhlt9aTlrJWbGsqq0eWStYc6xrrWdt1GxibU7aPLfVteXbttm+sTOz22nXbY+yd7LPsx90EHHwdyhzeOgo7xjl2OS44GTktMOp2xnj7OZ80HnMRdqF7dLgsuBq4rrTtc+N7ObrVub2yF3dne/e5QF7uHoc8pjYoLSBu6HDE3i6eB7yfOCl4pXo9aM31tvLu9z7sY+eT4ZPvy/Vd4tvo++Sn61fod+4v6p/in9PgGBAaEBDwJtA+8CiwMkgnaCdQTeCJYNjgjtDcCEBIbUhixsdNh7eOBNqFJoTOrpJZdO2Tdc2S26O33x+i+AW1pYzYZiwwLDGsA8sT1Y1azHcJbwifIFtxz7Cfsax5hRz5iIsIooiZiMtIosin0RZRB2Kmou2ii6Jno+xiymLeRHrHFsZ+ybOM64ubiU+ML4lAZ8QlnCWK8KN4/Ztldm6besQT4OXw5tMNEs8nLjAd+PXJkFJm5I6k0WRn/BAimrKVylTqZap5alv0wLSzmwT3sbdNrBdfXvu9tl0x/TvdqB3sHf0ZMhl7MmY2mmzs2oXtCt8V89uhd3Zu2cynTLr9xD3xO35KUs3qyjr9d7AvV3Z0tmZ2dNfOX3VlCOQw88Z22e+r/Jr9NcxXw/mGuQezf2Ux8m7nq+bX5L/oYBdcP0bvW9Kv1nZH7l/sNC48PgB7AHugdGDVgfri4SL0oumD3kcai9mFOcVvz685fC1EsOSyiPEIylHJkvdSzuPKh49cPRDWXTZSLlteUsFvSK34s0xzrHh49bHmyulK/Mr338b8+3dKqeq9mrl6pIabE1qzeMTASf6v2N+11ArWZtf+7GOWzdZ71Pf12DS0NBIbyxsgptSmuZOhp68dcr+VGezVnNVC60l/zQ4nXL66fdh34+2urX2nGGeaf5B6YeKNmpbXjvUvr19oSO6Y7IzuHPorOvZni7zrrYftX+sOyd3rvy82PnCC8QL2RdWLqZfXOzmdc9firo03bOlZ7w3qPdOn3ff4GW3y1evOF7p7bfpv3jV4uq5a2bXzl5nXu+4YXyjfcBooO0no5/aBo0H22+a3Oy8ZXqra2j90IVhq+FLt+1vX7njcufGyIaRoVH/0btjoWOTdzl3n9yLv/fifur95fHMCcxE3gOhByUP6Q+rf1b7uWXSePL8lP3UwCPfR+PT7OlnvyT98mEm+zHlccms7GzDE/0n5+Yc52493fh05hnv2fJ8zq/Cv1Y8V33+w2/Wvw0sBC3MvOC/WHlZ8EriVd1rw9c9i16LD5cSlpbf5L2VeFv/jvmu/33g+9nltA+4D6Uf1T52fXL7NLGSsLLCY/FZn6UACnE4MhKAl3WITghG5NMtRFNtXNNuv+sbSNbgi9L5D7ym7z6bMQA13QBstAbAA4lViCshTkHuvRD3swbQEvqL/25JkQb6a7VIHYg0KVlZeRUIAE4NgI9jKyvLHSsrH2uRZu8D0L20phlXzV0LAN5OXRs/g/H5tMx/arQ1PfmXNf4zgi8d/C3+C/KtzKiObLZNAAAAVmVYSWZNTQAqAAAACAABh2kABAAAAAEAAAAaAAAAAAADkoYABwAAABIAAABEoAIABAAAAAEAAACQoAMABAAAAAEAAABCAAAAAEFTQ0lJAAAAU2NyZWVuc2hvdMxmNO8AAAHVaVRYdFhNTDpjb20uYWRvYmUueG1wAAAAAAA8eDp4bXBtZXRhIHhtbG5zOng9ImFkb2JlOm5zOm1ldGEvIiB4OnhtcHRrPSJYTVAgQ29yZSA2LjAuMCI+CiAgIDxyZGY6UkRGIHhtbG5zOnJkZj0iaHR0cDovL3d3dy53My5vcmcvMTk5OS8wMi8yMi1yZGYtc3ludGF4LW5zIyI+CiAgICAgIDxyZGY6RGVzY3JpcHRpb24gcmRmOmFib3V0PSIiCiAgICAgICAgICAgIHhtbG5zOmV4aWY9Imh0dHA6Ly9ucy5hZG9iZS5jb20vZXhpZi8xLjAvIj4KICAgICAgICAgPGV4aWY6UGl4ZWxZRGltZW5zaW9uPjY2PC9leGlmOlBpeGVsWURpbWVuc2lvbj4KICAgICAgICAgPGV4aWY6UGl4ZWxYRGltZW5zaW9uPjE0NDwvZXhpZjpQaXhlbFhEaW1lbnNpb24+CiAgICAgICAgIDxleGlmOlVzZXJDb21tZW50PlNjcmVlbnNob3Q8L2V4aWY6VXNlckNvbW1lbnQ+CiAgICAgIDwvcmRmOkRlc2NyaXB0aW9uPgogICA8L3JkZjpSREY+CjwveDp4bXBtZXRhPgrezjvbAAAMw0lEQVR4Ae1cDWwUxxV+9p2Nf7AxhgSCIRQC2EEBAk4RkABVQaWu+McoAttKFdUQlQZBSRxoaIHgqoEWmYKpADtpJf5qcHCK+FMKxgQECYqpDSTlL9AAJhhMMQb/cPbZnW/MLLt7e7692/MVnWYk3+zMvHnz5s03772ZXQhpYYlkkhrwUQOhPvaT3aQGuAYkgCQQLGlAAsiS+mRnCSCJAUsakACypD7ZWQJIYsCSBiSALKlPdpYAkhiwpAEJIEvqk53tUgVPlwZa6qupsayEmr79ipq/v0DN1RVcwNC4BAp9LpHsL7xCtj6Dyda971MheIh8lfFUrAM5b12hhj055PymhAh+IawDkT1cK1yTg6jxEVEzI0lIoohpS8jeb5iWJsAlCaAAK9xouPo9a6mx+COiDgagMeqAOoDp0SOyD55AUW/+yR1Vu9dLALW7itseoHb9z8l5tZQoMqZtQnetABKzVDFL91NIZJw7qnarlwBqN9V6ZvzwjzOpueqqq6vy3FVL8X8EkTyFaZciYKW6gpUsSD5vHTyQGLESA1Fd/oKAyS8GkgASmghg3nT5NDWd3Om72zKSlYHI+W0pOU5+atTabnUSQO2m2lbGOF3haK5ODUV/aA2Y1ZX+eI6OoYZdv/UHJ9M85D2QaVWZJwRg6vesp6YvmZVhR26e2Akr7NV0Chs4hpormOtii91eCVYofOTU9mKv4SuDaI06rBdgcWpXT2n7HsfXE5cZ8VgsZOv5EkW//Tcz1JZppAWyrEItAw4edwBBsIu/9kyPYyEMATAjhXaKb7cjvgQQV7F/fuoP5vmHkRUuzALhcpG/Etn3OoWEx7ZyC48jW+8fk21Iml/BJF2YlcXS9X2w8qfU0lCjqw1wsfYBRS/+B1H1N9R0eiORjd1ui+Rkr0Gc9RSSMJrCRi7wC5DkKUwo1w95y8MqP3CxyIIF53jR6rx6xJURwMQsUcutr8hRlO5yOnTt4LlGAsizjsxTtHd840kSZn0iJmZxqpaqMq31UfcFkNifo3CGZRDJGEitWB+eEag6yg5Ty/1bPvT2Y5f6B2Qb+CPvju/MGjkOzKMO07f5LIgEkI+qA3Aadn3Ab3/dfn7hI2+vuuE9GN7KvzKFotKzla62/tPJeWk3d1lKpdFDw31qKt9B9iGzjFo91skg2qOKXAkazx2l+vxfeff5BbMQhklcNBo2eq60vZBMHVLmG34XBGA4v2bWhQXOmmSL1Lo3Flx3mL1XQ2K2IAFkVlOP6fAeqy73De9ukhl4It/MpZCIJ7fPIR3jTI2MOxx3ydvPN8QrFefFA63AEic0RzXZR68k2w9GuRvKbb0EkFvVGDfUvO+9ksHJ1n0As1hPACS4h9gfH7PDI1qr8CWiKoXoLyXDo5VWe88BFPbSWKWsfgBYmr87Ti3V31Fz3R3m5h5bQGaNWmor1aTMQj0iW98Uso+Yp603UZIxkAklCRL+phuuSL+ogqCN3HnjXButPjSxT1sbmft7xD5t7fjuLg0D7rrO5LfWwV2JJCyOKIuc1TdXfS1KXuUSQF6oy3GcxRM6C2G6u7+P+I/54cWs+uWpo3g5tVQc8xw86wR3sUq6dndFeQ/kTjMG9fwtur+BYDCOV1XsLT/+BQcSLI8v4OGdwx67UF4w/yMBZFJXIgA1SR44MubKQrr25uM54bbY3Y7XicVAIXH9ve6GDtKFeaG25ppmCg11cxz3go8/SZurmyn85XHk/M8JanHUUIgPzNHP1iXRh55E8hTmhdpw//M0JnESs2Ilvb0SEHqQABKakLlPGpAxkE9qk52EBiSAhCZk7pMG/BZE37t3j44dO0Y1NTUUGxtLo0ePps6dO7sIdeLECXI4HLxtyJAhLu36CvDdt28f3bz5PW8aNmwojR8/Xk/Gy4cOHeJ5YmIi9erVS6EpKWH/WUFTE+nrL168yPjeVOjCw8Opa9euNGAAuzU2SLW1tXTy5Emy213VBv5quSB3aWkp55KcnGyoC4MhaM+ePVRZWUmRkZGUnp5uRMLrMCd1wvhRUVEEnUZHP7mtBo0nuYV8oKuoqHA7f/V44tkvMVBeXh6tWZPDBI8SfJnQdbRo0ULKzMxU6vCQlpZGX3xximbMmE6rV6/StOkLUGZW1mLOF6DDAiMHODZt2qgBCSbfp08/ionpSDk5a2jy5MmcHeoHD36ZP6vrUQG5P/xwNcXFdeJ8UdfY2ER9+/ahpUvfp1GjtK8trl+/TsnJw9m4CQo9+iCdO3eWHj58qCwewPnaa62vGY4fP2pqUYSsXbrE0927/6Xduws5IFpH0P6OGTOWAFKhE5EDeFu3btGMB7rExIGK3JijSBcu/JvKysr4ONjcV65coUGDBrkdV/QTuetWEi0mcwGeZ599hk9oxIgRdPr0aUJ53br1nIsaRFFR0QQFeUrl5eW0cOEiSkjoQQ0NDTR//tuMfzV9/PFf+UKlpaXT559rT0Xduj3DFYqdqE4Yz+l0qqv4M5SNtoiICBo3bhyX/9ix45x/RsYbhgsYH9+ZgyQpKZHt+Cc7ffDgQS78IY83qaioSJEH8962bbvbhezYsSNnLXKAFwlzSU/PoFOnvuRl8SPkxjxhZUWqqblP8fGt64GNiQ3ar18/0ewxtwQg7BjsYEy2V6+emgXNzJzDXNpxmjNnDqWmppo24ULi5ctXcL4oHzlSrOzsCRN+whWEHQcLJSyN6OdtDmB16dJFsYawMjNmpPKxIUNREfumRpcw72XLlml2uY7Ep+LmzXkcAAAFAPHJJ7tpyZLFbnWHjTVx4kRmpd/l48GFv/feYm79MQ+1GwcB5J46dYqLZRXCgl7fR7S5yy0BCFYC5h8mMj9f+y8S1q7NocuXL7sbt816TPTMmbN8N2Zm/kIBDzrBx2OHwFefOnXKMoD0gkCBGDMvL5/Lj7npYznEGPn5H/GdjB2MNHz4cEuyIKbBWHAv27ZtZa4+nc+/sLDQJQzQyyzKV69eJZvNxng0KlZFtCGH3NnZv1dXsY2SwOa6WVPnTcESgOrq6vhYmDTcgTpBWDNBsrqP2eeoKO1YZvuZpdPPxajf4cOH+U5HGxYsNrYTA5ARpbk6uCuMO2LEEG4FMjLSOYgBZHUIoOYGdwXglZeX0fXrN7irr6+vp7lz52g2nboPAvTq6lbQP3jwkP2XRNrPR9S0Zp4tAej555/nSoyNjaGDBw9qJgpzisk5HI1tmmEjIQE+uEUkKHD27NmKQrBLS0v/xcpRlJSUpHRHHwFk7ER1EvGPPjZS06ift2/fwV0JFkhvfUAH17Fw4QIWbPdVuqnjCqXS5APcTXHxET7nqqoqftCoq6vnMsAaQ5fqE56aLVwdQIH5I2VkZCguTU2HZ8i9bNnveLynb/O1bAlAOO6++GISOzHcVQJmmPKzZ8/SqlWreUA7bNgww0WoqLjBFSMEhzVDgCcU8c47i/gJDMF4SsrPmGLS+Q5FnIA6KHbatGmiO8+Tk4fynQjQdevWjXr37k25uRs4z9u37/BjvKYDK8DkP2LfFG/dupWwe4uKPuXxB+iXLv2NnpyXAUizJxVYlaNHj9K1a9d4X8wTYBs16skJb8eOv3N3hQWG28dGCAuz8/lCHxs2/MUQQKBHfIkYCKdbWKG9e/fSvHm/VPSon8D58xf4cV/UQ56hQ4d6HfuI/pYABCbr1v2ZBWbT+GSxcDh5IcDFHywUYiGjdOnSZbaLf6004RgMJQsAIThGjFNYuJu5hxjauHETp8WC19Q8oIKCHQqtYJKVlUXTp6fyxVix4gN+osACAhipqdMNlQQwYBfn5KxV+OMIDTdgdA8Dd4UrCjMJQOjcOYLLjtMNEizLrFmvKwDCRsDJEhb1rbfmcmsrrixwKsNGrKi4ydxUuUtIICwr+Obm5tLIka9yPpi7/ooEcsOiFhQU0JYtW9CFp8rKO7Rz5w5D3QiatnLLAELQieP09u3baf/+A9wa4cJu0qSJhkFl//79uUUKDw/TyJWSkkLiSCoasrOzaebMmbRr1y5mpm/z6uHDf+j2VIeYq6SkmLCjS5j7BDDakqV79+7c6glZEMf06PEcjR071lChkA/3V0ie4iS0T548iW0k7Tzh0tWuF8AAHRKsCTaQ2EQAMA4TSLDq6pgSF6rgBXmR4Gpzc9fRZ5/9k5dxDyUuRLGZIbdeFhCCh5Gb5kxM/PjlItHEOJIkSDUg34UF6cIGaloSQIHSdJCOIwEUpAsbqGlJAAVK00E6jgRQkC5soKYlARQoTQfpOBJAQbqwgZqWBFCgNB2k40gABenCBmpaEkCB0nSQjiMBFKQLG6hpSQAFStNBOo4EUJAubKCmJQEUKE0H6TgSQEG6sIGalgRQoDQdpOP8D00mtNacbSg9AAAAAElFTkSuQmCC;container=0;" parent="GyVX4dUGZaKJVGpuHv79-2" vertex="1"><mxGeometry y="517" width="144" height="66" as="geometry"/></mxCell><mxCell id="dJacJMzDWxM799Qd5sfq-1" value="AWS Secrets Manager" style="outlineConnect=0;fontColor=#232F3E;gradientColor=none;strokeColor=#ffffff;fillColor=#232F3E;dashed=0;verticalLabelPosition=middle;verticalAlign=bottom;align=center;html=1;whiteSpace=wrap;fontSize=10;fontStyle=1;spacing=3;shape=mxgraph.aws4.productIcon;prIcon=mxgraph.aws4.secrets_manager;container=0;" parent="GyVX4dUGZaKJVGpuHv79-2" vertex="1"><mxGeometry x="450" y="980" width="80" height="110" as="geometry"/></mxCell><mxCell id="dJacJMzDWxM799Qd5sfq-3" value="&lt;span style=&quot;font-size: 10px ; font-weight: 700&quot;&gt;AWS Certificate Manager&lt;/span&gt;" style="points=[[0,0,0],[0.25,0,0],[0.5,0,0],[0.75,0,0],[1,0,0],[0,1,0],[0.25,1,0],[0.5,1,0],[0.75,1,0],[1,1,0],[0,0.25,0],[0,0.5,0],[0,0.75,0],[1,0.25,0],[1,0.5,0],[1,0.75,0]];outlineConnect=0;fontColor=#232F3E;gradientColor=#F54749;gradientDirection=north;fillColor=#C7131F;strokeColor=#ffffff;dashed=0;verticalLabelPosition=bottom;verticalAlign=top;align=center;html=1;fontSize=12;fontStyle=0;aspect=fixed;shape=mxgraph.aws4.resourceIcon;resIcon=mxgraph.aws4.certificate_manager_3;container=0;" parent="GyVX4dUGZaKJVGpuHv79-2" vertex="1"><mxGeometry x="572" y="987" width="78" height="78" as="geometry"/></mxCell><mxCell id="dJacJMzDWxM799Qd5sfq-4" value="Amazon ECR" style="outlineConnect=0;fontColor=#232F3E;gradientColor=none;strokeColor=#ffffff;fillColor=#232F3E;dashed=0;verticalLabelPosition=middle;verticalAlign=bottom;align=center;html=1;whiteSpace=wrap;fontSize=10;fontStyle=1;spacing=3;shape=mxgraph.aws4.productIcon;prIcon=mxgraph.aws4.ecr;container=0;" parent="GyVX4dUGZaKJVGpuHv79-2" vertex="1"><mxGeometry x="690" y="985" width="80" height="100" as="geometry"/></mxCell><mxCell id="dJacJMzDWxM799Qd5sfq-5" value="Amazon S3" style="outlineConnect=0;fontColor=#232F3E;gradientColor=none;strokeColor=#ffffff;fillColor=#232F3E;dashed=0;verticalLabelPosition=middle;verticalAlign=bottom;align=center;html=1;whiteSpace=wrap;fontSize=10;fontStyle=1;spacing=3;shape=mxgraph.aws4.productIcon;prIcon=mxgraph.aws4.s3;container=0;" parent="GyVX4dUGZaKJVGpuHv79-2" vertex="1"><mxGeometry x="810" y="987" width="80" height="100" as="geometry"/></mxCell><mxCell id="dJacJMzDWxM799Qd5sfq-6" value="Application Load Balancer" style="outlineConnect=0;fontColor=#232F3E;gradientColor=none;strokeColor=#ffffff;fillColor=#232F3E;dashed=0;verticalLabelPosition=middle;verticalAlign=bottom;align=center;html=1;whiteSpace=wrap;fontSize=10;fontStyle=1;spacing=3;shape=mxgraph.aws4.productIcon;prIcon=mxgraph.aws4.application_load_balancer;container=0;" parent="GyVX4dUGZaKJVGpuHv79-2" vertex="1"><mxGeometry x="930" y="987" width="80" height="110" as="geometry"/></mxCell><mxCell id="dJacJMzDWxM799Qd5sfq-8" value="Amazon Elastic File System" style="outlineConnect=0;fontColor=#232F3E;gradientColor=none;strokeColor=#ffffff;fillColor=#232F3E;dashed=0;verticalLabelPosition=middle;verticalAlign=bottom;align=center;html=1;whiteSpace=wrap;fontSize=10;fontStyle=1;spacing=3;shape=mxgraph.aws4.productIcon;prIcon=mxgraph.aws4.elastic_file_system;container=0;" parent="GyVX4dUGZaKJVGpuHv79-2" vertex="1"><mxGeometry x="1050" y="987" width="80" height="110" as="geometry"/></mxCell><mxCell id="dJacJMzDWxM799Qd5sfq-10" value="Amazon Route 53" style="outlineConnect=0;fontColor=#232F3E;gradientColor=none;strokeColor=#ffffff;fillColor=#232F3E;dashed=0;verticalLabelPosition=middle;verticalAlign=bottom;align=center;html=1;whiteSpace=wrap;fontSize=10;fontStyle=1;spacing=3;shape=mxgraph.aws4.productIcon;prIcon=mxgraph.aws4.route_53;container=0;" parent="GyVX4dUGZaKJVGpuHv79-2" vertex="1"><mxGeometry x="330" y="980" width="80" height="110" as="geometry"/></mxCell><mxCell id="dJacJMzDWxM799Qd5sfq-11" value="&lt;span style=&quot;color: rgb(35 , 47 , 62) ; font-size: 10px ; font-weight: 700&quot;&gt;Amazon Cloudwatch&lt;/span&gt;" style="outlineConnect=0;dashed=0;verticalLabelPosition=bottom;verticalAlign=top;align=center;html=1;shape=mxgraph.aws3.cloudwatch;fillColor=#759C3E;gradientColor=none;container=0;" parent="GyVX4dUGZaKJVGpuHv79-2" vertex="1"><mxGeometry x="330" y="1110" width="78" height="78" as="geometry"/></mxCell><mxCell id="dJacJMzDWxM799Qd5sfq-13" value="Amazon RDS" style="outlineConnect=0;fontColor=#232F3E;gradientColor=none;strokeColor=#ffffff;fillColor=#232F3E;dashed=0;verticalLabelPosition=middle;verticalAlign=bottom;align=center;html=1;whiteSpace=wrap;fontSize=10;fontStyle=1;spacing=3;shape=mxgraph.aws4.productIcon;prIcon=mxgraph.aws4.rds;container=0;" parent="GyVX4dUGZaKJVGpuHv79-2" vertex="1"><mxGeometry x="450" y="1110" width="80" height="100" as="geometry"/></mxCell><mxCell id="dJacJMzDWxM799Qd5sfq-14" value="Amazon ElastiCache" style="outlineConnect=0;fontColor=#232F3E;gradientColor=none;strokeColor=#ffffff;fillColor=#232F3E;dashed=0;verticalLabelPosition=middle;verticalAlign=bottom;align=center;html=1;whiteSpace=wrap;fontSize=10;fontStyle=1;spacing=3;shape=mxgraph.aws4.productIcon;prIcon=mxgraph.aws4.elasticache;container=0;" parent="GyVX4dUGZaKJVGpuHv79-2" vertex="1"><mxGeometry x="570" y="1110" width="80" height="110" as="geometry"/></mxCell><mxCell id="dJacJMzDWxM799Qd5sfq-15" value="&lt;span style=&quot;font-size: 10px ; font-weight: 700&quot;&gt;Amazon MSK&lt;/span&gt;" style="points=[[0,0,0],[0.25,0,0],[0.5,0,0],[0.75,0,0],[1,0,0],[0,1,0],[0.25,1,0],[0.5,1,0],[0.75,1,0],[1,1,0],[0,0.25,0],[0,0.5,0],[0,0.75,0],[1,0.25,0],[1,0.5,0],[1,0.75,0]];outlineConnect=0;fontColor=#232F3E;gradientColor=#945DF2;gradientDirection=north;fillColor=#5A30B5;strokeColor=#ffffff;dashed=0;verticalLabelPosition=bottom;verticalAlign=top;align=center;html=1;fontSize=12;fontStyle=0;aspect=fixed;shape=mxgraph.aws4.resourceIcon;resIcon=mxgraph.aws4.managed_streaming_for_kafka;container=0;" parent="GyVX4dUGZaKJVGpuHv79-2" vertex="1"><mxGeometry x="690" y="1110" width="78" height="78" as="geometry"/></mxCell><mxCell id="dJacJMzDWxM799Qd5sfq-16" value="Amazon SQS" style="outlineConnect=0;fontColor=#232F3E;gradientColor=none;strokeColor=#ffffff;fillColor=#232F3E;dashed=0;verticalLabelPosition=middle;verticalAlign=bottom;align=center;html=1;whiteSpace=wrap;fontSize=10;fontStyle=1;spacing=3;shape=mxgraph.aws4.productIcon;prIcon=mxgraph.aws4.sqs;container=0;" parent="GyVX4dUGZaKJVGpuHv79-2" vertex="1"><mxGeometry x="810" y="1110" width="80" height="100" as="geometry"/></mxCell><mxCell id="8hHT36gUgYTngvhmZn3a-1" value="&lt;font color=&quot;#006633&quot;&gt;AMAZON - VPC&lt;/font&gt;" style="points=[[0,0],[0.25,0],[0.5,0],[0.75,0],[1,0],[1,0.25],[1,0.5],[1,0.75],[1,1],[0.75,1],[0.5,1],[0.25,1],[0,1],[0,0.75],[0,0.5],[0,0.25]];outlineConnect=0;gradientColor=none;html=1;whiteSpace=wrap;fontSize=12;fontStyle=0;shape=mxgraph.aws4.group;grIcon=mxgraph.aws4.group_vpc;strokeColor=#248814;fillColor=none;verticalAlign=top;align=left;spacingLeft=30;fontColor=#AAB7B8;dashed=0;container=0;" parent="GyVX4dUGZaKJVGpuHv79-2" vertex="1"><mxGeometry x="340" y="30" width="1070" height="200" as="geometry"/></mxCell><mxCell id="8hHT36gUgYTngvhmZn3a-4" value="Amazon EKS Control Plane" style="outlineConnect=0;fontColor=#232F3E;gradientColor=none;strokeColor=#ffffff;fillColor=#232F3E;dashed=0;verticalLabelPosition=middle;verticalAlign=bottom;align=center;html=1;whiteSpace=wrap;fontSize=10;fontStyle=1;spacing=3;shape=mxgraph.aws4.productIcon;prIcon=mxgraph.aws4.eks;container=0;" parent="GyVX4dUGZaKJVGpuHv79-2" vertex="1"><mxGeometry x="809" y="69" width="90" height="121" as="geometry"/></mxCell><mxCell id="VlV5sKBlEGU-XWwhU1De-3" style="edgeStyle=orthogonalEdgeStyle;rounded=0;orthogonalLoop=1;jettySize=auto;html=1;endArrow=classic;endFill=1;entryX=0.5;entryY=0;entryDx=0;entryDy=0;strokeColor=#FF8000;" parent="GyVX4dUGZaKJVGpuHv79-2" source="VlV5sKBlEGU-XWwhU1De-14" target="F2gZCenwdg6Bxv1rIEDc-1" edge="1"><mxGeometry relative="1" as="geometry"><mxPoint x="327" y="390" as="sourcePoint"/><mxPoint x="-191" y="200" as="targetPoint"/><Array as="points"><mxPoint x="72" y="390"/></Array></mxGeometry></mxCell><mxCell id="VlV5sKBlEGU-XWwhU1De-4" value="&lt;b&gt;gw-api-public&lt;/b&gt;" style="edgeLabel;html=1;align=center;verticalAlign=middle;resizable=0;points=[];container=0;" parent="VlV5sKBlEGU-XWwhU1De-3" connectable="0" vertex="1"><mxGeometry x="0.5323" y="1" relative="1" as="geometry"><mxPoint x="119" y="-41" as="offset"/></mxGeometry></mxCell><mxCell id="VlV5sKBlEGU-XWwhU1De-5" style="edgeStyle=orthogonalEdgeStyle;rounded=0;orthogonalLoop=1;jettySize=auto;html=1;entryX=0.75;entryY=0;entryDx=0;entryDy=0;endArrow=classic;endFill=1;strokeColor=#FF8000;" parent="GyVX4dUGZaKJVGpuHv79-2" source="VlV5sKBlEGU-XWwhU1De-13" target="F2gZCenwdg6Bxv1rIEDc-1" edge="1"><mxGeometry relative="1" as="geometry"><mxPoint x="330" y="480" as="sourcePoint"/><Array as="points"><mxPoint x="370" y="450"/><mxPoint x="108" y="450"/></Array></mxGeometry></mxCell><mxCell id="VlV5sKBlEGU-XWwhU1De-6" value="&lt;b&gt;gw-api-internal&lt;/b&gt;" style="edgeLabel;html=1;align=center;verticalAlign=middle;resizable=0;points=[];container=0;" parent="VlV5sKBlEGU-XWwhU1De-5" connectable="0" vertex="1"><mxGeometry x="0.2145" y="-2" relative="1" as="geometry"><mxPoint x="8" y="12" as="offset"/></mxGeometry></mxCell><mxCell id="VlV5sKBlEGU-XWwhU1De-7" style="edgeStyle=orthogonalEdgeStyle;rounded=0;orthogonalLoop=1;jettySize=auto;html=1;endArrow=classic;endFill=1;strokeColor=#FF8000;" parent="GyVX4dUGZaKJVGpuHv79-2" source="VlV5sKBlEGU-XWwhU1De-15" edge="1"><mxGeometry relative="1" as="geometry"><mxPoint x="80" y="590" as="targetPoint"/><mxPoint x="340" y="480" as="sourcePoint"/><Array as="points"><mxPoint x="80" y="770"/></Array></mxGeometry></mxCell><mxCell id="VlV5sKBlEGU-XWwhU1De-8" value="&lt;b&gt;gw-frontend-internal&lt;/b&gt;" style="edgeLabel;html=1;align=center;verticalAlign=middle;resizable=0;points=[];container=0;" parent="VlV5sKBlEGU-XWwhU1De-7" connectable="0" vertex="1"><mxGeometry x="-0.1344" y="1" relative="1" as="geometry"><mxPoint x="45" y="-11" as="offset"/></mxGeometry></mxCell><mxCell id="VlV5sKBlEGU-XWwhU1De-9" style="edgeStyle=orthogonalEdgeStyle;rounded=0;orthogonalLoop=1;jettySize=auto;html=1;endArrow=classic;endFill=1;strokeColor=#FF8000;entryX=0.688;entryY=0.985;entryDx=0;entryDy=0;entryPerimeter=0;" parent="GyVX4dUGZaKJVGpuHv79-2" source="VlV5sKBlEGU-XWwhU1De-12" target="F2gZCenwdg6Bxv1rIEDc-1" edge="1"><mxGeometry relative="1" as="geometry"><mxPoint x="-150" y="270" as="targetPoint"/><mxPoint x="340" y="480" as="sourcePoint"/><Array as="points"><mxPoint x="99" y="670"/></Array></mxGeometry></mxCell><mxCell id="VlV5sKBlEGU-XWwhU1De-10" value="&lt;b&gt;gw-frontend-public&lt;/b&gt;" style="edgeLabel;html=1;align=center;verticalAlign=middle;resizable=0;points=[];container=0;" parent="VlV5sKBlEGU-XWwhU1De-9" connectable="0" vertex="1"><mxGeometry x="0.0667" y="2" relative="1" as="geometry"><mxPoint x="31" y="-13" as="offset"/></mxGeometry></mxCell><mxCell id="8hHT36gUgYTngvhmZn3a-6" value="&lt;span style=&quot;font-size: 10px&quot;&gt;&lt;b&gt;ISTIO&lt;br&gt;Gateway&lt;/b&gt;&lt;/span&gt;" style="outlineConnect=0;fontColor=#232F3E;gradientColor=none;fillColor=#5A30B5;strokeColor=none;dashed=0;verticalLabelPosition=bottom;verticalAlign=top;align=center;html=1;fontSize=12;fontStyle=0;aspect=fixed;pointerEvents=1;shape=mxgraph.aws4.nat_gateway;container=0;" parent="GyVX4dUGZaKJVGpuHv79-2" vertex="1"><mxGeometry x="417" y="570" width="40" height="40" as="geometry"/></mxCell><mxCell id="Tsf2AHZvOh1Ud8QPkazY-0" value="Amazon OpenSearch" style="outlineConnect=0;fontColor=#232F3E;gradientColor=none;strokeColor=#ffffff;fillColor=#232F3E;dashed=0;verticalLabelPosition=middle;verticalAlign=bottom;align=center;html=1;whiteSpace=wrap;fontSize=10;fontStyle=1;spacing=3;shape=mxgraph.aws4.productIcon;prIcon=mxgraph.aws4.elasticsearch_service;container=0;" parent="GyVX4dUGZaKJVGpuHv79-2" vertex="1"><mxGeometry x="1170" y="985" width="80" height="120" as="geometry"/></mxCell><mxCell id="VlV5sKBlEGU-XWwhU1De-12" value="&lt;span style=&quot;font-size: 10px ; font-weight: 700&quot;&gt;ALB&lt;/span&gt;" style="outlineConnect=0;fontColor=#232F3E;gradientColor=none;fillColor=#5A30B5;strokeColor=none;dashed=0;verticalLabelPosition=bottom;verticalAlign=top;align=center;html=1;fontSize=12;fontStyle=0;aspect=fixed;pointerEvents=1;shape=mxgraph.aws4.network_load_balancer;container=0;" parent="GyVX4dUGZaKJVGpuHv79-2" vertex="1"><mxGeometry x="350" y="650" width="40" height="40" as="geometry"/></mxCell><mxCell id="VlV5sKBlEGU-XWwhU1De-18" style="edgeStyle=orthogonalEdgeStyle;rounded=0;orthogonalLoop=1;jettySize=auto;html=1;endArrow=classic;endFill=1;strokeColor=#B266FF;" parent="GyVX4dUGZaKJVGpuHv79-2" source="8hHT36gUgYTngvhmZn3a-6" target="VlV5sKBlEGU-XWwhU1De-12" edge="1"><mxGeometry relative="1" as="geometry"/></mxCell><mxCell id="VlV5sKBlEGU-XWwhU1De-15" value="&lt;span style=&quot;font-size: 10px ; font-weight: 700&quot;&gt;ALB&lt;/span&gt;" style="outlineConnect=0;fontColor=#232F3E;gradientColor=none;fillColor=#5A30B5;strokeColor=none;dashed=0;verticalLabelPosition=bottom;verticalAlign=top;align=center;html=1;fontSize=12;fontStyle=0;aspect=fixed;pointerEvents=1;shape=mxgraph.aws4.network_load_balancer;container=0;" parent="GyVX4dUGZaKJVGpuHv79-2" vertex="1"><mxGeometry x="350" y="750" width="40" height="40" as="geometry"/></mxCell><mxCell id="VlV5sKBlEGU-XWwhU1De-19" style="edgeStyle=orthogonalEdgeStyle;rounded=0;orthogonalLoop=1;jettySize=auto;html=1;endArrow=classic;endFill=1;strokeColor=#B266FF;" parent="GyVX4dUGZaKJVGpuHv79-2" source="8hHT36gUgYTngvhmZn3a-6" target="VlV5sKBlEGU-XWwhU1De-15" edge="1"><mxGeometry relative="1" as="geometry"><Array as="points"><mxPoint x="400" y="590"/><mxPoint x="400" y="770"/></Array></mxGeometry></mxCell><mxCell id="R2yZjgUWp5QfsPpIxoeB-16" value="&lt;b&gt;KARPENTER&lt;/b&gt;" style="points=[[0,0],[0.25,0],[0.5,0],[0.75,0],[1,0],[1,0.25],[1,0.5],[1,0.75],[1,1],[0.75,1],[0.5,1],[0.25,1],[0,1],[0,0.75],[0,0.5],[0,0.25]];outlineConnect=0;gradientColor=none;html=1;whiteSpace=wrap;fontSize=12;fontStyle=0;shape=mxgraph.aws4.groupCenter;grIcon=mxgraph.aws4.group_auto_scaling_group;grStroke=1;strokeColor=#D86613;fillColor=none;verticalAlign=top;align=center;fontColor=#D86613;dashed=1;spacingTop=25;container=0;" parent="GyVX4dUGZaKJVGpuHv79-2" vertex="1"><mxGeometry x="465" y="550" width="820" height="130" as="geometry"/></mxCell><mxCell id="R2yZjgUWp5QfsPpIxoeB-20" value="&lt;b&gt;worker_groups: spot&lt;/b&gt;" style="text;html=1;strokeColor=none;fillColor=none;align=center;verticalAlign=middle;whiteSpace=wrap;rounded=0;container=0;" parent="GyVX4dUGZaKJVGpuHv79-2" vertex="1"><mxGeometry x="465" y="540" width="157" height="20" as="geometry"/></mxCell><mxCell id="R2yZjgUWp5QfsPpIxoeB-28" value="" style="outlineConnect=0;fontColor=#232F3E;gradientColor=none;fillColor=#D86613;strokeColor=none;dashed=0;verticalLabelPosition=bottom;verticalAlign=top;align=center;html=1;fontSize=12;fontStyle=0;aspect=fixed;pointerEvents=1;shape=mxgraph.aws4.spot_instance;container=0;" parent="GyVX4dUGZaKJVGpuHv79-2" vertex="1"><mxGeometry x="516" y="613" width="48" height="48" as="geometry"/></mxCell><mxCell id="R2yZjgUWp5QfsPpIxoeB-29" value="" style="outlineConnect=0;fontColor=#232F3E;gradientColor=none;fillColor=#D86613;strokeColor=none;dashed=0;verticalLabelPosition=bottom;verticalAlign=top;align=center;html=1;fontSize=12;fontStyle=0;aspect=fixed;pointerEvents=1;shape=mxgraph.aws4.spot_instance;container=0;" parent="GyVX4dUGZaKJVGpuHv79-2" vertex="1"><mxGeometry x="851" y="611" width="48" height="48" as="geometry"/></mxCell><mxCell id="R2yZjgUWp5QfsPpIxoeB-30" value="" style="outlineConnect=0;fontColor=#232F3E;gradientColor=none;fillColor=#D86613;strokeColor=none;dashed=0;verticalLabelPosition=bottom;verticalAlign=top;align=center;html=1;fontSize=12;fontStyle=0;aspect=fixed;pointerEvents=1;shape=mxgraph.aws4.spot_instance;container=0;" parent="GyVX4dUGZaKJVGpuHv79-2" vertex="1"><mxGeometry x="1175" y="606" width="48" height="48" as="geometry"/></mxCell><mxCell id="R2yZjgUWp5QfsPpIxoeB-32" value="&lt;font style=&quot;font-size: 8px&quot;&gt;Amazon EKS&lt;/font&gt;" style="outlineConnect=0;fontColor=#232F3E;gradientColor=none;strokeColor=#ffffff;fillColor=#232F3E;dashed=0;verticalLabelPosition=middle;verticalAlign=bottom;align=center;html=1;whiteSpace=wrap;fontSize=10;fontStyle=1;spacing=3;shape=mxgraph.aws4.productIcon;prIcon=mxgraph.aws4.eks;container=0;" parent="GyVX4dUGZaKJVGpuHv79-2" vertex="1"><mxGeometry x="430" y="370" width="30" height="60" as="geometry"/></mxCell><mxCell id="VlV5sKBlEGU-XWwhU1De-13" value="&lt;span style=&quot;font-size: 10px ; font-weight: 700&quot;&gt;ALB&lt;/span&gt;" style="outlineConnect=0;fontColor=#232F3E;gradientColor=none;fillColor=#5A30B5;strokeColor=none;dashed=0;verticalLabelPosition=bottom;verticalAlign=top;align=center;html=1;fontSize=12;fontStyle=0;aspect=fixed;pointerEvents=1;shape=mxgraph.aws4.network_load_balancer;container=0;" parent="GyVX4dUGZaKJVGpuHv79-2" vertex="1"><mxGeometry x="350" y="454" width="40" height="40" as="geometry"/></mxCell><mxCell id="VlV5sKBlEGU-XWwhU1De-17" style="edgeStyle=orthogonalEdgeStyle;rounded=0;orthogonalLoop=1;jettySize=auto;html=1;endArrow=classic;endFill=1;strokeColor=#B266FF;" parent="GyVX4dUGZaKJVGpuHv79-2" source="8hHT36gUgYTngvhmZn3a-6" target="VlV5sKBlEGU-XWwhU1De-13" edge="1"><mxGeometry relative="1" as="geometry"/></mxCell><mxCell id="VlV5sKBlEGU-XWwhU1De-14" value="&lt;span style=&quot;font-size: 10px ; font-weight: 700&quot;&gt;ALB&lt;/span&gt;" style="outlineConnect=0;fontColor=#232F3E;gradientColor=none;fillColor=#5A30B5;strokeColor=none;dashed=0;verticalLabelPosition=bottom;verticalAlign=top;align=center;html=1;fontSize=12;fontStyle=0;aspect=fixed;pointerEvents=1;shape=mxgraph.aws4.network_load_balancer;container=0;" parent="GyVX4dUGZaKJVGpuHv79-2" vertex="1"><mxGeometry x="350" y="362" width="40" height="40" as="geometry"/></mxCell><mxCell id="VlV5sKBlEGU-XWwhU1De-16" style="edgeStyle=orthogonalEdgeStyle;rounded=0;orthogonalLoop=1;jettySize=auto;html=1;endArrow=classic;endFill=1;strokeColor=#B266FF;" parent="GyVX4dUGZaKJVGpuHv79-2" source="8hHT36gUgYTngvhmZn3a-6" target="VlV5sKBlEGU-XWwhU1De-14" edge="1"><mxGeometry relative="1" as="geometry"><Array as="points"><mxPoint x="400" y="590"/><mxPoint x="400" y="382"/></Array></mxGeometry></mxCell><mxCell id="mHz800KX3As1aBDJ3XC7-0" value="&lt;b&gt;IAM&lt;/b&gt;" style="outlineConnect=0;dashed=0;verticalLabelPosition=bottom;verticalAlign=top;align=center;html=1;shape=mxgraph.aws3.iam;fillColor=#759C3E;gradientColor=none;" parent="GyVX4dUGZaKJVGpuHv79-2" vertex="1"><mxGeometry x="940" y="1110" width="42" height="81" as="geometry"/></mxCell><mxCell id="mHz800KX3As1aBDJ3XC7-2" value="&lt;b&gt;Organizations&lt;/b&gt;" style="sketch=0;points=[[0,0,0],[0.25,0,0],[0.5,0,0],[0.75,0,0],[1,0,0],[0,1,0],[0.25,1,0],[0.5,1,0],[0.75,1,0],[1,1,0],[0,0.25,0],[0,0.5,0],[0,0.75,0],[1,0.25,0],[1,0.5,0],[1,0.75,0]];points=[[0,0,0],[0.25,0,0],[0.5,0,0],[0.75,0,0],[1,0,0],[0,1,0],[0.25,1,0],[0.5,1,0],[0.75,1,0],[1,1,0],[0,0.25,0],[0,0.5,0],[0,0.75,0],[1,0.25,0],[1,0.5,0],[1,0.75,0]];outlineConnect=0;fontColor=#232F3E;fillColor=#E7157B;strokeColor=#ffffff;dashed=0;verticalLabelPosition=bottom;verticalAlign=top;align=center;html=1;fontSize=12;fontStyle=0;aspect=fixed;shape=mxgraph.aws4.resourceIcon;resIcon=mxgraph.aws4.organizations;" parent="GyVX4dUGZaKJVGpuHv79-2" vertex="1"><mxGeometry x="1030" y="1111.5" width="78" height="78" as="geometry"/></mxCell><mxCell id="mHz800KX3As1aBDJ3XC7-3" value="&lt;b&gt;VPN&lt;/b&gt;" style="sketch=0;pointerEvents=1;shadow=0;dashed=0;html=1;strokeColor=none;fillColor=#DF8C42;labelPosition=center;verticalLabelPosition=bottom;verticalAlign=top;align=center;outlineConnect=0;shape=mxgraph.veeam2.open_vpn;" parent="GyVX4dUGZaKJVGpuHv79-2" vertex="1"><mxGeometry x="1145" y="1113" width="78" height="78" as="geometry"/></mxCell></root></mxGraphModel></diagram><diagram id="AWiSHC8abOT0DC5vTAtg" name="PODs"><mxGraphModel dx="989" dy="694" grid="1" gridSize="10" guides="1" tooltips="1" connect="1" arrows="1" fold="1" page="1" pageScale="1" pageWidth="1169" pageHeight="827" math="0" shadow="0"><root><mxCell id="eO0bJoBUbcnyakteUmmv-0"/><mxCell id="eO0bJoBUbcnyakteUmmv-1" parent="eO0bJoBUbcnyakteUmmv-0"/><mxCell id="o-EWsilDcgqO-dhvd1zq-5" value="" style="group" parent="eO0bJoBUbcnyakteUmmv-1" connectable="0" vertex="1"><mxGeometry x="30" y="20" width="630" height="925.0699999999999" as="geometry"/></mxCell><mxCell id="UIrqBbEjIAPsJ5Y3J7Cz-0" value="" style="html=1;dashed=0;whitespace=wrap;fillColor=#2875E2;strokeColor=#ffffff;points=[[0.005,0.63,0],[0.1,0.2,0],[0.9,0.2,0],[0.5,0,0],[0.995,0.63,0],[0.72,0.99,0],[0.5,1,0],[0.28,0.99,0]];shape=mxgraph.kubernetes.icon;prIcon=ns" parent="o-EWsilDcgqO-dhvd1zq-5" vertex="1"><mxGeometry width="370" height="240" as="geometry"/></mxCell><mxCell id="o-EWsilDcgqO-dhvd1zq-2" value="" style="group" parent="o-EWsilDcgqO-dhvd1zq-5" connectable="0" vertex="1"><mxGeometry x="120.0035294117647" y="65.07" width="509.9964705882353" height="860" as="geometry"/></mxCell><mxCell id="lhPNuWigmKJJLZA_0LKy-0" value="Amazon OpenSearch" style="outlineConnect=0;fontColor=#232F3E;gradientColor=none;strokeColor=#ffffff;fillColor=#232F3E;dashed=0;verticalLabelPosition=middle;verticalAlign=bottom;align=center;html=1;whiteSpace=wrap;fontSize=10;fontStyle=1;spacing=3;shape=mxgraph.aws4.productIcon;prIcon=mxgraph.aws4.elasticsearch_service;" parent="o-EWsilDcgqO-dhvd1zq-2" vertex="1"><mxGeometry x="39.9964705882353" y="440" width="80" height="120" as="geometry"/></mxCell><mxCell id="lhPNuWigmKJJLZA_0LKy-1" value="&lt;span style=&quot;font-size: 10px ; font-weight: 700&quot;&gt;Prometheus&lt;/span&gt;" style="points=[[0,0,0],[0.25,0,0],[0.5,0,0],[0.75,0,0],[1,0,0],[0,1,0],[0.25,1,0],[0.5,1,0],[0.75,1,0],[1,1,0],[0,0.25,0],[0,0.5,0],[0,0.75,0],[1,0.25,0],[1,0.5,0],[1,0.75,0]];points=[[0,0,0],[0.25,0,0],[0.5,0,0],[0.75,0,0],[1,0,0],[0,1,0],[0.25,1,0],[0.5,1,0],[0.75,1,0],[1,1,0],[0,0.25,0],[0,0.5,0],[0,0.75,0],[1,0.25,0],[1,0.5,0],[1,0.75,0]];outlineConnect=0;fontColor=#232F3E;gradientColor=#F34482;gradientDirection=north;fillColor=#BC1356;strokeColor=#ffffff;dashed=0;verticalLabelPosition=bottom;verticalAlign=top;align=center;html=1;fontSize=12;fontStyle=0;aspect=fixed;shape=mxgraph.aws4.resourceIcon;resIcon=mxgraph.aws4.managed_service_for_prometheus;" parent="o-EWsilDcgqO-dhvd1zq-2" vertex="1"><mxGeometry x="269.9964705882353" y="440" width="80" height="80" as="geometry"/></mxCell><mxCell id="xxSsAl1sq2vq4wDB8aRe-0" value="" style="shape=image;imageAspect=0;aspect=fixed;verticalLabelPosition=bottom;verticalAlign=top;image=data:image/png,iVBORw0KGgoAAAANSUhEUgAAAOAAAADgCAMAAAAt85rTAAAAkFBMVEX+/v5yS57///9wSJ1rQJptQ5tpPZloO5hwSZ1sQZpuRZx5VaJmOJduRpzBs9KSd7O4qM2vnsehi73q5PDTyN/59/vw7PR3UaHAstLOw9yGZqvk3uzd1edlNZb18/jv6/OagbiAXqfe1uiok8G2pcuUebWIaazIvNiNcbClkL+Zf7d9WqVhL5NcJZHVzeF7VaXXlw9lAAAYkUlEQVR4nO1dCXejug4OAowhkD0h+7416c38/3/3LJnFgMnSdjwz70TnnjttIYEP25IsfRKNxlve8pa3vOUtb3nLW97ylre85S1vectb3vKWt7zlLxMQ8qfv4XcIpDLs30b/RwgVXNtJZ3e4soX3Ofj3Aea4RrNBq7ue2g5jzHcjm1uWc/pnAWa4GsvV/NT5OF8tX+DyA9sSwFJx9/8cwAwXDdjuMm3aHnMELq4CSyX4+GcA5sD6t9O+d95YnufQRNTgyiS6/PUAM2Ar1ByXqRWGzHED274DKxf7+LcCzJbYcnZrdXvHOAy9VHO8IDz+ywDmuPpCc+zOhMvxX8WVi9f4KxDmqn41G4y7lw0XGlFqjm9KuPyTAHNcS9Icx6vleLTCdBqxKjwQg3v/TG/2JwAqqn47Ge8O01+uxKVV9XUSsWav1Wn70b2T2M0kwNw2zwan7vp8DXCFPVL1NeIftvSF/QO7B3BiBGAKrD+f7D8Om2CRaI5vLDG/R7oIxHe3FvXf43dMAATUHOtpsEBVH3xdJSpib3AnBLsh/n/r1FpFd2cE4DEkzfFzwsM+3jjM2/TPyqpbiMHaCMBe8OB+7eg1+N6Y7hsaizkhHDVrENpnIwA7/r27db1r+zBltdqwOqPddnLbcDxIpKtY/4TsjQlLD5N6RWczu9tHLdRv659CFDS5uHlVIUXXYQpw58gfYebUrOyhCYBzrwZexDanoYycAKxdzRneehbb68ixrhkA/5q5J7D/TCw5TELtFTwjAEfai3N3cZhncSHxb7MyzWxnAL3pqOmMt4kbID7Uy2cddBat9PM97QyQ2uh3Axy61fnDXWe3yqNesBWztDzNongFwy6Muw04bza/LGcRNnczJVQGY++cPaBYN0nZ3ATAxrVybR53V0v1HGGRSwYt8GKciwDyP3IVSpFAODE/DZzpF4IZVwbaFRXJo+CgPly4DcTt96/pINqM9waV9VOOc8LWy30VWGuskdP6M4aQW+r8xFMaONeg0bGY2CDY3jRVPve/eOTacbokYaXRpG7XCMB9WUHah13Jz4fLjObj8HSwvePtEbrkMFxtZ5wN4UdVD0c9IwArhtAOx+XZNpFeFUVuH8IbDuS4wc7lbHlnCKO2EYDzEkBns6osr2W2+34iowDD3onc7W2oYIBDZRXaUyMAV0VDGPY0GGDzSpQWoBtvUa1ObctL9QzcKoqUN41Y+kYBoHCVNReFjvWS3win/3pCEW0d8cCS9QzDiqvAAyNRmYIRtvct3TYUZv+9Fl+AwWc8g6EvPBw/ddgOFXvkGUkwwVl5tHH8qXuqMOQvKgRhBb3BDGelbUmPDLoVPWom7FQ0hKysQZOT2q8+bZgxd01jxm3CAeOKQ8qMZNAKT9Zu6i8pPGc98jvfu023kdw7oRtX3VqbyaDByVGeac0lhcq/vnozwgHlKcLzbdWq7igMhZ0UQ8j9moko9IX38uZG2QdGzHEq+Axl0KCf2wlu11kDOLLXHzfs78VFBeyDEYDDhTKCdZYJPpzX/Q7QbFVUMePKNMDPDWGtXoOWs3jdLMNSF+rIn2eNSvthQY/q4aSBG3s1l0C24U5MC8WEryYMoTKP6uIkYqX6L23fxMYDEn+0fgTrdNrPCnQVBV63hREbipcCtbAPF+FF7K1qo3Yor2vmrwgULFSon4gYfQteYF/ByLN4JHaWYttbD9BMBk0sL3XaxNp1AX3PCnUTqoZ0Bjt8anwxuBs6r/MrflagX1AE7lq7YRowy9tWA00wHC6Huh3khRwzbsHszhz1X/X/viSwLEYTPO2GaedWbAjActyOHc/dVJcSjKXnEm6H9fgMhZ0aUEqme9V4pVhKvBzHhOEudCLOrUijfWAoHVFnfE+PmsmgNWBTvAVeRUj2rOj8Q99OVpeWswR7JxmjS703Y4gMlKwXBWFYClzAEnMPhRGEoZU9Fk8TwRVjHkmAH/UZSP7LDMBuRdGFOyiA2eDNeoVw9z7/kFAlmm/tW2ILIb6oupPPP1jr3P+opApBFXZe5bmlWUyDEKoGpBDK0bqpMBqfTvv9PTvBXTOuzEDjMAZBJ8mqDLseTcbgUhhUNSsVVkKpdI4UzePLxDHjymhNFXes7gyHwZIjYDP1acPSV0fwjtMMgzuGkJkJO400OUKE6HshCxMj6ZYeNij5eXtz5zZhWJOjJ4Bmwk4NPU2LcyfhzdjuYl0apEwz8cj5vJvog5Vfy75xjLgyFUOYzZ/TkYWMeeGm26+k/0Y4tLYfNtfjBy4zDPQ5essYcVsTdEbxZkLDzOa3mTYdCJMw8Kad/hMlHrCr0zOGiNvoaOpGsJ+lp7WfGqxnT6DDM2umiKX18n6D1Ghy9kCHPwVOntln+mXIX462fkm0hvBHdTh09LEZ7pgBqN+zVfd/X79C3Z7CDHFbasTqCP4gzaNu3+tpfaCfFmGLdQB/yEjJlQo9rSIzRNzWT6DvMlZTMjFBhJVWzxgibutD7N+KrFNFzGS/Pm+u1yOxorTG1lANmn5TytnXNQA0br1myLDQh3PK20BLZ4t8Q65MjSH8MlsOWrYX5CRLjC3p1YwZ4nZdCuHLV4fbp7rgKPwJQ51HairsVKPE7S9WEkNHnRGS7yT2LLorGAo7jWqs1Bd1HGwXyre4xEkDaGrUqKEaNA1LR86tr5p62IcZGi59Wgqtap6hGYA17v7XlTgMojTW5MiVXLOtNlSDVpNrdrtfLueHYS8k2xNcE/JhQ+/wGgk71dWHRG34clwPYNYLPRbGyTeoZAdF2Py5PeU3pSZ4yYPl18cQPbTtbZ6FV/V7Mn98259//yjW5dLd7hRq3OHntvL56NSEDSyXuYvfT7+Hrd5OcCvqM+0shfFTflx2Tn3YwkgetKY+BIPrXdbUQYFdlRmsOStLy8CsNrRmgtIFjbr6Ih5zdtIF1eCyaD2aptDaPJihkRsZyYPWWGE5S4U7pVmHAuHncXUXIgz+Sz0FWJZLlu3AYZ7d7qwjIw7pXdJVOLtqEfYWi+6dlQiDRSz3u0KUFB2PXBZ604/xfClzM9wApetuoaR9nOrWobjrhWPp5q88evKCHqEbzU5dOYBi2Lzw16U76Ge7faG/tfnFH5ZqfUgBIdfHZ+AU2myjrRQB2HncCqL17hi7nuPaOGz2sdeiYVOsx1wAdH9/bO0RqYzH2nuAOY+4Nx2UIYpRO9KOiQdBFIlhc66H/aQ/rAbKYYbZ/9+fB63Uh5SlJjokgDAr8jZjNX8hfmyhdqTVxqxNT6y2RgVacu7KMZImLNeHVKQuTSIWotgZ2Y7fu+XdBiYbJJH4jtXuaodN/TyqVwOVhKX6EN0c1Y+gkC3uZHnEnEP3dLtN9heHodMSdpZ3odFV5UbfRGwNHvWqYJWNG938anY7daUGFhMSm1K5UmEu9o/Taiex9nCjb4KdDscH5fKVdQLj9TEW+oP5gcXLbYD4E2UIAM2VZJSaiK097BhQCV/AwbEFsMhnHouPG8/NMXLHfiL5Drf/xEPDgLCJ/k73+DokTnkaoXPCm8d1Z7JFwuF8t3EYti+JfO/X/plABByRnIpP9i6L4YekUB+ikwqjGT/hZQkI/N9q0m1Pp5f99rnN4pyhciEXwzUA8JEhrAK8sRJHFjJ56ornCJULRdUXvz9qgZTe+1O0UvjaD7+TI8VgM+6T4CSerJZM/LMCwwcAK5k8GDr8GzlSrHnFfRIxqk2kCUFPd0ql6vFDo8m/bsAoyIYJOkobmEgT3q1w0ChRXET21w0YmSUsfYFVhWv7e0TbrEAZwCrfDtbR0wasSpRC15BzbP4UcCOMp/uGUMPjxk88mwSGYWlfLEM03BXuKhIETDCe9BnYdILqmhagIXySsgudz3ORjSkz9khhxHCQEVfmVm8Io6l2K4eG8KncCeKJ1Ar2NESDDi4ufhOFdqX6kAK+WAsD95DP6XeivXOWBeHEupPfjNqT4l22AYDLOjthW3ozjPmipxitMJebzchJBjFLhZCvhvo0NMB4ghp8UVxX2Au/+DM9YfICLTGISDzNiUdIsqDpqmd9/6zUJA+Ca+0yE4bwmaJCGOeTPxL2FPI/oB0lZ/QHeXH191GuD5HP+FhPOBeT64mgdJG/ztl0lZckIJOf9jEmyNua+hBsLXbHzxc7nSeqJsssNdvLXQry1TBxaKL9kYYNxLPAir5IcMK4NvVUOGleCWepWYLEGTVRh1Y1hDwkFzHb0Gr6UnH/QZ0xwOZeqbkHMmIZGGh/VNkR2i6tfBhgQ9UonvZOpX5HeGuP1J+qYXQAha+G9Ysm2h+V60OCOE2dY33ParJ2Pr1jwaUECB/FbDOTXgdQPDMsoTTiyjQKtNhgsyxgwXpPzryrqs+FOqxsdIozuYYHmwnD3kiUmzRh6VVDGG00reGGu9BWA7pJWKVw0uQyWeZdEe8kriVA7El3FKuUGegZoFJWI21DKYC5w72LwpwIStoBhq7LFsdOUlFxh3kgBc0DOaMmOjkqaXTOanQHzBzLP2cD1PFLhlA26rR9xne3ITzQMJY0D9SKwTPQyVExhDWdjxrSrDnpGApDWIzZ5mVK3GVBu/UAnkxa0YM10ckx5yLZ13r/BWs8WGKWYcYKsQxYqnqKR3fb65LgTpf2Fibq0HJa7D3PEFAnhHJCwYhxlSf0SGdWhXw1dEaNuDKjZATv93nBQiQ7TnrjCp2Tb3k13e8eCUYjaeYYoZKk27QH0U5cM0kUUewI88VTMqTPSQiSR2akKXUaGn0Qh8C9P5cdiIVlUVtsPl5zVYDCaFIMeGOCVHlIOr09iCRhhFHudMVPWewXu1F+ASD6avRBE5Z+J1uIPGq1hLqFk28lLEvaJQng12st1bkd+Myz0FdDJ9gxwG1ODOHjXlIYBae1J/RDagih+yDBqIrtOl60WXduI/GYoPGLG3JlUjbQo9mC6lKMnBChUSVF6KHXmY5b5DPGp7vTLOdg0No3kn9JDOFDXg4A8g6Qgta2eYCG8B7fNRu2wGHMOuwHfZUVhD/h2jfRHQiWchQe54wwlslDjyHxgHjz95vgiWFzwnDzMd6q1Bn54+rW6aF5MdEdKK0P4Q+5/iq1jaLTs7oqZGRhhPGhO+lXoC3FDDg6nifffmOESpLOM1sfq1fOVCjQtOPR5N44ahJ/2hvflGGTPw1Xg866GSAJMXsuRhodZrTYKH5UYo6vYUA1b1Nur5h746RJ4rPQJMMyNjFsu2PMmB+UXisTmSjTygsluf8g1nKIeNzrTPoHO1pDvtPiSHkNrpfOYDUsTcmGGLbLxi0Mm/pUTJTUK/Uh3Lsba5bJT6IqIyGZeLvInQw2H63tqLzchtvT7myF7N4Lt+xH/tOPAFR0B79bW4d7ebTwlDYVAOf/hS5yJxslaNAf7NfN0HNqX5xjB67DvDD8dTYBsFAfcs/nzgDeGMZ+YXkbVVbbtvUxDbGOV1c3KNSrABYugum6O75Jq//b8SnKkRPHuv6ZIkAMZWL1eNLUI4c27E/2B8thumGzI6GaWMia5173dEvZsqbeWQsNJn3gMNi0d61BPf9I+OUUjIYlxTZTbI3RvNWb8ow0Whowz7M2baGa5qthwyiw/L4t93r+GA/6wzqOdXri1JYBQ2E6hdsth63bvjrF1cbxcQlgfrw57MaT2SgbMdPI0vteLZ+6AdzCSd9KmE63ux33jnbouFFq27jUHSyIp5dua9D/48DyO3+SKSjUrXT/MX7hitWWNg2nJcYc69jbn+b95d+C61WBo81lsUNCr8mUfXvXmWxN644fF7iFqWsFg08WhvZ0vRsPZqN/dcBKAo2rncXVRi3jyv6npZpl2jlWFvD9l5Elsizx6KDL0vYG/xcCk7EyRGIL3maWxfWVvf+mwJqPV+kq2/ZCtAgLM28oNSMA50UYr7v7/e7MPNwx2gsjb/UyJgBi2ALfd6WHabOmiffOmRSASTN0AzvCYsdw81wJ/b8l0Ljt1+fj8dwbz/51q6AXUORP38tb3vLb5dFU/8pSgKrUnXPnI9Wjj66ivUhjOVrJTbD+HobZ8adRwslq5nKdXvbzajnKMhbH4jSGDgP1I4lY+btn8WS7SBiCS6xe5dgbl5sDi18Hu2lsu35gXS+tcjMMgWjWOVytyBfHm+fu7em8L5wYV8SOfC/elzsvd+ictDMs8l0rklKEYOTY4lenmDKBdlC4SuB700mBnNfoxB6GNoRYPHDYpZAjADhtPEe4E/J45HrOs2x1TWELd+ICFRzLyfDv7kcGsBrQTDkHaa97u/CQND0/7PCcnwL9azENRfUi+cf7G68UaXy6qZUEaPtSkoJiuxC9TnuaY0WRBPgpz6abTj66SF9WnpSls1YVYJRcJImvub+y92PP5Nt8OdWjy+/lYUYBgm0Cz3YZih/wFwHax3GHpHv2iArP1RlAbyLEvyY8GbEaSMb4xgi7nXx0m4DHPZNdZn0RwKgnT91/bBay81jCdoUlQeYs3p3m80GnTRsTK0xyu7CS3eb88Lw/3ea3SafHw8+XAAa9TLkNx3SxIM/KUdsM+8iJfqTEqYFSMn63oBYxrc5jrL0vTgIEyG7ZVVY9umdPQoALURHtSXYYt5bZqzJhSv0vvG4ei4P+7lWA2e+wohd45wkIelVu2D9HZepfClD9E1IO3B3S2AutsiXAgXKVCa45yduQndW4UigE8jXgssmoXCH4Okb1C59vdV0C2EhI6BkJjuo37A0Rx4oMah1ArDdiM8BsmNqOuwywkTSqpMIWWZjBCpxoqvqR5bOAj5YXDr8iVYCSp5m9M5JymNifCi8Zzgr3WAYIS486Z9Ldux93AVK3KKrwpIKXoFgpKCmcVGVHJYXulysldQBx0WVv5KPLuwlLtzjUVYD4F3wYeFNc4ShVAcpGAJiAl6mrEh0mYTm1Es7hN1odagA2AHuNJaQYokJSrRRRLdTMWQUgvV+emLA0VRUuqw4gdiCwN8j3Zpp379InZI2WX9DJta7eKwCRVJEUPtAKILA0c9XmwlWAE/EwfPRh5DoO7gKk5qzCHyDeayUTTwsTM3F02bzUFVYjktW3AJ4zChX0F2k/WuqIzZU6hipA/JzklkFR6eoAovLiOPfxayotb2npE+8XX2qbFSvD/NMhedkOVgHS7ajEcCK9KMyqMkBifCXWgWZ2ftdagC6+T1kAROeuwnuVDogYV6ruy7mZSfeXx5ykuwCn6RSll/Dgi+tIUPlE03qAZCMGyRrZqEpXCzCdojRW+hHclEYwr7f9HkDLStddi8l+sLMJCirUvJChBJAq+9HZGZ7EqQMsesi+VwcQlyn/RTZf8/6bbOLSHEqZ2zDGGcq/CRCGqJjRG5XjgIVSGw/Tl/jNynovARxLkry4CfSIyb1KGz7pABIuRIAvk6z0Z6PpEKRcotTDgMHpdJqgY/wtgOhp8QiLA7GIUagylfSZF78UAZKNsBajwiskUqWrA4g0YrwwLLE3dfk1JNScGr88sYNqzir+LkB8eLTqibDpiVXVc+VO1So4cUWAeCP4MLYhz05OB0bjyRAV38dNFflIJUa/rN5H7SbXqkqq/C5A2SsO85j0ShYeo2PiBiS0xKNkG1cCeJS2BXpMnku7kkTpagASi21BnFJk7PG4WGNJ9VKUqqIiNP5L2R1/DyDQndJEzE37MBEi0KeFwwWAUmfEuOFKBW8sWTwVgNDHZyWPyt2Er74YT66JxP7So3B7uS/zdYA4wZdnfHZU503O2UIykxMhz76pA4gPg9LX2bno1yRKtwAQj82p4Vq6H2yjcfP2kG03Z0TOk7w/cRv4i9NLg2FfABilG97GrBsEVtKmnboqFfmosmA52cuqAOnVl8UXBGNDhHSXkAKUsrxdaL+bEfPl24nYcdBIdrP0e8oUhROpODceJ2SG1+0gt2ISK/SkIV1ki7/s5aPdSL0VFSDOo/KWh76alC4B5PIicRAyWYeRvbkGWgTBZmx6uJytkG7CdrPDPYpycSeMz5cDNYB8NeiU6z36pgVNNWmfStqbImoL6W+qAJu8UswItCshL0sGnXjhMoGjlG+NF0lYKYoS6mjgKoc/kncAcDz+BU9GFW4zS/rZl6BavgeAAQ3pOSkApetZLjOifS93GqAJGwZhsVPOLWbKKTwqHZ5YrMCZjV5wtheOIsxzzidZ0bH6T/zulZmT8nx69yXsxY8LCfDsiR8rHdaWHvr94s90XLlKaK3nxacBjdYU+z1GwhY5XnCoHD6dhSslrFWELD427Twb2obZuJXJuHXapqXSsBUHxtUX0w7H49Z4TI7qHM+QPjn9sVqfPcAzsDfMJL+KOHUyq75lGYNpk87Het3rtubaw8vbuNuj47e8nvsJhHVZkZqNs3JW+ae6k+9dpeZWHt3ps+je8pa3vOUtb3nLW97ylre85S1C/gdy0YRIGxuOxQAAAABJRU5ErkJggg==;" parent="o-EWsilDcgqO-dhvd1zq-2" vertex="1"><mxGeometry x="429.9964705882353" y="610" width="80" height="80" as="geometry"/></mxCell><mxCell id="RO3VSnJ_KS7_0PzT1x0Y-7" style="edgeStyle=orthogonalEdgeStyle;rounded=0;orthogonalLoop=1;jettySize=auto;html=1;dashed=1;startArrow=classic;startFill=1;" parent="o-EWsilDcgqO-dhvd1zq-2" target="xxSsAl1sq2vq4wDB8aRe-22" edge="1"><mxGeometry relative="1" as="geometry"><Array as="points"><mxPoint x="319.9964705882353" y="770"/><mxPoint x="299.9964705882353" y="770"/></Array><mxPoint x="319.9964705882353" y="700" as="sourcePoint"/></mxGeometry></mxCell><mxCell id="RO3VSnJ_KS7_0PzT1x0Y-6" style="edgeStyle=orthogonalEdgeStyle;rounded=0;orthogonalLoop=1;jettySize=auto;html=1;dashed=1;startArrow=classic;startFill=1;" parent="o-EWsilDcgqO-dhvd1zq-2" source="xxSsAl1sq2vq4wDB8aRe-22" target="lhPNuWigmKJJLZA_0LKy-0" edge="1"><mxGeometry relative="1" as="geometry"><mxPoint x="89.9964705882353" y="710" as="targetPoint"/><Array as="points"><mxPoint x="299.9964705882353" y="770"/><mxPoint x="89.9964705882353" y="770"/></Array></mxGeometry></mxCell><mxCell id="xxSsAl1sq2vq4wDB8aRe-22" value="&lt;b&gt;User&lt;/b&gt;" style="outlineConnect=0;fontColor=#232F3E;gradientColor=none;strokeColor=#232F3E;fillColor=#ffffff;dashed=0;verticalLabelPosition=bottom;verticalAlign=top;align=center;html=1;fontSize=12;fontStyle=0;aspect=fixed;shape=mxgraph.aws4.resourceIcon;resIcon=mxgraph.aws4.user;" parent="o-EWsilDcgqO-dhvd1zq-2" vertex="1"><mxGeometry x="269.9964705882353" y="800" width="60" height="60" as="geometry"/></mxCell><mxCell id="RO3VSnJ_KS7_0PzT1x0Y-8" style="edgeStyle=orthogonalEdgeStyle;rounded=0;orthogonalLoop=1;jettySize=auto;html=1;dashed=1;startArrow=classic;startFill=1;" parent="o-EWsilDcgqO-dhvd1zq-2" source="xxSsAl1sq2vq4wDB8aRe-0" target="xxSsAl1sq2vq4wDB8aRe-22" edge="1"><mxGeometry relative="1" as="geometry"><Array as="points"><mxPoint x="469.9964705882353" y="770"/><mxPoint x="299.9964705882353" y="770"/></Array></mxGeometry></mxCell><mxCell id="RO3VSnJ_KS7_0PzT1x0Y-2" style="edgeStyle=orthogonalEdgeStyle;rounded=0;orthogonalLoop=1;jettySize=auto;html=1;dashed=1;startArrow=classic;startFill=1;endArrow=none;endFill=0;" parent="o-EWsilDcgqO-dhvd1zq-2" target="lhPNuWigmKJJLZA_0LKy-1" edge="1"><mxGeometry relative="1" as="geometry"><mxPoint x="189.9964705882353" y="95" as="sourcePoint"/><Array as="points"><mxPoint x="309.9964705882353" y="95"/></Array></mxGeometry></mxCell><mxCell id="RO3VSnJ_KS7_0PzT1x0Y-3" value="&lt;b&gt;METRICS&lt;/b&gt;" style="edgeLabel;html=1;align=center;verticalAlign=middle;resizable=0;points=[];" parent="RO3VSnJ_KS7_0PzT1x0Y-2" vertex="1" connectable="0"><mxGeometry x="0.3639" y="2" relative="1" as="geometry"><mxPoint as="offset"/></mxGeometry></mxCell><mxCell id="RO3VSnJ_KS7_0PzT1x0Y-4" style="edgeStyle=orthogonalEdgeStyle;rounded=0;orthogonalLoop=1;jettySize=auto;html=1;dashed=1;startArrow=none;startFill=0;" parent="o-EWsilDcgqO-dhvd1zq-2" edge="1"><mxGeometry relative="1" as="geometry"><mxPoint x="469.9964705882353" y="600" as="targetPoint"/><mxPoint x="179.9964705882353" y="50" as="sourcePoint"/><Array as="points"><mxPoint x="469.9964705882353" y="50"/></Array></mxGeometry></mxCell><mxCell id="RO3VSnJ_KS7_0PzT1x0Y-5" value="&lt;b&gt;APM&lt;/b&gt;" style="edgeLabel;html=1;align=center;verticalAlign=middle;resizable=0;points=[];" parent="RO3VSnJ_KS7_0PzT1x0Y-4" vertex="1" connectable="0"><mxGeometry x="0.25" y="3" relative="1" as="geometry"><mxPoint as="offset"/></mxGeometry></mxCell><mxCell id="o-EWsilDcgqO-dhvd1zq-1" value="&lt;b&gt;Grafana&lt;/b&gt;" style="aspect=fixed;html=1;points=[];align=center;image;fontSize=12;image=img/lib/azure2/other/Grafana.svg;strokeColor=#000099;" parent="o-EWsilDcgqO-dhvd1zq-2" vertex="1"><mxGeometry x="289.9964705882353" y="620" width="68" height="52.800000000000004" as="geometry"/></mxCell><mxCell id="xxSsAl1sq2vq4wDB8aRe-19" style="edgeStyle=orthogonalEdgeStyle;rounded=0;orthogonalLoop=1;jettySize=auto;html=1;entryX=0.353;entryY=-0.019;entryDx=0;entryDy=0;entryPerimeter=0;dashed=1;" parent="o-EWsilDcgqO-dhvd1zq-2" source="lhPNuWigmKJJLZA_0LKy-1" target="o-EWsilDcgqO-dhvd1zq-1" edge="1"><mxGeometry relative="1" as="geometry"><mxPoint x="309.7564705882355" y="600" as="targetPoint"/><Array as="points"><mxPoint x="313.9964705882353" y="560"/><mxPoint x="313.9964705882353" y="560"/></Array></mxGeometry></mxCell><mxCell id="UIrqBbEjIAPsJ5Y3J7Cz-4" value="" style="shape=image;imageAspect=0;aspect=fixed;verticalLabelPosition=bottom;verticalAlign=top;image=data:image/jpeg,/9j/4QAYRXhpZgAASUkqAAgAAAAAAAAAAAAAAP/sABFEdWNreQABAAQAAABkAAD/4QMsaHR0cDovL25zLmFkb2JlLmNvbS94YXAvMS4wLwA8P3hwYWNrZXQgYmVnaW49Iu+7vyIgaWQ9Ilc1TTBNcENlaGlIenJlU3pOVGN6a2M5ZCI/PiA8eDp4bXBtZXRhIHhtbG5zOng9ImFkb2JlOm5zOm1ldGEvIiB4OnhtcHRrPSJBZG9iZSBYTVAgQ29yZSA2LjAtYzAwMiA3OS4xNjQzNjAsIDIwMjAvMDIvMTMtMDE6MDc6MjIgICAgICAgICI+IDxyZGY6UkRGIHhtbG5zOnJkZj0iaHR0cDovL3d3dy53My5vcmcvMTk5OS8wMi8yMi1yZGYtc3ludGF4LW5zIyI+IDxyZGY6RGVzY3JpcHRpb24gcmRmOmFib3V0PSIiIHhtbG5zOnhtcD0iaHR0cDovL25zLmFkb2JlLmNvbS94YXAvMS4wLyIgeG1sbnM6eG1wTU09Imh0dHA6Ly9ucy5hZG9iZS5jb20veGFwLzEuMC9tbS8iIHhtbG5zOnN0UmVmPSJodHRwOi8vbnMuYWRvYmUuY29tL3hhcC8xLjAvc1R5cGUvUmVzb3VyY2VSZWYjIiB4bXA6Q3JlYXRvclRvb2w9IkFkb2JlIFBob3Rvc2hvcCAyMS4xIChXaW5kb3dzKSIgeG1wTU06SW5zdGFuY2VJRD0ieG1wLmlpZDoyMDczRUJFM0MyOEYxMUVBQTg1N0E5Mjk3OEM2ODlCQyIgeG1wTU06RG9jdW1lbnRJRD0ieG1wLmRpZDoyMDczRUJFNEMyOEYxMUVBQTg1N0E5Mjk3OEM2ODlCQyI+IDx4bXBNTTpEZXJpdmVkRnJvbSBzdFJlZjppbnN0YW5jZUlEPSJ4bXAuaWlkOjIwNzNFQkUxQzI4RjExRUFBODU3QTkyOTc4QzY4OUJDIiBzdFJlZjpkb2N1bWVudElEPSJ4bXAuZGlkOjIwNzNFQkUyQzI4RjExRUFBODU3QTkyOTc4QzY4OUJDIi8+IDwvcmRmOkRlc2NyaXB0aW9uPiA8L3JkZjpSREY+IDwveDp4bXBtZXRhPiA8P3hwYWNrZXQgZW5kPSJyIj8+/+4ADkFkb2JlAGTAAAAAAf/bAIQAAQEBAQEBAQEBAQEBAQEBAQEBAQEBAQEBAQEBAQEBAQEBAQEBAQEBAQEBAQICAgICAgICAgICAwMDAwMDAwMDAwEBAQEBAQECAQECAgIBAgIDAwMDAwMDAwMDAwMDAwMDAwMDAwMDAwMDAwMDAwMDAwMDAwMDAwMDAwMDAwMDAwMD/8AAEQgAyAI6AwERAAIRAQMRAf/EANAAAQACAgIDAQEAAAAAAAAAAAAJCgcIBQYBBAsCAwEBAAIDAAMBAAAAAAAAAAAAAAcIBAUGAgMJARAAAAYCAgADBAYDCggPAAAAAAECAwQFBgcRCCESCTFBExQiFRa2dzhRtRhhcTIj1Rc3V5cKgVKS0lSVVnaRQkNTJDRE1CU1hpZHZzkRAAIBAgMEBAcMCAUEAgMAAAABAgMEEQUGITESB0FRYXGBkSKyE3Q2obHRMkJSkiNzFBU1YnLC0jNUFgiCU5OzNMGiQyTiN6PTRP/aAAwDAQACEQMRAD8Av8AAAAAAAAAAAAAAAAAAAAAAAAAAAAAAAAAAAAAAAAAAAAAAAAAAAAAAAAAAAAAAAAAAAAAAAAAAAAAAAAAAAAAAAAAAAAAAAAAAAAAAAAAAAAAAAAAAAAAAAAAAAAAAAAAAAAAAAAAAAAAAAAAAAAAAAAAAAAAAAAAAAAAAAAAAAAAAAAAAAAAAAAAAAAAAAAAAAAAAAAAAAAAAAAAAAAAAAAAAAAAAAAAAAAAAAAAAAAAAAAAAAAAAAAAAAAAAAAAAAAAAAAAAAAAAAAAAAAAAAAAAAAAAAAAAAAAAAAAAAAAAAAAAAAAAAAAAAAAAAAAAAAAAAAAAAAAAAAAAAAAAAAAAAAAAAAAAAAAAAAAAAAAAAAAAAAAAAAAAAAAAAAAAAAAAAAAAAAAAAAAAAAAAAAAAAAAAAAAAAAAAAAAAAAAAAAAAAAAAAAAAAAAAAAAAAAAAAAAAAAAAAAAAAAAAAAAAAAAAAAAAAAAAAAAAAAAAAAAAAAAAAAAAAAAAAAAAAAAAMebE2fiWrY2Kz8yn/Vlfl2b47r6tnLIvlmsiyt1+LRMy3FKSTDE6eymOlZ+BOuoL3jY5dld5ms6tOyjx1KNCdWS6eCng5tdeC29yZi3V5Qs4wlXeEZ1IwT/Slux73s7zIY1xlAAAAAAAAAAAAAAAAAAAAAAAAAAAAAAAAAAAAAAAAAAAAAAAAAAAAAAAAAAAAAAAAAAAAAAAAAAAAAAAAAAAAAAAAAAAAAAAAAAAAAAAAAAAAAAAAAAAAARJ+tjImQ+ieSTa6W9X2UDZerrCssIyzbk19lAyREyvnR3EmSkPQ5jCHEmR8kaRLvJCMJ68pwqxUqUrWupJ7nFwwkn3ptHE8wXKOnJyg8JqtTafU1LY/AbR9COzUPth1i13tJb7B5a3A+yuxoDSiNddnuOIahXpLRz5kNWZ/DnM+BEbMlPA5XX+mJ6S1Rc5Uk/ujl6Si300p7Y/R2xfbFm401m8c7yilef+fDhqLqnHY/HvXYzckcYb4AAAAAAAAAAAAAAAAAAAAAAAAAAAAAAAAAAAAAAAAAAAAAAAAAAAAAAAAAAAAAAAAAAAAAAAAAAAAAAAAAAAAAAAAAAAAAAAAAAAAAAAAAAAAAAAAAAAiQ9bb8hmW/iDrj9eGJe5H+3tL1at5pw/ML2an9rT98hp9FHtL/M32NmaNyaw+XwXsGhmLUG+75YtbtCkYdXSqT5uENqyOr+JEP2ed1DXPsITPzu0r+M6bjntrHG+y5tyw3yoSflfQlhLsWJwvL7OPuOavLqrwtrnd1Kot30ls78C4KKdE5AAAAAAAAAAAAAAAAAAAAAAAAAAAAAAAAAAAAAAAAAAAAAAAAAAAAAAAAAAAAAAAAAAAAAAAAAAAAAAAAAAAAAAAAAAAAAAAAAAAAAAAAAAAAAAAAAAAESHrbfkMy38QdcfrwxL3I/29perVvNOH5hezU/tafvlNiFY21NYVl5QTnavIKG0rr7H7NhZtvV15Ty2rCrmNLSZKSbMthPPB+KTMveLnTp0q1OVC4ip29SLhOL+VGSwkvEyB4TnTnGpSfDVhJSi+pran4y/R0m7J1Pa/rZrbccJbTdxb1CKrNqxCk/Epc5o+K7J655tPi1xYsqdbIyLll1Bl4GPn/rfTVXSWprnJp4ujCfFSl86lLbB+LY+1Mstp/NoZ1lNK/j8eUcJrqmtkl49q7GbXDkzdAAAAAAAAAAAAAAAAAAAAAAAAAAAAAAAAAAAAAAAAAAAAAAAAAAAAAAAAAAAAAAAAAAAAAAAAAAAAAAAAAAAAAAAAAAAAAAAAAAAAAAAAAAAAAAAAABEh6235DMt/EHXH68MS9yP9vaXq1bzTh+YXs1P7Wn75TPF0CBScL0O+0Raw3nf9c8msvgYfvNJ2+IJkO+WPX7RooZm7FY8xkhpWW4+waTIi5ckxG/eoxBnPTS34rkNPUlrHG8sPJqYb3Qk97+zm/ApPqJF5d5x90zGWVVmlb3G2PZUS/aXuotuiohNoAAAAAAAAAAAAAAAAAAAAAAAAAAAAAAAAAAAAAAAAAAAAAAAAAAAAAAAAAAAAAAAAAAAAAAAAAAAAAAAAAAAAAAAAAAAAAAAAAAAAAAAAAAAAAAAGNtsbVxPTWHP5tmUpUaqbtqGhjNtElUqfdZNcQ6KkrIbalJJ2VOsp7aElz+k/cNnlOU3edXqsbJY1eCc31KMIuUpPsSTZi3l5RsaDuK7whxRXe5NJJdrbI2PW15/YLyzn2/zg635/f8Arw/3hJfI/wBvqXq1bzTkuYXs1P7Wn75TQF0CBDlaHIb7EL+gy/FZ7tXlGJXlVk+N2TKjQ7BvKOa1YV0hKi4Mk/HZJKy/4zalEfgY9Vxb295b1LO7jx2lanKE49cZJprxPZ2nso1alCrCvRfDWhJSi+prai//ANTewVD2h6+613VQrZQeW0LB39c0tKlUeW1//QMnpXkkZm2uBbsOkgj8TZNCvYoh8+dW6euNLahuskuMfqaj4H86m9sJeGLWPbiizOS5nTzjK6OYU/lx8pdUlskvAzYsc4bUAAAAAAAAAAAAAAAAAAAAAAAAAAAAAAAAAAAAAAAAAAAAAAAAAAAAAAAAAAAAAAAAAAAAAAAAAAAAAAAAAAAAAAAAAAAAAAAAAAAAAAAAAAAAAArq+rV2XO57WdQOqOOTvPBxrb+r9pbOQw7yhVrLyaNEwSjlpSfBrjx/j2CkK/xmlGXgQsdyj0yqGks41bcxwqVbOvQoY/NUG6sl3vCGPeRbrbNuPOrHJqT8mFenUn3uWEF4NsvEbd+tt+QzLfxB1x+vDHH8j/b2l6tW803XML2an9rT98pni6BAoAE9foVdovsNtTLereT2JNY5tNuRmuukyXvKzCzynjJTkVRGJaiQ39o6RpL5JSXK3ovh4qMQFz40s7/KaOqraONzaYUq2C30pPyJPr4JPB9kiTOXOcOhd1MorNKjW8qHZNLyl/iW3vRa0FTiZgAAAADwZkRGZ+BF7T/R+6AOAPLMWI1JPJcfI0qUlRHc1xGlSTNKkqL5nklJUXBl7jGR90uv8qp9F/Aer09H58fGh9rMV/2mx/8A1zXf95D7pdf5VT6L+AenofPh40f2YyXHZTzcaLf0smQ8ryMx49rBefdXwZ+Rppt9S3FcF7CIzH5K2uYRcpU5qK3txeHvH6q1KTwjKLfejmh6D2AAAAAAAAAAAAAAAGPZ229U1cyXX2Wzde10+A85GnQZ2aY3EmQpDJ8OsS40iybejPNH/CStKVJ95DY08ozarBVKVrcSpyWKapzaafSmo4NdxjSvbOEnGdakpLenKKa79p3eBPg2sKLY1k2JY181lEmHPgSWZkKXHdSSmn4sqOtxh9lxJ8pUhRpMvYYwalOpSm6VWLjUi8Gmmmn1NPame+MozipwacXua2pntjwPIAAAAAAAAAAAAAAAAAAAAAAAAAAAAAAAAAAAAAAAAAAAAAAAAAAAAAAAAAAAAAAAAAAAAAAAAAAA6RsvYGOao19mmysvmIgYzguNXGU3UpxZNkiBTQnprrbaleBvyPhE22n2rcWlJFyYzssy+5zbMKGWWceK6r1Ywiu2TSXgW99hj3dzSsrapd13hRpwcm+xLEoc0+1sg3r3bwzc2VLcVe7K7IYTk0llxZr+roL+V17FHTM8n9GNTUrLEdCS4IvIfh4i+1fKbfIdDV8ltEvQWuWVYJ9bUG5S75SxbK3RvauZahhf1/4tW6hLuXEsF4Fgi0d6235DMt/EHXH68MVZ5H+3tL1at5pMPML2an9rT98pni6BAoAHP4ll+Ta8y7E9iYXNXXZhgWRVWW4zMbWps02tLKRLajLWkyP4E9tCmHC9ikOGRjHvLO1zKzq5dfLis7inKnNfoyWGPet67Ue63r1rW4p3Vu2q9KalHvXw7j6BfWfeuNdldFa13ZijqFVud41Cs5MVKiNypukI+VvqWSkjM25NVbsPMLSfiXkHz31PkN1pnPrnJLtfWUKrin86O+El2Si0/CWbynMaWbZdRzCj8WpBPDqfSvA8UZ1GhNiAAAHrTW1vQ5bLfi47GfbbIz4I1uNKSnk/cXmP2+4eUGozUnuTR+SWMWuwpa5f6Qff2vlZ3lUvEKRukZu83ypb6d0wTcKkVaWl0h5MZNl5ydOvMlE0REZH9H2i61nzg5f1I29pCtP07hSp4fdn8bhjHDHDr6fCQDX0PqaM6lZ04+j4py/irdi319XQRo4bj+R5/leJYVjE62l5DnF/VYzjsaTklrDjybe6kJi17MiW9OJqIy48oiU4v6KC8TEm3te2y+0rXtzGCt6FOU5tQi2oxWLaSW3uW85K3pVrqvC2oturUkoxXE1i3u6Scjpp6WHd7TnazRe0Ng4rTQ8IwbOWbrJpkfbcK8cZrW6yyiqcaqUT3HLA/jSUcIJJn7+PAQVrPmrofOdKX+V5fWm76vbuME7dw8rii/jYbNie0kPIdG6isM6try5hFW9OpjJqqnswfR0lrkVPJpAAAAAAAACuN6wHdLs51y7C6+w7S20p+D41catbvrKsi1NJPRKtlZHZwjmKdsoEp9CvlWEJ8qVEnw545FkeTuitL6k07cXud2ka9zC64IycpLCPBF4eS0t7Iq1zn+b5VmlKhl9Z06UqOLWCeL4msdqJJ/Sy3LsvfXTjBtk7byh/Mc3tcgzWHYXsmJChOyI1ZkUuHAaOPXsRoqSjxm0pIyQRnx4+IjTmrkuWZBrKvluT0lRsY06TUU28HKCb2tt7WdZo2/u8yyGld30/SXEpTTeCW6TS3dhIkI5OpAAow9xunnZnKe0PZzI8f627hv6TIduZ7aUt1VYXby6+5gTZS1RZ9fJa/i5MWSk+ULT4KIXs0drPTFrpbK7avmVnTr07OlGUZVIpxaW1NdDXSV4z7Is4rZzeVaNpXnSnXm01FtNPpXYXAOlmPXWJ9S+u+M5HT2GPX1FqXDay2o7aM5Es6qfFqGGpEGdFd/jI8mOtJpWhXiRkKd62uKF3q7Mbq2nGpb1LupKMovGMk5PBp9KfQThkFKpQyW1o1YuFWNCKaexppbn2mzw5c24AAAAAAAAAAAAAAAAAAAAAAAAAAAAAAAAAAAAAAAAAAAAAAAAAAAAAAAAAAAAAAAAAAAAAAAAAABAF67/Zj7I6pw3rFjtj8O+23NbyfOG4zppej69xia27GgSSQrkmcgyJtsjSrjzNxVF7FCwXIXTH3vNq2qLmP/r2i4KWK31pra12whj4ZEacx829BY08opS+srvin+pHo/xS94ra6B/MBoX8ZtcfeivFldQ+zuYepVvMZE2W/mdt9vDzkW2PW2/IZlv4g64/Xhio3I/29perVvNJs5hezU/tafvlM8XQIFAAACwt6D3Z/wCz2X5x1QyixJuqzIpuyNWtyXT+HGyWG039uMdiEpRJQVrAQiybQXBG4y/wXKhXfn1pb7xZUNW2sfraOFGvh0wf8Kb/AFXjBvqcSUuXGc+jr1MlrPyan1lP9ZfHj4V5S7Uy0SKskwAAAAAGP9sf0WbL8P8A4/zLw/8ATtkNhlH5ra+sU/PiYt7/AMKt9lPzWUB+qP5kusv41a35/wBfR/AfQPVns1mnqVbzWVoyT82s/WIe+fQ4HzsLQgAday/M8S1/jtnlucZLR4jjFMwuTaX+RWcSoqYLKEmo1yJs51lhBq44SnnzLV4JIz8Bk2dld5hcxs7GlUrXU3hGEIuUm+xLFnpr3FC2pOvcTjCjFYuUmkl4WRU7C9bzothdhKrKHJc42g/EcW0qZgGFz5lK64gzLhi3t3KiPIQoy8FtkpPHjyJYy/kbry9pxq3FKhaxltwq1UpeGMeJrueDONuuYWnLeThTnUrNfMg2vG8DpdD68vTCxkNM3tHujFGnFElc2fgjdhEYI/8AlHjqLaY+TZe80tqMi9wzbjkHrWmm7epZVWuhVcG+7iil7p6KXMjIJywqRuILrcMV7jZIHozvB1T7HqZi6g3ZheTXLyEqLGXrA6TKUqPg/hlj12ivs3nE8+JNNuEX6RHue6G1ZppOecWNelRXy8OKH044xXhaOmy7UGTZrssbinOfzccJfReD8RmTbu28B0VrjKtsbQvE43geFV/1rkl2uLLmpr4Px2o/xjiwWZEt7+OfSXCEKPxGlyfKMwz7MqWU5VTdW/ry4YRxSxeGO94JbF0mdfX1tltrO9vJcFtTWMng3gu5bSnt6tnZbSvaTfmvc60bmbWbYzT6uaoLWxZrrOtTDuPtBYWHySmrWLDfcWUOShZqSk0l5uOeRcblHpjO9K6fuLDPaLoXU7pzjHijLGPAlj5La3pkF63zawzjMqVzl1T0lGNHhbwawfE3htw6CRb0xvUV6gdcOoODar3BtmNimeVF9mc6zoXKDIp7sWNbZDLnV7pya6slRHESYjqVF5VmZeJGRGQjnmhy41hqTWFfNcntHVsJ06ajPjgsXGCTWEpJ7H2HV6R1TkWU5FTsr6uoXMZSbWEnhjJtblhuN/XPWO9PBptbi99xSQ2lS1H9lMw8EpIzM/8AyT9BCPlya5iN4KweP2lP946X+u9Lr/8AqX0ZfASM4Zl+P7AxLG84xSeVpjOW0lbkNBYpaeYTOqLaK1NgSiZkIbfaJ+M8lXlWlKi58SIxHF7Z3GX3dWxu48F1RnKE47HhKLwaxWzY10HU29elc0IXFF40ZxUovrTWKNINpeqP0h0vnuX6z2NuWNj+Z4JYnVZRULxvJ5aq2cmMzMNlUiFUPxnjKPIQrltai8R3GVcrNcZ1YUczy2ydSyuI8VOXHBcSxw3OSe9dJz15rHT1hc1LS7uFG4pPCS4ZbHv6F7xvRjOR0+YY5Q5Zj0sp9Dk1NW39LOJtxoplVbw2Z9fKJp5KHWyfiyEK8qkkoueDIjHCXVtWs7mpaXK4bilOUJLqlF4NeBo6OlVhXpRrUnjTnFST601ivcOcHoPYYu25uzU+hcRlZ1uHPcb19i0UzQdpkVg1DTJfIuSiV0X6cyzmqI/BmO244ZePl4G1yfJM2z+7Vhk1vVuLp/JgscF1t7ortbSMO9zCyy2g7i+qQpUV0yeHi6W+xET2X+vH04o7B2HitDt/YEZpSkfW9Nh7NXWPmlRp88Rd9ZV8t5pXHJKNlPJGJas+Qms69Pju6lnbzfyZVOKS7+CLS8ZxdfmRkNKfDRjXqrrUcF4MWveO1a29cPpHm9nGqcps891K/LeQy1YZ7ibyMfQpZ+UlSbqjkW7MRHmMuVOoSkveZDEzLkZrixpuraRt7yKWOFKouPwRko4+B4nttOYenrmfBWdSg2984+T41jgS04tleM5vj9XleHX9PlGNXcVubUX1DYRbSpsYjpcofiTobr0d5B+w+FcpURkfBkZCI7q0urG4laXlOdK5g8JQmnGSfU08GjtqNajcUo1qEozoyWKaaaa7GjnxjntAAAAAAAAAAAAAAAAAAAAAAAAAAAAAAAAAAAAAAAAAAAAAAAAAAAAAAAAAAAAAAAAAPSs7GDT11hb2clqHW1cKVY2Et9RIZiwoTDkmVIdWfBIaYYaUpRn7CIedKlUrVY0aScqs5JJLe23gku9njOUYRc5vCKWLfYigJ3G7DWHajsvtPdb8h1yguLpzHtexVqM0QdfYy45W0HwkH4IO1+EuYvgvpG8Rj6C6M07T0rpi0ySKSuIQ46z660/Kn9HHhXcVnz/NJZzm9a/f8OUuGHZCOxePf4ToGgfzAaF/GXXH3orxn6h9ncw9SreYzFyz8ztvt6fnItsett+QzLfxB1x+vDFRuR/t7S9WreaTZzC9mp/a0/fKZ4ugQKAAAHc9cbFyjT+wcK2thUhcXK9eZJWZVSrQry/Gfq30uvwHf8ePZQ/iR3EnySkOGRjCzLLrXOMur5TepO0uKUqcu6S2Pvi8Gu4ybO6q2N3TvbfZWpTUl4OjwrYfQR0PuLFuwGndd7kwyS3Ix7YOMVuQRSQslqhyJLJJsat/x5TKqrJt2O6R+JLaMfPXP8mu9PZzc5LerC5t6rg+1LdJdklg12Ms3lt/RzOwpX9B40qsFJdnWvA8UZbGoM4AAAMf7Z5/ms2Xx7f5v8y4/f8As5ZDYZR+a2vrFPz4mNe/8Orj/lS81lAfqh+ZLrL+NWtv19HH0E1Z7NZp6lW81lZ8k/NrP1iHvn0OB86y0J4MySRmZkRERmZmfBEReJmZn4EREAKPvqP9xc+7mdgbzDaibZS9Q4Xm0jBNT69rXFlByO6i2h0J5XaQkLJq3vshtuUxTe86IsfyJRwZqUd5uW2jMv0Vp6neVoxWcV6Cq16z3wi48fo4v5MYR+NhhxPFsr1qrPrrPs0lb03J2NOpwU4LdJp4cTXS5PdjuW4ko0T6BTVni9Xddidy39HkU+HHkycE1dCqmolAbzSHPq+flVxHnO2c+MavK6caOzHSsjJCllwo4zz7+4B0rqdDTllTqW0ZNKrXcm54fKVOLXCn0cTbw3pbjq8u5aKdFVM0ryjWax4KaWEexyeLb7kl1YmSc0/u/OqJMF9WuewWy8ftUtqOM3l9Pj2W1Dj3H0SlJiM0Vihoz8DNt4jIvYNXZf3CZtGaWZZda1KXT6OU6csOzFzXjRl3HLKylH/1LqtCf6SjJf8AR+6RqXHpn9n+pfZHQOV5Ti0TOdfQt4a2QW0dbfO2NfWsuZPXtk7kNeplnIsbZcJZJWt9C4vJmXxVF4iTaHM7S+rtNZhaWlWVDMJWNb6itgnL6t/ElthN9iwfYjlZ6RzbJM3ta9aCqWiuKf1lPF4eUt6+NHw7O0tZds9DL7O9eNoaJayYsOXsagKkTk31Ym5+qTKbFl/M/VipMNMz/q3l8puo9vPIqfpHP1pfUVrnzpemVtU4uDi4eLY1hxYPDf1EyZ3lrzfK62Wqfo/Sxw4sMcNqe7ZiUye+XTNfSHaWI6yc2GeyF5Lg7OWruDxxrGSgq+tJdSqvTCasbMpCS+T85O+dJn5uDT4C6WgdaLXGVVs0Vv8AdlSrunw8fHj5KljjhHDfhgQJqTIP6dvIWfpfTcdPix4eHDa1hhi+rebc9LvSLldv+v8AjW82N8fYL7RWuR1p4yrAY9+mGVBavVZPFarv4C3zlmwazT8JJI545Mchrbm9DR+oauROw+8KnCEuP0rhjxx4vi8Lww3b9pvMg0P+O5bDMVc+i4pSXDwY/FeG/FG0r/8Ad6rJ5l1r9qtCfitrb83808U/L50mnnj7VlzxyOUj/cPSjJP8Jex/zD//AFm5fK+WH/N//H/8iw3p3AFap1TrnWi7T68VgWGY7iSrj5UoP1odDVxq453yaXXyi/M/L+f4ZLV5eeOTFds5zD8Wza5zNQ9GrivOpw448PHJywx2Y4Y4Y4EoWFr9ysqVpxcXoqcY44YY4LDHDoKO3qaHx3k7Y+z+kFz3F/s9UC83LH2Gyn1ZefIrxrD2ivftP2UXaet/5e9G/hFrr7o1IpDqT2hvvW63+5IsHlf5Zb/YQ81Hsb93XhvXXT2fbnz2V8vjOA0Eu6mNIUhMmykISTVdTwSX4OT7ewdajspIjM1uF4ccjx0/kl7qPOLfJcvWN1cVFFdSW9yfZFYt9iP3MswoZXY1b+5eFGlFt9b6ku1vYijxs7aPY/1HeyFMqfEsswz3N7l6p1nrSC+pOMYBQ+ZcgoUFl1X1fVwqivL49pavl8RxRKWtR/RSLzZXlWmuW+mp+jcaOXUIKVas15dWW7F4bZOT2QprYtiS3srzeXua6rzaPEnO4qSwp018WEd+C6EktspMm81R6AGDlj8GXvLeOaT8qkMtuT6bWUeroscqnlII1xI9pbwrK3uDZV9E31ojpXx4NkQg7Nv7gr77xKGRWFCNonslWcpzl2uMWox7tuHWSDY8srb0almNxUdbpVPBRXZi02+/YYs7J+g3b4piVtlPWfZ15nlpUw35jms9hxqtu0vWWEG45GxrKKxiHHVarbL+KjTGCbeV9EnUqMiPa6Z5+Ubu7haantadvSnLD01Fy4Y9s4Nt8PW4vFLbgzDzbltKjQlWyirKrOKb9HPDF9kZLDb2Nbesjz9PXvhnfSDasTHshl2y9E32TfUO1teWqZCDwiyOd9VTsrpa6SZKobzHpxf+IxkJQ3JZQolJ86UqKRuYugrDXGUu4t1D8ep0uKhWjh9bHDiVOUl8eM18R7Wm1hsxRy+l9SXOnrxUqrl+Gynw1IP5DxwcknucX8ZLY12l32tsYNxXQLaslMzq20hRbCvmxlk5HmQprCJMWUw4n6K2X2HErSZe0jFGqlOpRqSo1U41Yyaae9NPBp9qZYWE41IqcHjCSxT7HuPdHgeQAAAAAAAAAAAAAAAAAAAAAAAAAAAAAAAAAAAAAAAAAAAAAAAAAAAAAAAAAAAAAAARA+s/2XXpLqrM1xjtkcPPOwMuRgNcqO75JldhqGUSM8uW/IonG+KpaYSFf85NLg/AxMXJXTH45qtZlcQ4rDLkqrx3SqY4Uo/S8prqicPr7N3l2Su1pPC6uXwLrUflvxbO9lNxCENIQ20gm2m0IbbbT4JbbbSSG20l7koQkiL9whcxtt4yeLIGMtaB/MBoX8ZdcfeivGo1D7O5h6lW8xmbln5nbfb0/ORbY9bb8hmW/iDrj9eGKjcj/b2l6tW80mzmF7NT+1p++UzxdAgUAAAHs8S9peJfvl7ABY69BjtCUKVnfUXKLAksOrnbO1MmQ6RElL620ZzjMQlePDUlTdg02R+CXHjIvaK3c/NLOpChrC1ji1hQr4Lq/hTfgxg32IljlvnCXpMkqvrqU/24rzl4SzKKxEtAAABj/bPhqzZZ/wD1/mX3cshsMo/NbX1in58TGvf+HW+yl5rKA/VD8yXWT8adbfr6OPoHqz2azT1Kt5rKz5J+bWfrEPfPocD52FoT1LCMc2BNhpX8JUuJJjE4XtbN9lbRLLjx+ga+R505cFSM2seGSfiPGS4ouPWj54FxHyvQu/rRFlWGzmult1ybCTUWKVsk9bYhmC7RliR50mtMezYaQpK+PFDpKLkh9FaTtM/0/B05Y2N9ZJKS24RqU+HFfqvo61gVeqRq5Zmj419fQuMcH1xlj7uBdE66+pz1B7D0dQ/A2pjuv80mR2Ctde7HsYuJ39XZG0j5mLHk2rkaqu4qHzUlqRFeWTqSIzSgz8pUq1Hyv1jp24nGpaVLizi3w1qMXUhKPQ2o4yi8N6ktnbvJ9yvV2R5pTi41o0q7W2FRqLT6ljgn3p+I31rLipu4qJtNaV1vCcIjbl1k6NPiuEfiRokRHXWlEZH7jHAVaNahPgrwlCa6JJp+JnRwqU6i4qclKPWnj7xyBpJRGSiIyP2kZEZH++R+Bj17jzPIAqSevb+avVf4LNfey3FuuQXspd+uv/biQlzK/OaPq/7TJe/RU/8Az/1r/vTsT71zxD/Oz/7AufsaPmI7nl/7MUf15+cyWARKdoABQt9TX88nbH8QHPu9UC/HLH2Gyn1ZefIrbrD2jvvtP2UXaut/5e9G/hFrr7o1IpDqT2hvvW63+5IsHlf5Zb/YQ81ELn94D2ZNq9O6P0/CkLajbC2JNyfIGEKUkpdTgFYUyHGdIuCWwu6sGVmR8kZtkJr/ALfMsp1s5vs4mk521soQfVKrLBtdvDFrwnAczLyVOxt7GLwVWq5S7VBY4eNow5/d/NQ1dhd7/wB82MRqRaUjtDqvFpLqCWuvZlRftHlL0VSiP4bs51cVpak8H5GvKfgY3X9wecVadDL8hpNqlU469RdbT4IJ93lNdrMHllYwlO5zKSxnHhpx7PlSw79hZuFYCXDwZcgClf6zGmKfWPdvK7GnhMwqXdWG0+wZcRhtLbB5A8uTjuTSUISRIS7YvwUPu/4zizV7TMXZ5L53WzTQ9GnWk5V7GtKim9/BsnBeDFpdmwgHXthTs9QTnBJU7imptdHF8WXjwTZYl9IvadjtboXpWfdSXJlzh8O31xYSXVm468rCbSTTw1OqVyo1/VrTJePj4CufN/KqeU6/vqdFcNGtKNZLo+tipPD/ABYko6HvZ3umredTbUgnB/4Hh72BJYIyOtAAAAAAAAAAAAAAAAAAAAAAAAAAAAAAAAAAAAAAAAAAAAAAAAAAAAAAAAAAAAAAACjh6o3Zn9pnt3nM6nnfOa/1Ot/VWCG278SHKRRTHDyq8jEREkyuMk+KSV+1TLCC54IhenlZphaY0fbwrRwzC7+vq9a419XF/qww8LZXfWWb/i+d1HTeNtQ+rh1bH5T8MvcSI7xIpyplbQako3/oVS1JQn+efW6fMtRJI1HlFeRJI1GRGZn7hqNQJvT2YJb/ALlW8xmbln5nbfb0/ORbX9blxtvoXlinHENp/nC1unzOLShPJ3h8FyoyLk/cKj8jk3r6kltf3at5pNvMP2an9rT84ppF4lyXiX6S8S/4S8Bc8gUAAAAAyFqTa2UaK2lr/cuGOOoyTW2TQMlhstLUgrKDHX8O7pHvIZGuNdU7j0dafYfnL9A12b5Ta59lVxkt7h92uaTg381v4sl2xlg/AZlhe1stvaV/Q/i0pqXelvXc1ij6C+odn4xunWGCbXwyY3PxjP8AGKnJqh9tRK4j2cVt9cZ3gz8siG8amXU+1LiDI/YPnpnGV3WSZpcZRex4bq3qyhJdsXhj3NbV2Ms5Y3lG/tKd7bvGjVgpLw/BuMjDWmUABj/bH9Fmy/w/zL7u2Q2OUfm1r6xT8+Ji3v8Awq32U/NZQH6o/mT6y/jVrb9fRx9AtWezWaepVvNZWjJPzaz9Yh759DgfOwtCABE1309KLWPcK4e2fiWQHqXd6oLEKdk0auTZ4zmrEJv4UBrNKVDkd5cyIyRNt2EZaZKWiJK0upJJFLegebOaaNorK7un97yPibUHLCdLHe6ctqwe9wl5OO1NHFak0XZ57N3dGXoMwwScksYzw3ca611rb3kAG0/Ru71YA9ITC1vi226ZtxaWLHAMmrpL0htHiTp0GRJq7Rla/aRElRkfgRiwWVc59CZgk53NW0rNbqsGsP8AHDiiyM73QWorZ4Qowr0+uEl5ssGadWmP9qOq9il20r+wPX+bGfJLcspGZYrWJeSrgiTLZfXRLLzlx4n5T/eHZ0rnS2q6XDSll+YQa3YU6kvE1xGinSzrJpeWrm1kunGUV49xLd0N9ZTbOJZvimr+1t63sTW+TWVfj8LakqLGiZlhFhZPIiVc3JXILbMPJcbelPIbkPm2iVGJROGbiCMhEOvuTGUXdjWzTSdN22Z0ouboJt06qjtkoY7YTSxaWPDLdsZ22m9e3lC4hZ51L0trNpKphhKDexcXRKPW9637i1w24h1tDra0uNuIS424hRKQtC0kpK0KT4KSpJ8kZeBkKnNNPB70TQmmsVuKk/r2/mr1X+CzX3stxbnkF7KXfrr/ANuJCXMr85o+r/tMl79FT/8AP/Wv+9OxPvZPEP8AOz/7AufsaPmI7nl/7MUf15+cyWARKdoABQt9TX88nbH8QHPu9UC/HLH2Gyn1ZefIrbrD2jvvtP2UXaut/wCXvRv4Ra6+6NSKQ6k9ob71ut/uSLB5X+WW/wBhDzUV7v7wixILM+rMr6Xyh0e0oqT5PyfNfHxh4y49nnNhB/4CFh/7eXH7lmsfl+koPweWvfIw5np+mspdHDUXh8k2M/u/kiMvrjuuIg0/Nxd5z1yi5+mSJWNUzkU1F7SI20nwOc/uEjJaksZv4jsFh4JyxNryya/CrhdKuH5qJ7RAJJIAFTn19n4y+yulI7Zp+bY1BZuSSIy8xNP5YooxqL28GbS+P8Itr/b/ABmtM30n8R3kcPBT2/8AQhXmW082t10qg/OJIfQealI6QynniUUWTujZrkDnng2E2EVpw08+45CF/uciNufbj/XEYr46sqGPfg/+h1fLhP8Ap5t7ncVMPGiaUQmd+AAAAAAAAAAAAAAAAAAAAAAAAAAAAAAAAAAAAAAAAAAAAAAAAAAAAAAAAAAAAABoJ6lvZlPV3qbsLLauc3FzzLoitea4b85FI+1OUsPw/rNpHmJZpx+sN+aai8ErZSR/wiEgcstMPVOrbe0qxbsKL9NW6uCm0+H/ABywj3N9RzWrc3/B8kq14PC5muCn18UtmP8AhWL8BSF17rjYWzrSPi+sMGzLZOQuL+GcDEKOwyCWuQ6o1uyLCVGbVDhqfeWa1uSHWy5UZmYvHmOZ5dldJ3WaV6Ntb9dSSgsOhJPa9mxJJlera0u72ao2dOpWq9UU343uXhZLhof0Pe1uy1Q7TblxiuhMcf8AhuOwpLzea54phXBmlNXWOt0NdINJ+x6S6aT9qREOfc89J5YpUsohVzC5W5r6qlj+tJccl3RXedvlnLzObvCd+4W1J9GPHPxLyV4WybHrn6PPT7QNnR5bPx2529sKgmw7aty7ZFiqe1WW8JaXo1hS45CKJR1r0aQnztqNp1aDIuFckIR1Jzk1jqClO0p1IWeXVIuMqdFYcUXsalN4ykmt+1IkHKtDZHlk415RlXuoNNSqPHBrpUVsXiJFNm6q1zubEZ2BbUw2izzDbJ2M/Ox3I4SJ9bIfhufGiPqZWZGl+M79JtaTJSD8SMhHGV5tmWS3kcwymtUt72CeE4PCST3rufSjqbuztb+g7a8pxqUHvjJYojL2J6JPRPNjefx/D8u1bPdNSkyNfZjaQYjS1cn5iqrRVpXmRGfgRIIuBJ+Xc8NeWOEbitRuqfVWpxb+lHhZyN1y+05cbadOdGX6EmvceKNFNh/3fKU2T7+o+yklX8I49XsrD40xPHBmhtdxjsmHIMufA1fAMy/dHeZd/cNB4RzfLF2yo1Gv+2aa905y65Yva7G7fdUjj7scPeNENhejH3ywY3nabDsF2hBa8ykvYRmkaHPcQkzPwqsmYrXDcUkvBKXVfvjvcv506Bv8FWrV7Wo+irTbX0ocXvHN3WgdR22Lp06daK+ZLb4pYe+aL5/1s7F6qccRsnQ22sPQ0aycmWGE28yqIkGZGpNtTs2Netvw/hefgd3l+pdOZsk8sv7Ss30KrFS+jJp+4c5c5Rmtk/8A27atTXW4NrxrFGEifZJw2/ioS8hRkplZk2+hST4MlsOeR5BkfuNJGN5wvDFryfc8e412Kxw6SzV6DHZ0pWP5x1KyexL5nG3pmxdTIkPF5l43ZyU/bHGIpLV5jKjuX0zWG0+yNLc4LhsxWHn5pdxuKGrrWPk1EqNxgvlxX1c3+vHyW+uK6yXuW+cKVKpklZ7YYzp/qv48V+q9vc31FjkVuJUAA6Btj+izZf8AuBmX3dsRsMo/NbX1in58TFvf+FW+yn5rKA3VD8yXWX8atbfr6OPoHqz2azT1Kt5rK0ZJ+bWfrEPfPocD52FoT0bSxi09bYWs5akQ6yDLsZa0NrdWiLBjuSZCkNtkpbikstmZJIjMz8CHspU5VqsaMPjzkku9vBHjOUYQc5fFSbfgMfaj3Rq3fGGV2wNR5vQ51ilkk/hWdHMQ+cV9BqS9Bs4avJNqbGOtBpcjyW2nkGXinjgxsM4yTNcgvZZdnFCpQu4/JksMV1xe6SfQ02mYtjf2eZUFc2NSNSi+lP3Gt6fY9pk/wGrMw4LJMYxzMaWfjmWUVRklBaRnYljTXlfFs62bGfbU06zIhzGnmHELbWZeJe8e+2urmyrxubSpOlcQeKlFuMk11NbT11aNKvTdKvGM6Ulg01imu5nz8e5eB4Xq3sr2Q1zrZTZYLh2w8gq8UixX/mGaqMaWpZU0R7zKNTNRPfNlovMZoJJJ9w+hOjL+9zXTOWZlmeP3+tbQlUbWDk9q4n2ySxfXvKy59bW9lm11a2n/ABqdWSjh0di7nsL5PXly5d0JpZzIidK9XqvAVWvx/N8f55WL1ZyDe830vimvnzc+PPPIoRqJUFn96rbD7ururw4dXHLAshljqPLbd1f4noYY9/Cist6+tbKjdmtN2riDKJZabkMR3OPoqegZbZfMNkr2edCX0GZe3hRCzv8Ab/UjLTF7SXx43qb8NOOHvER8y4NZtQm9zoe9Jko3oc5PVXXRako4kxl60w3Y2wKW7hpWk34L8q2K5hE8gj5SiTBsELQfsUXPHsEWc87WrQ13OvNNUa1tSlF9DSjwvxNNM7Hl5Wp1NOxpwflU6s011YvFeNMmFEOHcgAULfU1/PJ2x/EBz7vVAvxyx9hsp9WXnyK26w9o777T9lF2rrf+XvRv4Ra6+6NSKQ6k9ob71ut/uSLB5X+WW/2EPNREz68um7HM+s2Fbdp4TkuRpHPmbK/Nhs1uMYbl0RWPXM1flLzFHr5jkZ1w/YlJGo/YJc5B51TsdTV8nrSwjfW7UMdzqU3xxXe1xJHFcyLCVxlEL2CxdvUxf6slg34HgaBehT2Lodb7q2LobK7SPWQ92Q6m8wd+W+lmLKzvFo78SZRtrWZN/PXVC6lxhPPLq4xpTyoyI5B586cuMyyO2z+0g5TsZSjVSW1UptNS7oz2PqUjmeXOa0rS/q5bWairhJwx3ccdjXe47V14FssVIJqP5uutMNOvPONssstrddddWlDbTTaTWtxxajJKG0JSZmZmRERD9ScmoxWMmG0tr3FFj1PuyFP2N7f7JzbEpxXGC4NDg6xwqfFM3o943i7slNrZVhp8H4lrksp5EdSefjJSSi5IyF7+V2m62m9HW1jeR4L+vJ16qexxdRLhjLqcYJN9RXTV+bUs2zyrcUHxW9LCnF9fDva7HJvDrLX/AKamkLHr90r0dgF7FVCyZ7GvtdlEZafI7HvsykvZDNjvJPxJ6KmchtRH7FIMhUvmZnlPUOtr7MKD4rVVfRwfXCmuBNdjwx8JNGk8ulleQW9rUWFXg4pfrS8p++b2DgzowAAAAAAAAAAAAAAAAAAAAAAAAAAAAAAAAAAAAAAAAAAAAAAAAAAAAAAAAAAAAANS+xfT7Q3ZW/wzLuwFbZ5hj2rItvOpMNn302twJqZOQldnkN9VVzkV22mtQ4yW0G698FtklEaD8xmOu03rHUGmbetZ6flGjcXcoqVRQUquC+LCMpY8KxeOxYt4bdhpc0yPLc1q06+ZJzpUU8IttQ273JLfs8BzuvtgdQtcY9EodZZx1+wzG2WkIjVuJZPgVLA8rReQvO1XTmCdfQZGSjc5c83PmPnkY+Y5frDMriVfNKGYVrlva6kKsn/3J+5sPZbXWR2lJUrSpbU6S6Iygl7jO8/tBaH/AK6dU/2g4p/Kwwf6ez7+Su/9Kp+6ZH4plv8AMUfpx+EftBaH/rp1T/aDin8rB/T2ffyV3/pVP3R+KZb/ADFH6cfhH7QWh/66dU/2g4p/Kwf09n38ld/6VT90fimW/wAxR+nH4R+0Fof+unVP9oOKfysH9PZ9/JXf+lU/dH4plv8AMUfpx+EftBaH/rp1T/aDin8rB/T2ffyV3/pVP3R+KZb/ADFH6cfhH7QWh/66dU/2g4p/Kwf09n38ld/6VT90fimW/wAxR+nH4T8r39oRxCkObm1OtCiMlIXn+JKSoj8DJSVWpkZGX6QWn8/TxVld4/ZVP3T8eZ5Y9juKH04/Ca+7Lx307dnxnlbPb6qZGh0j+JPurTW7E5Rq55NFszNi2BOGfvS75h0OV3PMbK5L8LebU2uiMazX0cGvcNbd0tL3if3z7lPHpbp4+PHH3TDmpvTq6OVuzcR7Bdan7LEMjwi7KdXztZZ/NtcPmoeYdjWNJZ11g/dQ5lTawXltPNNuo5SrkjIyIbrN+ZGuquWVtPanUa1tXhg1WpKNRbU1JSiotSi0mm0zAsdLaehdwzPKW4VacsU4Tbi+hpp4pprftJRRFh2B60x1TEOU+jglsxn3UGouU+ZtpS08l7y5IeUEpTUXubR+S2Jtb8CmFmXrZ90bN/PsRlXmnVUrtznGHuNp13aJlfUzdlaURJ+P9bGn5soCePP5TI1+PHuF1LLkhoqnG3vIU7306hSqfxo4cXDGW7h3Y9BAtfmBn03UoSlQ9HxTh8R44YtdfV0kWuEZ85rzLsOzjGp0JN/gmQ1GUY+qwhyZcErakkplwDnRibbOVGJ5BedBKSai95CVb7L1mNpWsbqMvu9xTlCeDSfDJYPB9D6mcZb3LtK9O4otekpSUo4rFYrasUTydOPV/wC3O8e1OjdR5vcapexHYWcs0N/HpMEsq6zVAcrbKWaIE9+0fRFdJ2KjhSkq+jyXvECa05O6QyLSl/nFjC7V5b0HODlVjKOPFFbVwrFbSSci1zneY5zb2VxKg6FWpg8INPDBvY8ewtF5dClWeKZNWQWydm2OPXUGG0paWyclS62THjtmtRklBLecIuT8C5FWLOcaV3Sq1HhCNSLfcpJsmCvGU6M4R+M4NLxFBtZdwOh2wJ05Ubb3XLLW7CR8xaMxJrWJZC0mY46z85IQzPw7JoDyFEZfHJR8H4GQv7jo7XuXxpqVnmVm4rCLa9JB4dCxVSD7itb/AB3Tdy5/X2tfi34Phl4dsJLvN+sC9eTt5j9czCyfH9IbOW02SCt327LFLKRwXBOSmaadLr1OnxyZoQgj/QQ4DMOQej7io52tS+tcX8XZUiu5ySfjZ01tzIzulBRqxt63bti/Dg2vEdW2364/cHYlJNxnHHdYadbtmlQnbTB41hkeZpbkJU2tFLLtnX24MxaVcIdbiuOoPg08K4MZWUci9HZbXjc3Sur3gePDVahT2fOUUsV1pySPRfcxM9uqTo0fQ0MVhjDGUvA3ufgxPf8ATn9Mja3ZjYlBtvd2MZHhmhqW+Zy6yfzWNNhZfuO5YmFZtQIMCz8toVLY2SSesbGUlBvt8obIzVyXhzI5n5VpjLqmT5HVpV8/nTdNKk06dtFrhxbj5PEo7IQjue17j2aW0je5tdQvsxhOnl0ZcT48VKq8ccEntwb2yk9/QXIGWWo7LUdhptlhhptlllpJIaaaaSSG2m0JIkobbQkiIiLgiIUybcm5SeMm8WTqkksFuIivV96WZX2l0zj+aaqqfrzbWmpdnaVmNsm23NzPErVhpOQ49XOOKShV1HXEalQW1GlLy0La58ziRL/J3W1ppTOqljm0+DKL1RjKb3U6kX5E3+i8XGT6E09yZxGuMgrZzYRr2ceK9oNtR6Zxe+K7VvXXuKuPXLuBv7pZmuRStVZG3hlrZuNQc81xsKkeKrtJVYa2mDvMas11thAua3zKbRKjrQ55DNJmtHgLT6k0dp/W1jThmtJ1qMVjSrUZeVFPfwzjjFxe9xaa6djIeyrPcz0/cS+5z9HN/HpzWx4dcXg011o3Gzz10e7N9QSq2pudL4DLXFdQdzjOMSLq8+J8NXDkGPdWk2Iy8R/wf4l3x9xjjbDkRoe3uFVrQvbiGPxZzUY4drjFN+NG9uOYuoKtJwhK3pSw3xi2/dbXuFs/rHkl9mPXbSOWZTZSrjJMk1fhV5e205pDEyxtbOhhTJ02Sw2zHQy7JkPKUaUoQSTPgiIhUfVFtQs9R31paxULandVIxitqUYyaST27l2k15RVq18rt69ZuVWdGDbe9tpNspJepzZ17Pejto27KQhxvYLhLQbb5mk/s7UHxylpST8P0GLv8sKVSWhcoaWz7sur58u0r5rCUVqO+xf/AJP2UXdutqkr686LUk+Uq1DrlST8S5I8RqDI/EiPxIUe1Ls1FfJ7/vlb/ckWFyrbllu1u9BDzUZEzPD8b2DieR4PmFTFvcWyymsKC/p5rZORbGqs4zkWZFdSfsJxpw+DLg0q4MjIyIa6yvLnLrylf2c3Tu6M1OElvUovFMybihSuqE7evFSozi4yT6U95Si7y+nRuTpHm0vJ8YrsnzDQ6LdNtgW0sZZnybrA/gyvm6yqzJVUSrGitqFZJTGtEETD6GyV5kL8yRdzQnMfJdcWKtbmVKjn7hw1aE2lGrswlKnxeTOM+mD2pvpRAOo9LX2n7h1qKnPL+LGFSOLcOpTw2xceiW5mX9N+uR2519jUHHMjh6z3gxXRm4kPJModm0eWrYaSSGiuptCtcK1kpQkiU8phpxw/FfKuTGmzrkXo/MLl3Ns7qxlN4uEMJU8f0VPbFdmLS6NhmWHMTO7WiqVVUrjBfGlipeFrY+/Axd2Y9XXtf2RxybryXb4rqbDL9pUC3xnVv1m9k2TxZBfDcqJeQPuu3ZwJiT8jkeEy0p5JmhSjSZke00zyg0lpq5jmVOFW7vabxjOvw8EGvlKCXDit6cm8N6WJh5trjOs1pO1coUaE9jjTx4pY9De/DrSW3rNq/S69LDNNkZhifYPsXh87DNS4jOh3+B66ySCqBkGw7qAtEintbykkJJ6nwyseSl9tp9KXpzqUl5SbJRjlOafNayy2yrae05WjWzetFwq1oPGFGL2SjGS2SqSWzFYqK6cTd6P0bXuq8MyzSm6dlTalCElg5tbm10QXbtb7C2SlKUpJKSJKUkSUpSRElKSLgiIi8CIiFSd+17yaTyAAAAAAAAAAAAAAAAAAAAAAAAAAAAAAAAAAAAAAAAAAAAAAAAAAAAAAAAAAAAAAA/K0IdQttxCXG3EqQ42tJLQtCyNK0LQojSpKknwZH4GQ/U2nit4aTWD3EJPd/wBFrSe/l3WxtDw6HS24pan58+HGgfC1tnU5XK1HkFHBSX1FaSleB2EFBKMz5dac9om/Q/OvO9PqGW5+6l7kywSbeNakv0JP40V8yfgaI+1DoDL8z4rvLVG3v3taw8ib/SS3PtXhTKru6uvGx+uucydc7q1xPwXKWVOHCTOYN+kyKI2s0/WeKX7BnW5BWr45JTK/iII+FoSfJC1mSajyzUdgsyyW5jXtXvw2Sg+qpD40H37OpshnMMqu8quHa5hSdOt0Y7pLrjLdJdxir6pq/wDQI3+Qf+cNt6Wp1mF6OHUPqms/0CP/AJB/5welqdY4IdSH1RWH/wBgj/5B/wCcHpqnWPRx6j9QKSHbzmqqlpXby1fWTbFVRwJdxZPLUZElDcKtbkyDUZn7PKPypXlRp+lrTUKS+VJqMfG8EI041J+jpxcqj6Em34kb4ag9LHuZuso0nH9BT8PpZRJWjIdoyGMGgEwrg/jtwp6nbuSnynyRNxTM/cOCznmrorJMYXF/CtXXyKC9K+7FeSvDI6Ww0bn2YYSp2zhSfyqj4F4nt9wlP1B/d5o7pRp2/N3MoLltcjG9S0CY6TTwRuMKynJkvyOfanzNwk/pIxFOcf3ESi3DT9jj1TuJY+H0cMF45HZWPK+Lwlmdx3xpr9qXwEp+m/SZ6F6WVEm02h8dy7IIhINOTbJckZ1cKeRwfxkldrfrYyzUXPDLCEl7iIRXnPNzX2dcUK1/Uo28vkUcKUf+3BvwtnZ2GitN5fg6dtGdVfKqYzfu7PEiQmloKPG4DNVj1NV0VZHSlDFfTwItbCZSkvKlLcaG0yykiIuPAhHde4r3NR1rmc6lV73JtvxvadPTp06UeClFRguhJJe4csPSeZ4URKI0mXJGRkZH7DI/AyP9JGG4GPl6j1S4tbi9Za+Wtxa3XFqw3HVKW46s3HHFqOu5UtxajNRn4mZ8mNis3zZbFdXGH2k/3jF+42WOPoaWP6kfgPz/ADQ6n/qw17/7Mxz+TQ/GM2/mrn/Un+8PuNl/k0voR+A9yu1lreonRrOq1/hNZZQnSeh2FfitFDmxHiSpJOxpUeA2+w6SVGXmSoj4MeFTM8yrU3Sq3FeVOSwadSTT703gzyjaWkJKcKVNTW5qKTXhwO8DBMg4a9x2gyeveqckpKjIKuQlSH666rodpBdQtPlUlyLNZfZUSk/pSPdQubi1qKrbVJ06q3OLcX400zwqUqVaPBVjGUOppNe6asX/AKf/AEpyeY5Pu+sWnZcx5XmcfRh1bDUpRnyZmmEiM3yZ/uDq7fmDre1h6Ohml7GC6PSSfv4mmq6ayCtLiqWdBv8AVS947fgPTzqxq6Y1Y4B1/wBUYxYsK8zFhX4ZTHOZWXsWzLkRn5DSyP3pUR8jDzDWWq81g6WYZhd1ab3p1JYPvSeB7rbIsms5cdta0ISXSoLE2QSkkkSUkSUpIkpSkiIkkRcEREXgREQ5rftZtjyAAAwlsfrZ1/29IOZs/TWuM5nKLhVhkWJU9hYqIvYS7B2L84si/dWY3mW6m1Dk0eDK725oU+qFSSXixw9w191lOWXz4ryhSqS65RTfj3nXsQ6f9WcBkpmYf181HQy0Gk0SoeDUJyEGn+CaHn4bziTL9wxk3mstV5hHgvMxvKkH0OrPD3GeqhkeT2zxoWtCL7IR+A2KZZZjtNx2Gm2GGW0tMssoS0000hJJQ222gkobQhJcEREREQ5ttyblJtye9s2iSSwWxHS7LWOtrmbKsrfX2EWtjOX8WbPssVop02W55SR8SVKkwHX5DnkSRcrUZ8EM2nmmZUYKlRuK8KcdyVSaS7kngj0TtLWpJzqUqcpve3FNvw4Hco8ePDjsRIjDMWLGabjxo0dpDLEdhlBNtMsstpS20002kkpSkiJJFwQw5SlOTnNtzbxbe1tvpZ70lFYLYkf2Hifp/CVFizo70SbHYlxJLa2ZEWUy3IjvsrLhbTzDqVtOtrLwNKiMjIeUZzhJTg3GaeKa2NPsZ+SipLhkk4voZp9mvp79KNhWT1xlnWnVFhaSHFOyJsfGYtW++4rxUp06r5JKzUZ+PJeI7Gx5ia3y6kqNpmd3Gklgk5uSX0sTR3Gmcgup+krWlFzfTw4e9gdr1l0t6oacmtWmtev+r8VtWPFm2h4tXyLRlXuWzYT25UplZe40qIyGJmmtdW5zB0szzC6q0n8lzaj4lgj3WmQZLYy47W2owmulRWPjeJs6OXNuAAAAAAAAAAAAAAAAAAAAAAAAAAAAAAAAAAAAAAAAAAAAAAAAAAAAAAAAAAAAAAAAAAAAGGt49ftQdj8Hm693LhFPm2NyyWuO3YM+Syppqk+Vu1x+3Z+HYUlpHMiUh6O4hXKSJXmTyk91kWoc401fRzHJa86Fyt+D2SXzZxeyUX0pp9mBgZjlljm1s7XMKcalF9e9Pri96fairR2+9F3feoL8rrrbEsd862trFqLDoydgw9k4iuY75GGLZt9yLXZDUMLPyqnNG26hJeZ1svaLU6P516fzi39DqVxsMyhHFywbo1MN7jhi4SfzHin0Mh3PdAZlZVfSZUnc2knu2KpHHr6JLtXhR+NPehh20zo407aOR6/0zUu+VbsNcx7NcoQ2ftScOq+BUsv8ewlyDIjLxH7nPPbSNhjDKqdxe1l04ejh45Yyfgiflhy5zq4wlezpUIdWPHLxLZ7pKrqH0LupGEFFmbPsc63ZbM/DW6xfW541izjhFytH1BjZxpDrJq9hOy1kafaRiKM4576vvm4ZXG3saL6YR46n054rHuijs7Hl1klthK7lVuJ9Unwx+jHD3yUbV3XnRek4DNdqbUuA4BHYIkoXjeM1kCarguOXrNMdVlIV4e1x1RmfvEV5rqLPc8qOrm93cXE38+cmvBHHhXgR2FnleXZfHhsqFKkv0YpPx734zMg0xngAAAAAAAAAAAAAAAAAAAAAAAAAAAAAAAAAAAAAAAAAAAAAAAAAAAAAAAAAAAAAAAAAAAAAAAAAAAAAAAAAAAAAAAAAAAAAAAAAAAAAAAAAAAAAAAAAAAAAAAAAAAAAAAAAAAAAAAAAAAAAAAAAAAAAAAAAAAAAAAAAAAAAAAAAAAAAAAAAAAAAAAAAAAAAAAAAAAAAAAAAAAAAAAAAAAAAAAAAAAAAAAAAAAAAAAAAAAAAAAAAAAAAAAAAAAAAAAAAAAAAAAAAAAAAAAAAAAAAAAAAAAAAAAAAAAAAAAAAAAAAAAAAAAAAAAAAAAAAAAAAAAAAAAAAAAAAAAAAAAAAAAAAAAAAAAAAAAAAAAAAAAAAAAAAAAAAAAAAAAAAAAAAAAAAAAAAAAAAAAAAAAAAAAAAAAAAAAAAAAAAAAAAAAAAAAAAAAAAAAAAAAAAAAAAAAAAAAAAAAAAAAAAAAAAAAAAAAAAAAAAAAAAAAAAAAAAAAAAAAAAAAAAAAAAAAAAAAAAAAAAAAAAAAAAAAAAAAAAAAAAAAAAAAAAAAAAAAAAAAAAAAAAAAAAAAAAAAAAAAAAAAAAAAAAAAAAAAAAAAAAAAAAAAAAAAAAAAAAAAAAAAAAAAAAAAAAAAAAAAAAAAAAAAAAAAAAAAAAAAAAAAAAAAAAAAAAAH//2Q==;" parent="o-EWsilDcgqO-dhvd1zq-2" vertex="1"><mxGeometry y="80" width="70.58823529411765" height="24.705882352941178" as="geometry"/></mxCell><mxCell id="UIrqBbEjIAPsJ5Y3J7Cz-3" value="&lt;b&gt;Application&lt;/b&gt;" style="shape=image;html=1;verticalAlign=top;verticalLabelPosition=bottom;labelBackgroundColor=#ffffff;imageAspect=0;aspect=fixed;image=https://cdn1.iconfinder.com/data/icons/logos-and-brands-3/512/97_Docker_logo_logos-128.png" parent="o-EWsilDcgqO-dhvd1zq-2" vertex="1"><mxGeometry x="84.70705882352945" width="35.294117647058826" height="35.294117647058826" as="geometry"/></mxCell><mxCell id="RO3VSnJ_KS7_0PzT1x0Y-0" style="edgeStyle=orthogonalEdgeStyle;rounded=0;orthogonalLoop=1;jettySize=auto;html=1;dashed=1;startArrow=none;startFill=0;" parent="o-EWsilDcgqO-dhvd1zq-5" source="UIrqBbEjIAPsJ5Y3J7Cz-0" target="lhPNuWigmKJJLZA_0LKy-0" edge="1"><mxGeometry relative="1" as="geometry"><Array as="points"><mxPoint x="200" y="300"/><mxPoint x="200" y="300"/></Array></mxGeometry></mxCell><mxCell id="RO3VSnJ_KS7_0PzT1x0Y-1" value="&lt;b&gt;LOGS&lt;/b&gt;" style="edgeLabel;html=1;align=center;verticalAlign=middle;resizable=0;points=[];" parent="RO3VSnJ_KS7_0PzT1x0Y-0" vertex="1" connectable="0"><mxGeometry x="-0.2556" y="4" relative="1" as="geometry"><mxPoint as="offset"/></mxGeometry></mxCell><mxCell id="opEaXf8ZMEAxUyyozf7R-1" value="" style="shape=image;verticalLabelPosition=bottom;labelBackgroundColor=default;verticalAlign=top;aspect=fixed;imageAspect=0;image=data:image/png,iVBORw0KGgoAAAANSUhEUgAAApoAAAGeCAYAAAA0daF0AAAMPmlDQ1BJQ0MgUHJvZmlsZQAASImVVwdYU8kWnltSIbTQpYTeBOkEkBJCCyC92whJgFBiDAQVe1lUcO1iARu6KqJgBcSCInYWxd4XCyrKuliwK29SQNd95XvzfXPnv/+c+c+Zc+feuQOA+nGuWJyPagBQICqSxIcFMVLT0hmkp4ACVAAZ2AIXLq9QzIqNjQKwDLZ/L++uA0TWXnGUaf2z/78WTb6gkAcAEgtxJr+QVwDxAQDwKp5YUgQAUcZbTCoSyzCsQFsCA4R4gQxnK3CVDGcq8B65TWI8G+I2AMiqXK4kGwC1S5BnFPOyoYZaH8TOIr5QBIA6A2L/goIJfIgzILaFNmKIZfrMzB90sv+mmTmkyeVmD2HFXOSFHCwsFOdzp/yf6fjfpSBfOujDGlbVHEl4vGzOMG838yZEyrAqxL2izOgYiLUg/iDky+0hRqk50vAkhT1qxCtkw5wBXYid+dzgSIiNIA4V5UdHKfnMLGEoB2K4QtDJwiJOIsT6EC8QFIYkKG02SSbEK32hDVkSNkvJn+VK5H5lvu5L85JYSv3XOQKOUh9TK8lJTIGYCrFlsTA5GmI1iJ0K8xIilTYjS3LY0YM2Emm8LH5LiOMForAghT5WnCUJjVfalxUUDs4X25Qj5EQr8b6inMRwRX6wNh5XHj+cC3ZJIGIlDeoIClOjBufCFwSHKOaOPROIkhKUOh/ERUHxirE4VZwfq7THzQX5YTLeHGL3wuIE5Vg8uQguSIU+niUuik1UxImX5HIjYhXx4EtBFGCDYMAAUlgzwQSQC4QdvY298E7REwq4QAKygQA4KpnBESnyHhG8JoAS8CdEAlA4NC5I3isAxZD/OsQqro4gS95bLB+RB55AXAAiQT68l8pHiYa8JYPHkBH+wzsXVh6MNx9WWf+/5wfZ7wwLMlFKRjrokaE+aEkMIQYTw4mhRDvcEPfHffEoeA2E1RVn4t6D8/huT3hC6CQ8JFwjdBFujRfOkfwU5SjQBfVDlbnI/DEXuDXU9MCDcD+oDpVxXdwQOOLu0A8LD4CePSDLVsYtywrjJ+2/zeCHp6G0ozhTUIoeJZBi+/NINXs1jyEVWa5/zI8i1syhfLOHen72z/4h+3zYRv5siS3A9mNnsBPYOewI1ggYWAvWhLVjR2V4aHU9lq+uQW/x8njyoI7wH/4Gn6wsk4XOtc49zl8UfUWCybJvNGBPEE+RCLNzihgsuCMIGBwRz2k4w9XZ1Q0A2f6i+Hy9iZPvG4hu+3du7h8A+LUMDAwc/s5FtACw1wu+/oe+c7ZMuHWoAHD2EE8qKVZwuOxCgF8JdfimGQATYAH3L0fgCjyBLwgEISACxIBEkAbGwehz4DqXgElgGpgNSkE5WApWgXVgI9gCdoDdYB9oBEfACXAaXACXwDVwB66ebvAC9IF34DOCICSEhtARA8QUsUIcEFeEifgjIUgUEo+kIRlINiJCpMg0ZC5SjixH1iGbkRpkL3IIOYGcQzqRW8gDpAd5jXxCMVQV1UaNUWt0BMpEWWgkmoiORbPRiWgJOg9djK5Bq9FdaAN6Ar2AXkO70BdoPwYwFUwXM8McMSbGxmKwdCwLk2AzsDKsAqvG6rBm+JyvYF1YL/YRJ+J0nIE7whUcjifhPHwiPgNfhK/Dd+ANeBt+BX+A9+HfCDSCEcGB4EPgEFIJ2YRJhFJCBWEb4SDhFHyXugnviESiLtGG6AXfxTRiLnEqcRFxPbGeeJzYSXxE7CeRSAYkB5IfKYbEJRWRSklrSbtILaTLpG7SB7IK2ZTsSg4lp5NF5DnkCvJO8jHyZfJT8meKBsWK4kOJofApUyhLKFspzZSLlG7KZ6om1YbqR02k5lJnU9dQ66inqHepb1RUVMxVvFXiVIQqs1TWqOxROavyQOWjqpaqvSpbdYyqVHWx6nbV46q3VN/QaDRrWiAtnVZEW0yroZ2k3ad9UKOrOalx1PhqM9Uq1RrULqu9VKeoW6mz1Mepl6hXqO9Xv6jeq0HRsNZga3A1ZmhUahzSuKHRr0nXdNGM0SzQXKS5U/Oc5jMtkpa1VogWX2ue1hatk1qP6Bjdgs6m8+hz6Vvpp+jd2kRtG22Odq52ufZu7Q7tPh0tHXedZJ3JOpU6R3W6dDFda12Obr7uEt19utd1P+kZ67H0BHoL9er0Luu91x+mH6gv0C/Tr9e/pv/JgGEQYpBnsMyg0eCeIW5obxhnOMlwg+Epw95h2sN8h/GGlQ3bN+y2EWpkbxRvNNVoi1G7Ub+xiXGYsdh4rfFJ414TXZNAk1yTlSbHTHpM6ab+pkLTlaYtps8ZOgwWI5+xhtHG6DMzMgs3k5ptNusw+2xuY55kPse83vyeBdWCaZFlsdKi1aLP0tRylOU0y1rL21YUK6ZVjtVqqzNW761trFOs51s3Wj+z0bfh2JTY1NrctaXZBthOtK22vWpHtGPa5dmtt7tkj9p72OfYV9pfdEAdPB2EDusdOocThnsPFw2vHn7DUdWR5VjsWOv4wEnXKcppjlOj08sRliPSRywbcWbEN2cP53znrc53XLRcIlzmuDS7vHa1d+W5VrpedaO5hbrNdGtye+Xu4C5w3+B+04PuMcpjvkerx1dPL0+JZ51nj5elV4ZXldcNpjYzlrmIedab4B3kPdP7iPdHH0+fIp99Pn/5Ovrm+e70fTbSZqRg5NaRj/zM/bh+m/26/Bn+Gf6b/LsCzAK4AdUBDwMtAvmB2wKfsuxYuaxdrJdBzkGSoINB79k+7Ons48FYcFhwWXBHiFZIUsi6kPuh5qHZobWhfWEeYVPDjocTwiPDl4Xf4BhzeJwaTl+EV8T0iLZI1ciEyHWRD6PsoyRRzaPQURGjVoy6G20VLYpujAExnJgVMfdibWInxh6OI8bFxlXGPYl3iZ8WfyaBnjA+YWfCu8SgxCWJd5Jsk6RJrcnqyWOSa5LfpwSnLE/pSh2ROj31QpphmjCtKZ2Unpy+Lb1/dMjoVaO7x3iMKR1zfazN2Mljz40zHJc/7uh49fHc8fszCBkpGTszvnBjuNXc/kxOZlVmH4/NW817wQ/kr+T3CPwEywVPs/yylmc9y/bLXpHdkxOQU5HTK2QL1wlf5Ybnbsx9nxeTtz1vID8lv76AXJBRcEikJcoTtU0wmTB5QqfYQVwq7proM3HVxD5JpGRbIVI4trCpSBv+yLdLbaW/SB8U+xdXFn+YlDxp/2TNyaLJ7VPspyyc8rQktOS3qfhU3tTWaWbTZk97MJ01ffMMZEbmjNaZFjPnzeyeFTZrx2zq7LzZv89xnrN8ztu5KXOb5xnPmzXv0S9hv9SWqpVKSm/M952/cQG+QLigY6HbwrULv5Xxy86XO5dXlH9ZxFt0/leXX9f8OrA4a3HHEs8lG5YSl4qWXl8WsGzHcs3lJcsfrRi1omElY2XZyrerxq86V+FesXE1dbV0ddeaqDVNay3XLl37ZV3OumuVQZX1VUZVC6ver+evv7whcEPdRuON5Rs/bRJuurk5bHNDtXV1xRbiluItT7Ymbz3zG/O3mm2G28q3fd0u2t61I35HW41XTc1Oo51LatFaaW3PrjG7Lu0O3t1U51i3uV63vnwP2CPd83xvxt7r+yL3te5n7q87YHWg6iD9YFkD0jCloa8xp7GrKa2p81DEodZm3+aDh50Obz9idqTyqM7RJceox+YdG2gpaek/Lj7eeyL7xKPW8a13TqaevNoW19ZxKvLU2dOhp0+eYZ1pOet39sg5n3OHzjPPN17wvNDQ7tF+8HeP3w92eHY0XPS62HTJ+1Jz58jOY5cDLp+4Enzl9FXO1QvXoq91Xk+6fvPGmBtdN/k3n93Kv/XqdvHtz3dm3SXcLbunca/ivtH96j/s/qjv8uw6+iD4QfvDhId3HvEevXhc+PhL97wntCcVT02f1jxzfXakJ7Tn0vPRz7tfiF987i39U/PPqpe2Lw/8FfhXe19qX/cryauB14veGLzZ/tb9bWt/bP/9dwXvPr8v+2DwYcdH5sczn1I+Pf086Qvpy5qvdl+bv0V+uztQMDAg5kq48l8BDFY0KwuA19sBoKUBQIfnM+poxflPXhDFmVWOwH/CijOivHgCUAf/3+N64d/NDQD2bIXHL6ivPgaAWBoAid4AdXMbqoNnNfm5UlaI8BywKfxrZkEm+DdFceb8Ie6fWyBTdQc/t/8ClUp8d1FEiVMAAACKZVhJZk1NACoAAAAIAAQBGgAFAAAAAQAAAD4BGwAFAAAAAQAAAEYBKAADAAAAAQACAACHaQAEAAAAAQAAAE4AAAAAAAAAkAAAAAEAAACQAAAAAQADkoYABwAAABIAAAB4oAIABAAAAAEAAAKaoAMABAAAAAEAAAGeAAAAAEFTQ0lJAAAAU2NyZWVuc2hvdJn9c4oAAAAJcEhZcwAAFiUAABYlAUlSJPAAAAHWaVRYdFhNTDpjb20uYWRvYmUueG1wAAAAAAA8eDp4bXBtZXRhIHhtbG5zOng9ImFkb2JlOm5zOm1ldGEvIiB4OnhtcHRrPSJYTVAgQ29yZSA2LjAuMCI+CiAgIDxyZGY6UkRGIHhtbG5zOnJkZj0iaHR0cDovL3d3dy53My5vcmcvMTk5OS8wMi8yMi1yZGYtc3ludGF4LW5zIyI+CiAgICAgIDxyZGY6RGVzY3JpcHRpb24gcmRmOmFib3V0PSIiCiAgICAgICAgICAgIHhtbG5zOmV4aWY9Imh0dHA6Ly9ucy5hZG9iZS5jb20vZXhpZi8xLjAvIj4KICAgICAgICAgPGV4aWY6UGl4ZWxZRGltZW5zaW9uPjQxNDwvZXhpZjpQaXhlbFlEaW1lbnNpb24+CiAgICAgICAgIDxleGlmOlBpeGVsWERpbWVuc2lvbj42NjY8L2V4aWY6UGl4ZWxYRGltZW5zaW9uPgogICAgICAgICA8ZXhpZjpVc2VyQ29tbWVudD5TY3JlZW5zaG90PC9leGlmOlVzZXJDb21tZW50PgogICAgICA8L3JkZjpEZXNjcmlwdGlvbj4KICAgPC9yZGY6UkRGPgo8L3g6eG1wbWV0YT4KlkpbWQAAABxpRE9UAAAAAgAAAAAAAADPAAAAKAAAAM8AAADPAAA1Wab4sqkAADUlSURBVHgB7J0JkJzleeefPqaPuXSP7tGMRheSQCAJxCFAiEMHtwFz+CIxibMJmzi78e5W1lW7W0m2djep1Ga3dtfYjmPH2GCb+5AAIQHmMgQQSKBjJI1uaXSO5uy7e5/3G0kIMRr18X093V//vioVPd3v+Xs/qv71vu/z/D0ZfYQHAhCAAAQgAAEIQAACNhPwIDRtJkpzEIAABCAAAQhAAAIWAYQmLwIEIAABCEAAAhCAgCMEEJqOYKVRCEAAAhCAAAQgAAGEJu8ABCAAAQhAAAIQgIAjBBCajmClUQhAAAIQgAAEIAABhCbvAAQgAAEIQAACEICAIwQQmo5gpVEIQAACEIAABCAAAYQm7wAEIAABCEAAAhCAgCMEEJqOYKVRCEAAAhCAAAQgAAGEJu8ABCAAAQhAAAIQgIAjBBCajmClUQhAAAIQgAAEIAABhCbvAAQgAAEIQAACEICAIwQQmo5gpVEIQAACEIAABCAAAYQm7wAEIAABCEAAAhCAgCMEEJqOYKVRCEAAAhCAAAQgAAGEJu8ABCAAAQhAAAIQgIAjBBCajmClUQhAAAIQgAAEIAABhCbvAAQgAAEIQAACEICAIwQQmo5gpVEIQAACEIAABCAAAYQm7wAEIAABCEAAAhCAgCMEEJqOYKVRCEAAAhCAAAQgAAGEJu8ABCAAAQhAAAIQgIAjBBCajmClUQhAAAIQgAAEIAABhCbvAAQgAAEIQAACEICAIwQQmo5gpVEIQAACEIAABCAAAYQm7wAEIAABCEAAAhCAgCMEEJqOYKVRCEAAAhCAAAQgAAGEJu8ABCAAAQhAAAIQgIAjBBCajmClUQhAAAIQgAAEIAABhCbvAAQgAAEIQAACEICAIwQQmo5gpVEIQAACEIAABCAAAYQm7wAEIAABCEAAAhCAgCMEEJqOYKVRCEAAAhCAAAQgAAGEJu8ABCAAAQhAAAIQgIAjBBCajmClUQhAAAIQgAAEIAABhCbvAAQgAAEIQAACEICAIwQQmo5gpVEIQAACEIAABCAAAYQm7wAEIAABCEAAAhCAgCMEEJqOYKVRCEAAAhCAAAQgAAGEJu8ABCAAAQhAAAIQgIAjBBCajmClUQhAAAIQgAAEIAABhCbvAAQgAAEIQAACEICAIwQQmo5gpVEIQAACZUogk5F0olsSx9ZLqnO3ZOIRkUz69GQ8/oB4axrEP3ym/ptx+ns+QAACEBiIAEJzICp8BwEIQKACCWRScUn17JV4+zv67z1Jde1RodmnQjNzmoYlNKvHiH/UHAlOuEqqxl4mHm/g9O98gAAEIHAmAYTmmTT4DAEIQKBCCWRSMUl27pDY7pcltndt/07mICw8voD4hjdJePo9Ehh3uXj8YS3tGaQGP0EAApVIAKFZiavOnCEAAQicQSCTjqvI3C7RnS9KbNcrIunPj8rPKPbljx6veKuHS81FD0ugYb54qmq1DGLzy6D4BgKVSwChWblrz8whAAEI6PXLpB6R75DI9qd0N3PdF+5jZofHo2KzXmou/nMJjLlExWaNVkNsZseOUhBwPwGEpvvXmBlCAAIQGJiABvkke3ZL36Z/lvi+t/IQmZ836w0PU7H5pxIwdzb91Z//wCcIQKCiCSA0K3r5mTwEIFDJBCyRufFHEj/4gR6XJwpD4dGdzZpRUj372xKceI14fKHC2qM2BCDgCgIITVcsI5OAAAQgkBsBIzJ7NzwiycMbJJPUFEZ2PHpn01c/QQOE7pbg5BsRm3YwpQ0IlDkBhGaZLyDDhwAEIJATAXNc3rtPReYPJHlko2QSmr7IzsfrE9+wRgk13yyhxuUno9Ht7IC2IACBciKA0Cyn1WKsEIAABAogkNHj8VTPHun77KeSOPSR7mRGC2htkKoqNv2a+ijYtFzF5koVmxyjD0KLnyDgagIITVcvL5ODAAQg0E/ASmHU1SaR1t9o4M+beicz5Swar1/8urMZNDubU3RnkzubzvKmdQiUKAGEZokuDMOCAAQgYBeBU8nYo23PaQqjtQVFl+c0JnOMXj9JwtPu0jubN6jYNA5CpD7KiSGFIVDmBBCaZb6ADB8CEIDAYAT6RaZJxr6qPxn7Gb7lg9Wz7TcjNtUbvXrOg5r66ArNs2lSHyE2beNLQxAocQIIzRJfIIYHAQhAIF8C/Y4/OyTa9ryKzDXF28k8e8DGQSisSd3naZ5NHITOpsPfEHA1AYSmq5eXyUEAAhVLIJOUpHUn8wmJ7Xlt6ETmGQvQ7yD0XXUQWoCD0Blc+AgBNxNAaLp5dZkbBCBQoQQy/Y4/Gl0e3/d2SYjMUwvhDdepg9Cf6TH65aQ+OgWF/0LAxQQQmi5eXKYGAQhUJgHL8WfDDyWuKYwkFS8tCJaD0Gh1EHpQHYSWEI1eWqvDaCBgOwGEpu1IaRACEIDA0BFwxPHH7ulYDkITNRr9KxJsvAmxaTdf2oNACRFAaJbQYjAUCEAAAnkTyKTU8Wd/v63kEbWVtNvxJ++BnaOiSep+Ks8mDkLngMTXECh/AgjN8l9DZgABCFQ6ARWZ6chh6dnw/yTR/oE6/sTKg4gRm6cchKaogxBJ3ctj3RglBHIggNDMARZFIQABCJQigXT0uER3PCl9W3/jvOOP3QCsnc0pEpp6ix6jL0Ns2s2X9iAwxAQQmkO8AHQPAQhAoBACGQ32SR7/VLrf/6+6q9lRSFNDV9ckda/XO5vT75bgJByEhm4h6BkC9hNAaNrPlBYhAAEIFI2AOTKP7n5R+j59tGh9OtKRV5O614yRmjkPaeqjy8iz6QhkGoVA8QkgNIvPnB4hAAEI2EYgeWKr9H76A72bucG2NoesIZP6KGTybJqk7vPFE6jVoWBXOWTrQccQsIEAQtMGiDQBAQhAYKgIJI5tkJ6P/k5SnfuHagi292vZVRqx2YCDkO1waRACRSaA0CwycLqDAAQgYCeBxNGPpfuj/y7prsN2NjvkbVkOQsYbffyVBAgN+WowAAjkTwChmT87akIAAhAYcgKJYxul5+O/l1THniEfi60DMMfotWOketY3NEBoKWLTVrg0BoHiEUBoFo81PUEAAhCwnUCya7v0bf6JxPe+Z3vbQ96gBgj56oyD0B0SnLxcvdFDQz4kBgABCORGAKGZGy9KQwACECgpAulYh8T3rZOe9f+3pMZl22BOOwitlFDjChWbYduapiEIQMB5AghN5xnTAwQgAAHnCKSTkuzcpvc0NSCoY5dz/QxlyyeTugebV0gIB6GhXAn6hkDOBBCaOSOjAgQgAIHSIpBJdEvswBvSt/HHko71iGQypTVAO0ZzcmczNPVWHITs4EkbECgSAYRmkUDTDQQgAAEnCWQSvdLX+qjEdr0i6WiXis20k90NTdvGQahuvIRn3CfBiUtO3tkkz+bQLAa9QiA7AgjN7DhRCgIQgECJE8hIJhmV3k0/1Dubb6kd5Ql3ik2PcRAaJTVz/7DfQchfozndEZsl/nIyvAomgNCs4MVn6hCAgPsIZJJ90vvZIxLf/46LxaZxEKpVB6E/16Tu6iBUhYOQ+95kZuQWAghNt6wk84AABCBwkkAm2ati88ea8ugNvbNpjtFdeGdT52o5CF1iHIQW6jF6tX7Dzib/E0Cg1AggNEttRRgPBCAAARsIWHc2t/5MojtXSybWZ0OLpdmEt7peai56WB2EFmtS92BpDpJRQaCCCSA0K3jxmToEIOBmAhkNCjoukbZnJLrjGfeKTb2f6attkPDMr2lS9+txEHLzK83cypIAQrMsl41BQwACEMiCgEaepyKHJbbnJYlse0rFZm8WlcqwiOUgNElCLbdrUvdlJHUvwyVkyO4lgNB079oyMwhAAAJW5Hmq76DE9q5VsfmEi8WmT/zDpkiwaXl/UncchHj7IVASBBCaJbEMDAICEICAgwTMzmZfu+5sviKR7U+69xj9lINQkzoINa3kGN3BV4qmIZAtAYRmtqQoBwEIQKCcCVjH6Eckuus5vbP5gmTieozuxmh0k9S9frKE9Rg92HgTYrOc31nG7goCCE1XLCOTgAAEIJAFARWb6XiX5SAU3/O6Bgt1ujOpuxGbteMkPOsBCU645uSdTVIfZfGGUAQCthNAaNqOlAYhAAEIlDIB4yAU0TybP9Kk7m9rUvcOd4pN4yBUPVJqLvyOOghdqmJTk7rjIFTKLyZjcykBhKZLF5ZpQQACEBiMQL+DkNpVWmLTrXaVpxyEvitVYxaIN4CD0GDvBL9BwAkCCE0nqNImBCAAgTIgYInNTf+oQUKvaYCQmx2E6tSu8s/UQegytavEQagMXk2G6CICCE0XLSZTgQAEIJArgXSiRyJbH1UHoRfdG42uULzhYeog9EcSMHc2faFcMVEeAhDIkwBCM09wVIMABCDgCgIaeZ6OHZPITo1G324chFya1F3vbPY7CN2nDkI3IjZd8fIyiXIggNAsh1VijBCAAAROEohEE5JMpSXg90kg4LcnvsVKfXSoP8/mNpNn06Vi00Sj101UB6Hb1EFoOQ5C/F8FgSIQQGgWATJdQAACEMiXQEpFZfvhHtm87Yjsb++WY8f7JB5PSSjol5Ejq2XyhHqZPnWUTBpfn28X/fWspO6V4iDUeNJB6GbEZmFvDbUhcF4CCM3zIqIABCAAgaEh0NMblw83HJD3PtwnBw51S8eJiPRFkmLEp9/nlerqKhk5IixTJg6T+fMmyFWXNorXW0C+SEts6s7m3pfVrtLsbEZ04pmhmbyTvVoOQkZsGgchFZvc2XSSNm1XOAGEZoW/AEwfAhAoTQIdnRF5f/1+efWNHbKt7figgwwEfNLcOFxuWtIiV146RcIh/6DlB/3RiM3oMYm2PXMyQKjHxQ5Ck9RB6I6TDkJBxVKASB8UKj9CoHIJIDQrd+2ZOQQgUKIEzM7leyoyV69tld171b0ni8fsZI4ZXS3333mRLNTdzdqaQBa1zlHEBAgl1EFo688lvucNdRByaZ5Ny0GoQR2EvqEOQov1GJ3UR+d4I/gaAnkTQGjmjY6KEIAABOwncKIrKr/To/LVa7epyFSBl+MzrqFGHvjKRXLJhROkrrYAsalH5plkVHo3aVL3fS53ELJSH/2x5tlcqHk263AQyvGdozgEBiOA0ByMDr9BAAIQKCKB3r64vPHubnlp3TbZsy+7ncyBhjdubM3Jnc2JUqP3OAt5+u0qH1EHobfUrtLsbLrwzqYemXvDtf1J3ceo2MRBqJBXhroQ+AIBhOYXcPAHBCAAgaEhkEim5OXXtqvI3C77DqhLT4HPWN3ZvO+OC+WqyxolUOUrqLXPHYTWSiaqdzbdGCCks/KG1UFonjoIjVt0MhqdO5sFvThUhoASQGjyGkAAAhAoAQLPvrRFXnl9uxxo79FNw8J3DT2qkcaNrZU7VlwgN17TUlg0uvJJx7s0Ev0xDRJ6wcUOQrqzWT1cquc+JMGJS4hGL4H/LxhC+RNAaJb/GjIDCECgzAk8vXqzrP1tmxw81GOlLrJrOj6fRyaOr5Nl102XFUunFyY2Vfym1EEouvN5dRB62r1J3Y2DUN1YCU+/52Q0etiu5aAdCFQkAYRmRS47k4YABEqBQCqdkedf2aIpjNqspOzJZNr2Yfn9XpmkSd2vv7pZbr5hZoFiU1MfRUyezTUSaX3CvWLTRKPXT5JQ880SmrKSpO62v5U0WEkEEJqVtNrMFQIQKBkCfZGErH2zzbqTeUidf4ytpFNPVZVXdzaN2JyqYnNG4WKzr71fbLrcrtI/DAchp95J2q0cAgjNyllrZgoBCJQIgc7uqLz93h558dVW67g8rTubTj9VurM5YVydLL9+unVn0+x05v2c9EaP7nlJotuecr+DUPNK3dlcoXc2OUbP+52hYsUSQGhW7NIzcQhAYCgIWMnYP9onq17VFEb7809hlM/YjW2liUb/ys2z5YqFk6U6XEDqIxWb6dhxiex4Su9trlax2e3O1EfmGL1uot7ZvFOCk29SsYmDUD7vHnUqlwBCs3LXnplDAAJFJnBKZFrJ2AvIk1nIsM90EFqgDkJ1hTgIaZqjdKJX+rb8VOJ71UHIyrPp3BWAQuZdUF2vBgjVNEj17G9p6qMrNal7jTZH6qOCmFK5YgggNCtmqZkoBCAwlAQ61fHn3Q/2ympNxp6traST4zUOQverg9D8gh2EdCMzGakMB6GQybP5sFSpg5AXByEnX0/adhEBhKaLFpOpQAACpUmgty8hb7yz0wr8KfZx+WBELLGp3uiXXjKxsGN07aRfbP5I7Srf1J3NDnceo+s8raTuF2tSd8uusla/YWdzsHeM3yCA0OQdgAAEIOAgARNNbo7KjePP/oOFO/7YPVRzZ/Pe2+fK1YuaxESnF/JYYnPzTyS2e00FOAj9az1Gv0JTH1UXgoy6EHA9AYSm65eYCUIAAkNJ4BlNxr7mjR1Fiy7Pda4etRAar97oty2fJTddO62w1Efmzma8WyLbfyXRHc9pgFBfrsMpk/LqIFQzQu9s/p4EJy3FQahMVo1hDg0BhObQcKdXCECgAgg8vUodfzRXZrs6/jiZJ7NQlD6NRjcOQjctaZGV1xeaZ1MdhKJHdVfzRbWsNKmPegsdXmnWtxyExkl42l0SnLKM1EeluUqMqgQIIDRLYBEYAgQg4C4CxuHnhTVb5VW1lWw3ydgdcPyxm9gpB6Gli9VB6MaZ4vMWcPfwZJ7N2N5X1UHoN+4Vm6cdhG6RUNPNJ1Mf2b0ytAeB8iaA0Czv9WP0EIBAiRHo7YvLurfU8Wftdmk/0murd7nTU+13EKqT669RB6HrbbCrNA5C+4zYdLddpX94s4RabtWk7rc4vUS0D4GyI4DQLLslY8AQgECpEjihKYze+Rd1/FnTKgfaeySTcd7xx24WZmdzwrhaWalWlUsXT5VAlS//LqydzcMS3b1aotv1GD0ecWU0usdXJf4xc6Vm9oPiHzk3f17UhIALCSA0XbioTAkCECg+geMnIvKeOv6sXtsqe/aVXnR5LkR8Po+MHVMjd906R65YYIeDUIc6CP1GYrtekXTUOAi5L6m7NzRcnYOukZqLHtaMRwWI81wWirIQKAMCCM0yWCSGCAEIlDaB044/JZKM3Q5aJhq9YUy1PKB5NudfNF7qao31Yr6PRqNrUve+zf+oDkK/daeDkPLyD2+R+iv/SnNtNuQLinoQcB0BhKbrlpQJQQACxSTQ2R2zjstNrsw9Q2Qr6eR8TzsIXVSoXaVuZLrcQchXO16qL/4jCY5b7OSS0DYEyooAQrOslovBQgACpUSgL5KQ197ud/zZu7+zlIZm61iM2LxPdzYXqYNQOFxVUNunHYTMzmb0hKvubHrDoyQ8624Jt3y1IEZUhoCbCCA03bSazAUCECgagXQ6Y6UwMo4/B9r13qHLH+MgdM9tc2TJlc3i17ybhTyW2NzyTxLb+ZKrUh95wyMlPONOCU9/oBA81IWAqwggNF21nEwGAhAoFoGnV2+SV99oK1nHH7s5eDWv5vixtXLLTTNk2ZLpNjgIdamD0BPqIPSMaxyEvDUNUjP3WxoUtNxu/LQHgbIlgNAs26Vj4BCAwFAReGrVJln35s6Sd/yxm4/ZyTQOQjdc2yI3a/ojIz7zfjT1Uyp6RB2EVquD0JOu2Nn01U+Rusu/L/76qXljoSIE3EYAoem2FWU+EICAYwTiiZSs0vRFa17fIYc0GXs5OP7YDaNK82xOnFAvS69WB6EbbHAQ6jt0Mql7eTsIeapCUjVugdQt/I84BNn90tFeWRNAaJb18jF4CECgWAR6euPy2js7ZfWr21Rk9qjjT/klY7eLVb+DUL3coA5ChXujpyVlHISMXeW28nUQ8g+fKtWzvy6BCdfahZl2IOAKAghNVywjk4AABJwkcKJTHX8+2COrXm2V/Qe71fHHyd7Ko23jIGTubN584wy57qpmCQb8+Q/cOAjpMXp016qydBAyaY2CU26S8LQ7xVNVlz8HakLAhQQQmi5cVKYEAQjYR+Bzxx935skshJRxEBozuj8afdH8SVJbHci/OVXv6fgJ3dX8ld7bXKOpj9RdqQwchHw14yQw+VoJNS0XX21j/vOnJgRcSgCh6dKFZVoQgEDhBIzjz+/UVvIlFzn+FE7liy2oIY46CNXI/XdeKAtMUvcCHYQyqZj0bvqROgi9qQ5CHSUtNr3VYyTYuFRCU5aJr27KF8HwFwQgYBFAaPIiQAACEBiAQJc6/rz1/m4Vmdtd6fgzwJQL+spK6v6Vk2KzphC7StWWloOQis19b5Ws2PSGRkiweVm/yGQns6B3h8ruJoDQdPf6MjsIQCAPApFoUl59c4e8rCJz3wE9wuXJioBJ6n7fHXPl8gWTJRyyw0Hox7qz+boeo6vrUgldjPVUVWtS9tslOGWF+GomZsWGQhCoVAIIzUpdeeYNAQgMSMDomede3iwvvbZdDrb3DFiGL89NwByjGwehpYubxect0EEoFZW+zT+V6M4XSyipu0eq535NdzJvFm+44dwg+AUCELAIIDR5ESAAAQicQeDJFzfJ2jfbrGTsxmaSJzcCloPQuFpZqQndV1xng4NQTAOE2p7WaHTjINSb22DsLu3xSvUcIzJXijc0WkT/5oEABAYngNAcnA+/QgACFUTAiMx1KjIPHdZk7Kl0Bc3c3qma1EfGQeh6zbNpS1L36FGJ7XlZIq1Dl9TdU1Vj+ZiHmnQnMzRKRabPXmi0BgGXEkBounRhmRYEIJA9gVgsKas0svzVNyrX8Sd7WtmVPO0gpEfoN99og4NQRB2E9q5Vsfnrou9sekMjJTR1uYSab2UnM7vlpxQEThNAaJ5GwQcIQKASCRjHn7f/ZY88s3qLHK5wxx+719+IzQm6s3njkhZZubRQb3RN6m7E5p41mmvT7Gz22T3cAdvzVjdo0I+mMGpaSeDPgIT4EgKDE0BoDs6HXyEAARcTiMdTsq3tqPz4Fx/Jzj0nXDzToZuaOUYf11Arty2bKddc0SShYKEOQkc1OOh5ie54TjJxvbPpYDQ6ydiH7r2hZ/cQQGi6Zy2ZCQQgkCOBw0d7rWTsT724OceaFM+FgM/rkdGjq+Xe2+fKZZeog1BNgQ5CiU49Qn9MHYTWnkx9ZP99Wq86/gQnX6OBP+r4QzL2XJabshD4AgGE5hdw8AcEIFApBDK6E7ap9Yg88s8fkJC9SItu8mwaB6H56iBUb4eD0Gcmqbv9DkI4/hTphaCbiiCA0KyIZWaSEIDA2QQSiZS899F++Z+PvEuE+dlwHPzbchBSsblw3sTCdjZ1jE44CHlDw9XxRwN/zE5m7WQHSdA0BCqDAEKzMtaZWUIAAmcR6OmLy1u/2y0/+NkHZ/3Cn04TMDub96qD0JULGwu7s6kDzSSj0rtZHYT2rNNjdHVxKuDOpscfkvDMu8Ry/Kke7zQG2odARRBAaFbEMjNJCEDgbAIm2vzNd3fLIz9HaJ7Nphh/G7F51y2z5YarW8QkeS/kSas3emTrzyXa9kJBqY+q535ddzJvUcefMYUMh7oQgMAZBBCaZ8DgIwQgUDkETO7Mdz7YK//ww99VzqRLaKYmQGj8uDpZcf00WVFo6iPJSDrWoQ5Cz6qD0NO5i02vX6pn34/jTwm9HwzFPQQQmu5ZS2YCAQjkQMAEA23YdEj+949/J0ePR3KoSVG7CJx2ELpaHYRsSep+RJO6r1Gx+aSkI3qMnsXjCdSp48/tKjJx/MkCF0UgkDMBhGbOyKgAAQi4hcC+g13ylGU7udMtUyq7eZik7o2Th8ly9UW/8dqWwsafSes9zaMSb39HdzdfkFTHIOvq9WnaogkSbLxRQo03qOOPHpfjXV4Yf2pDYAACCM0BoPAVBCBQGQQi0YS1q/l/fvK+dHXHKmPSJTjLYMAnM6eNlj/4+gKZPHFYwSNMx09I4sjH1r9U53ZJ9R22goZEr4J6fGExbj/+4dMlMPpC8Y2cI75wQ8F90gAEIDAwAYTmwFz4FgIQqBACHZ0Ref7lrfLimlaJa8qjAoKWK4SYM9McMSwkK26YLl+9ba49HaSTall5UFJdu/QY/YhkUvH+dn1BFZajrSTsvpqJRnna0x+tQAACAxJAaA6IhS8hAIFKIZBOZ+RYR5889tRGzau5T/oiCcTmECx+VZVPpjaNkL/+90vFr58Li0MfggnQJQQgMCABhOaAWPgSAhCoJAJGbJ7oispPH18v6zceFJP6iJ3N4r8BZlfzb//zMhk5XI+3C0x5VPzR0yMEIDAQAYTmQFT4DgIQqEgCx3Vn858e/1g+/hSxORQvQJ3aUn7/z6+RlqaRYiLSeSAAgfIngNAs/zVkBhCAgI0EjndE5Ge/Xi/vr98vkUjSxpZp6nwEjP/59//ttTK1cQRC83yw+B0CZUIAoVkmC8UwIQCB4hAwR+bmzubjT2+U36pzkAkQ4ikOgeH1IfmHv1kudXUh8Xq4pVkc6vQCAWcJIDSd5UvrEIBAGRIwdzbbD3fLCxqJ/uobbYjNIqxhwEpxNEr+y/eWcj+zCLzpAgLFIoDQLBZp+oEABMqKQCqVlv2a0H3Nb9vk5de2SzzOzqaTCzh6ZLXcc/scWbZkmpPd0DYEIFBkAgjNIgOnOwhAoHwIJJNp2XegU9a9tVNeQmw6tnChkF/mXjBW/vjBS62Ic8c6omEIQKDoBBCaRUdOhxCAQDkRsMSm2dl8Y4f1j51Ne1evqsorM6aOljtvvkAWzptgb+O0BgEIDDkBhOaQLwEDgAAESp1AUo/R2w91y/OvtMrr7+y0jtHJs1n4qpkk7dObR8qy66bJVYsaxe8jpVHhVGkBAqVFAKFZWuvBaCAAgRIlkEpl5OjxXnlMo9E/+PiA9PaR1L2QpTI7mdOMyNQ7mVde1igBFZ08EICA+wggNN23pswIAhBwiEBGtzE7TqiD0K/Wy8cb26W7N4aDUB6sTTL2qVNGyC03zpDLF05GZObBkCoQKBcCCM1yWSnGCQEIlAwB4yD00199LOs3qIMQO5s5rYvP55HGicPkntvmyKUXTxRzfM4DAQi4lwBC071ry8wgAAEHCRgHoX/+9cfy3kf7JBLFQSgb1B5Nwj6uoUYe+toCuWjOWKnyIzKz4UYZCJQzAYRmOa8eY4cABIaMgAkGOnqsV37z/GcaILSLPJtZrITJlflnf3i5zGwZLSZBOw8EIOB+AghN968xM4QABBwiYByEDmo0+qq129RBaIfEHEjqbpwYgwG/jNWdwOHDQjJqRLUYT3CTe9J8Hwr6rOPneCItsVhSx5DUHdaEnOiKSkdHVI6fiOi90ogGLyUconD+Zr1ej4weGZY/fehymTZ1lDVuHCbPz40SEHADAYSmG1aROUAAAoMS6OqOSvuRXulU8WWe+rqgNIyukRHDwoPWy+ZHk/rIOAitPekgVKjYNIEyI1RQTtZ7jJMn1MuEcXUq0mpkmPqABwJeS1SaNEA+r9eyajQizvwzovfUv1Q6LSb/p/FpN3k/u3tickjnv7+9yxrr7n2dcqIzapXPZo6FlDHzMXP49gPzZdY0s5PpF0RmIUSpC4HyIoDQLK/1YrQQgECWBIzQOqJH2++v3y/b2o5ZIjMa67eRDOqx7cgRYWlpGqmONA3SMmVklq0OXOxUUvd1b/bbVeYqNo3wmji+XpobR0jz5OGWMDPjq9Ody9qagO5eVul9xvxyTJojfmOn2RdJSE9v3BKdnd0x2bW3Q3bu1n97OuSY3jdN6I6o3Y8Zc1PjcLn7ltkyf54G/uQ5B7vHRXsQgEDxCCA0i8eaniAAgSIRMKKqdccxee2tNmlVkXn4aJ8lts7s3uRtHKnHuTP0KPfKSyfLovmTC9ppM2LT7BiueX2HvKLH6OdzEDKBMWE9/jZCrEVT/bRoTsmJ4+plzKgaFZgB8TmcvNwcpx862iMH23sssblt5zHZu7/LEqNncsr3s4kmn9Y0QlbeoCmMFkwiujxfkNSDQJkTQGiW+QIyfAhA4IsETCL1Ta1H5GX1Jv/wkwPnzXNpdjenTR0pty2bJZfMHV9QkIo5Rj90uEeefWmLvPm73RLVO5NnOwh5VWDW1FRZeSRNUIwRmC0qyIbrMf5QOOOY4/ajx/ukbfdx2arifJv+273vhO58xr8INoe/LMcfZXrTkhYV8SRjzwEdRSHgOgIITdctKROCQOUSMAEvm1oPq8jcoe49+7MGYXYPmxuHyb13XChzZzXoTmNV1nXPLphS4XZMhdtjT6mD0Cf7rR3CU2KzprrK2rWc0TJKFl48QfsaK+YOY6k85i6n2QFev/GgbNp6RPYd6JJEMvUlsTzYeHH8GYwOv0Gg8gggNCtvzZkxBFxJwERaf7bliKxet83aycxnktN1F+7eO+bKnJmFic1TDkI/UwehDzWpe0SP8kcMD8sFM0Zbnt7zZo8rSMzmM7dc6pi8oB9tPCDr3twpu/eesAKHzG7t+Z7Tjj83meNyHH/Ox4vfIVAJBBCalbDKzBECLidg7kN+uuWwPPfKVrWGPFjQbC2xeftcufCCsRIM+gtqyzgI/fDRD6VdUyBdffkUufbKJiuCvKBGi1TZ7ML29sVk9drt8tZ7e6w0TiaK/VyPcfyZPMHsCs+VhfMmcCfzXKD4HgIVRgChWWELznQh4DYC5o7hxs2H5NfPfiafbT1sy/Sm6b1JY5G4UC0SfZo6qJDHOAiZqHJzbG5S+5Tj8/GnB+XJFzbJlm1HxexsnroKcGouZn7jGmrlD7+x0Irix/HnFBn+CwEIIDR5ByAAgbImsGHTIXn0iQ2yY9cxjSzXbTgbHpOX0qQ+un35LFm8qLGgFs0xunlMlHm5PiY90uGjvbq7uU3eeHeXpoqKnZ6KmZbl+POdK2RG86iCgqlON8oHCEDANQQQmq5ZSiYCgcoiYATcxs2HVWR+oul5TmgeyHMf6+ZDxkROm2jwFUunW0fe+bThpjpGbJr8m2+/v8cSnAfau63d3jGjq+Vh4/ijwtw4FZWxnnbTcjEXCJQMAYRmySwFA4EABLIlYO4KbtZj3F8+ucFKOj7Y3cFs2xyoXFDtHc3O5o3Xtsh1VzUPVKSivjObs8Zd6d0P98oLeh/WPA99bYHM1uApk5cUkVlRrwOThUBWBBCaWWGiEAQgUCoETET05m1H5InnP5Ot281x+fmjoQsZe0gDgqZqQvWbrpsmSzSYh0ekozOibkvHJamC/9L5xvHHBxYIQAACAxJAaA6IhS8hAIFSJNCraYI2azJ2s5v28aftRRuiSererGLzlptmypULJ1ve4kXrfKCO0poIPhXVfxENzDFC29z/zOiOoh5dV9WIxxs0l0IHqmnbd+bqQjKZ0ejy0skDatvkaAgCELCNAELTNpQ0BAEIOEnglOPPS+v6HX+c7Gugts2dzWa1i7xLfbsvnjvOuo84UDnbv1MhmY53SDpyVP/bKZl4l/7r1c/dkkn0anendnT1XNtTJd5gfb/YDNSJN1Cvf48Ub2iUfldr+9BoEAIQgMD5CCA0z0eI3yEAgSEnYLzLTeqiXB1/7B64SXXUpDub92muyEIdhAYdm+5YphM9ko4esQRmsrNNUt27Jd13UFJ9hy2hmUmqRWT6ywFQHp+mUPIHxBseKb5wg3hrJ4m/vll8dboTq4LTGxotHn/1oN3zIwQgAAG7CCA07SJJOxCAgCMEzJ1MIzJNah3jXV4Kj/FG/6rm2TRBMDXhKj2ltumY2hKY3ZLuPSiJjlZJHv1IEsc369/HC5q2xwjPunFSNepCqRo9X/zDp/YLTl9Id0E5+i4ILpUhAIFBCSA0B8XDjxCAwFASMCmLNqrjz7MvbZFPingnM5s5T55YL9/86sVyydzxtviVZ5IR3a1sl0T7uxLb97okO9r02qU9eUG/MB+vX6rGXSThKTeLf+QF4tGjdY83f2/3L7TNHxCAAATOIoDQPAsIf0IAAqVBwASbbNA8mY8/vdEKACqNUX0+ChNp/SffvkyuuqxRo64L2RVUMan3MKN7Vkl0+7OSPLHLGYH5+dBPfwpMvlKqZz4g/mEzTwYP2bQze7oHPkAAApVOAKFZ6W8A84dAiRL4RB1/fqHJ2Hfs6nA8hVE+CP7g6wvkKnUNGl6vx895PxlJ9eyTvi0/kcShjXons0tF5pfvXebd/Pkq6k6mr3aMBJtXSGjyDXqc3nC+GvwOAQhAICcCCM2ccFEYAhBwmoDxLv90S7+t5C51/HEqGXsh85g/b7x885550jhxeN6pjjKpmCSOfCh9m36ugT77xBydO3JUfr6Jen1WdHpgwiIJTb1F729ecL4a/A4BCEAgawIIzaxRURACEHCaQDyekk2th+WxpzZKmwO2knaMP6A5Nf/dw4utqHOTzD2fx6Qpih98W6LbnpZk1+4Bo8fzabeQOt7gMKkae7GEmldK1ZiFhTRFXQhAAAKnCSA0T6PgAwQgMJQEItGEbNp6RJ56cZNlL2l2Nkvt8etdzEULJqrt4kIZMSy/I/N07LjENeAnuu0ZvY+pAT8l9Hg092ZVgwYKtdyuYnNBCY2MoUAAAuVKAKFZrivHuCHgIgK9fSoydSfzxTWtRXX8yQWhyWBUXxuUv/iTq2TWtNHqiJO77WJak60nDr0vke1PSfJYv1d4LmMoRllPoEYCY+dLeNbXNP9mC+mPigGdPiDgYgIITRcvLlODQDkQMI4/n+lO5suvDY3jT7aMgnpMfuGsBuvY3Byf5/pk0glJHP5IItueULH5Ua7Vi1reU1UtwcnXSPXs37Ochci1WVT8dAYBVxFAaLpqOZkMBMqLgHH8+VTzZL6iIvODEknGfi6Co0dWy4P3X6xe5415BQAlO7dLpPUJie1ec64uSup7jy8g1Rc9JKHGZdhXltTKMBgIlBcBhGZ5rRejhYBrCETV8cdEl69Sx5+PNhws6Xn5fV5paR4p/+l710l1KPcAoEyiW/paH5do2/OSiRl/8nJ4POIJ1Uj9FX8l/hGzdFMzUA6DZowQgECJEUBoltiCMBwIVAKBRFIdfzYfkmdWbZENmi+z1J8Rw8Ny3eImTWl0ce5D1cTzsf2v6m6m3ss83pp7/YFqaEoijzr8iEeP8C0LSb1AarkIpTWCPan535P6t3624QlMvlxqZj+kXulN2hoJ3W1AShMQqCgCCM2KWm4mC4HSILBhU7v88smNsmX70dIY0HlGMXXKCPn9B+ZbKY3OU/RLP6cTvdLz4d9JfN9vv/RbXl/4/OKrnyBVI6ar+GvUXUdjIRkUs2uajh6XZOc2FbTbJB3R5O9pe5K/1y36SwmMv1I8/nBeQ6YSBCBQuQQQmpW79swcAkNC4JPP2uUXT26Qtt0dkkzas+vm5ER8Po/lZ/69h6+SYCD3Y/Pozic1AOg5SXXtK2iY3lCtBCYulsCEazQavFlFX/UZO5qm6X4rS+MslI53S+LoevVMf02j27dIJq7J4At4qsZfLNUX/J5UjZxbQCtUhQAEKpEAQrMSV505Q2AICKRSaY0uPyyPPrFBStXxZyAs1rH5VU3yDT02NymOcnmM20/3+3+tUeYfqv5L5FL1dFkTlFM1/hIJT71LvLWTNAp8WP99SevI/HSxL37QY/NMslfSMU0Mf/gDDUB6WQVn/sf2Hn9Iaub9K41Ev55dzS+S5i8IQOA8BBCa5wHEzxCAQOEEYvGkbG490u/4ozuZiTLYyTw1a3NsfvuKWXLtFU2nvsr6v/GDb0rvxp/obuaerOucWdAbHC7BpuskqJHfvtopeiWzSn/OTe2mY7pzfGyjxPa8qjucb5/ZfE6fg01LJTztbrWonJlTPQpDAAKVTQChWdnrz+wh4DgBk8LIiMynV23WpOxHpBQdfwaDcPHccbqbOU9amkYOVmzA37rX/w+9m/mORpp3D/j7YF96w6OtXJbGf9yIzEKejN4TTR7/TCIa9R7f/05eTXnrxmtQ0IM6phvyqk8lCECgMgkgNCtz3Zk1BIpCwCRjN7aSq9a2yvqN7UXp085OzP3MxYumqOXkfKlTV6Dsn4zei+ySzre+pzaTu3IOyvEE9T7m+MskPON+vY85NftuBymZSfZJ4tgG6fvsnyTZseNklPogFc7+SYOQqmfdr7uad2lezbqzf+VvCEAAAgMSQGgOiIUvIQCBQgn0O/6YZOw7Sj4Z+7nmWlMdkBuvnSrfvPdi8eZyQVMDchJHP9b7mX+r0d9HztX8wN9rP1UN8yQ8814JNFw2cJk8v80keiR24HXp/fgHGqUe1VZy85MPTrlOxe9XxT9sRp4joBoEIFBpBBCalbbizBcCRSBgjss/U8cfYytZ6o4/g+EY21ArK66fLncsnzVYsS/9ZuwmI9t/KZGtz+ixuaYZyuHxhkdIaNodUj3za1ort/uY2XRjjtG73vu+JI9szjlAqWr0LBWa92jk+5JsuqIMBCAAAUFo8hJAAAK2EojGTjr+rFHHn42l7fhzvombQKBbbpohSxfndnydScWk+0ONNj/wkUZ/m53D7J/AxCssMVc1al72lXIoaXmuH3pXc3v+L8272ZFDTdGo9zESnn6PhFvuyqkehSEAgcolgNCs3LVn5hCwnYDJi2kcf556cbP1X9s7KHKDc2aOsSLOL7tkUk49m7RGnW/9qQbgaLS5cenJ9lHHn+oLvqFC816NMHfQ8lGP9jvWfUdSnbt1fNnnMvUEwio079Ixfktn5M12VpSDAAQqmABCs4IXn6lDwG4CxvHnF+r407rjaL8jot0dFLm9Sy4aL19ZeYFceMHYHHruDwTqWPsHku7THcMcrCC9dWNVxH1TQo3Lc+gvv6I96/+bxPa+q0FLPdk3oPdHQy23SM2chzQgqDb7epSEAAQqlgBCs2KXnolDwF4C5eb4k83sFy2YJHfdMltmTB2VTfH+MrpbmOw5IJ3r/kQDbnqzr6clq8ZdpLuZ92kQ0KKc6uVTOLL9cfVff1rFcG42oMEpN0r13N8XX7ghn26pAwEIVBgBhGaFLTjThYDdBMxx+aZWdfz5jTr+7D0h8YQ9/tp2jzOf9q66rFHuvm22NE8ekX11DQRKdrVJ5+v/Jvf7mY1X69H03epj7rzVY2z/Wunb+FNJqSjO5Qk2LpHqOd8SX01jLtUoCwEIVCgBhGaFLjzThoAdBEzgj0nG/vjTG2VHmXiX5zLvxYsa5Z7b5siUScOzrpZJxzVP5Wbp+u1falR3boFAwabrrTuQ/mHOu+/ED72jaY4ekVR3bh7sgUmLpXr2NzS/57SsmVAQAhCoXAIIzcpde2YOgYIImBRGm9S7/NmXtsinmsook1tKxoL6Llblqy/XHc1b8xCaJ7aq0PwPOe9o9ts83qU2j7mlU8qHR7z9ben95Id5CM1rdEfzm+Kva86nW+pAAAIVRgChWWELznQhYAeB/mTsR2T12m3q+FPeKYwG42GOzu/Ro/OmnI7OkyredsmJ176rQjMyWPNf+i0w6XLd0fyqOJXa6MwOY3tWq0vQo5Lqzc2xKdi4VIXmg3p0PvHM5vgMAQhAYEACCM0BsfAlBCBwLgJGZJodzFde3yEffpLb/b5ztVmq35tgoLs1GGh6TsFAaXUDOiwda/+oP6I7h61e/+gZmqj9AbWfvNpxJH2bfyzRtpd0rLnk0tSo8+ZlGgz0bfEGc/d+d3xSdAABCJQcAYRmyS0JA4JA6RIwx+VGZBrHH7eLTLMK8016o5tny9xZuUVYG6vHjte+I+mewznlqfSGh2t6o6+rmLtNTYF8zr0ImnLJuAMlDn1y0ooyy67U7zzccrvuaP6+Di+UZSWKQQAClUwAoVnJq8/cIZADgZgG/mzcckheXNOqx+W5Hbfm0E1JFZ17QYPcsWKWLJyX2zGxCQLqfOcvJHV0e442jx49Or9Tfc7vE28oh5RKuVBTkZmOHZcTb3xXhbCuYw47rp5QnRUVXz3z67n0SFkIQKCCCSA0K3jxmToEsiWQSqVlw6ZD8uQLm6wdzWzrlXu5luaRcuuymbLkiqacppJJxaVnw99LfM/bumPYl1PdqjFzrMjzwIRrc6qXbWFjjxnd9Yzez3xMj/a7s61mlfPVT9Q8n3dLqEl3XHkgAAEIZEEAoZkFJIpAoNIJfGIcf57YINvbjks6hx2wcuc2YVydrLx+uvqd55huSG0nI7uflcinv9TdwxO5YTDH01NvlZoLv6Muj1W51c2itBGXJ9Y9pEFAx3NyLTJNV42dZ/mwB8ZekUVPFIEABCAg8v8BAAD//3HRpYcAAEAASURBVOx9BWAc6Znl1yB1tyRLtsy2wMzsMY3tIXuYGTLhZJLs5ZLcXhZu6WBv927xkt1NdrMbmkwyGcgwM9pjGDMzyTKTuKXu1r33t9ojyd1dVQ2SWvr+xKPugr/+en911asP3udqRRNtioAioAgkQGDTtuPym2c2y4FD56QlFEmwVe9c3K8oX667apx8/t6Zzk6wNSKh2oNS8/GfSaThhLN9sbWnpEIC424V/+i7HO+bbIdI8Iw07v61NO55VSQSSrZp3HX+sTdLYMK94iksj7teFyoCioAi0BkBlxLNzpDod0VAESACLaGw7Nh9Sn799GY5eOS8NLeE+xwwHrdLliyslK8/PFeKCvMdnX9ruFlqVv6hhE7vlNZwi6N9XZ488Q6cJIGJ90v+0EWO9k20cSR4Tpqr35eGbY9JpOlCos0SLnfl+aRgypfEP/YOcbmdYZGwU12hCCgCvR4BJZq9for1BBUB5wg0NYVk++6T8uQL22TfwbMS6mOWzPaIzZ4+XL5w30wZXTGg/WJbn+t3/lyC+16XSOMZW9u338iVVyB5A6eIf/ydIJsL269y/DnSdEqC1R9J076XJXzhkOP9uYN30AQpmPSw5A9bnNL+upMioAj0TQSUaPbNedezVgQSIhAMhmTP/jPy5IvbZMt2527fhB3n6Iqxo0vlzpsmy5L5FY7PIHR+p9St+4GEzu1xvC93cHkDIHiTxVe5HGRzgbjzirHQbb+v1pBx4TeDZAarVkr4/H77+3baMjDxHvGPuQ1u85Gd1uhXRUARUAQSI6BEMzE2ukYR6JMIHD56QZ59ebu8v/Jgnzz/zic9sDQg1ywZI5+7e0bnVdbfIy1St/EHIHkfS2tznfX28bZwexGzWS6+4YvhTp8i3n6jxOUvBd/Mi7e1WdYaapRwwzFYL/dJy6kN0nJyg4TrTibc3mqFu2CgFM74luSPWJL0uFb96HpFQBHoewgo0ex7c65nrAgkRKChsUU++fSI/PTX66QR7nNtIvl5HpkzY7h895GFEvAnJneJsGo+sVIatv9GQmd2YZPUcy9d3nwQzcmSVzpFPMWjxR0YKK68QnF5GC/pQtcRxII2SaSlTiJ1x2FF3SUtZ7bi8zHHMaKdz8U/5gYJjL9HPP1Gd16l3xUBRUARSIqAEs2k8OhKRaBvIcCkn5ff3CVvf5i6i7U3IjZ2VKk88oW5MnHsIMenx6Sghq3/IU2H3oJVs9bx/vF2cAf6i7touHgKhogrv82djizySNMZWDJPSKQG5DLUFG9Xx8vcgVIpuuwPJG/wLE0Ccoye7qAIKAJKNPUaUAQUgYsIrN9cLb99bgtiNM9eXKYfRAaVFsj1V4+Te2+bmhIcLac3QlboKWk+/ilkhXIoe9/tQeb7XRIYcxcsqENSOnfdSRFQBPo2Ako0+/b869krAh0QWLWuSh773SY5Wl3TYXlf/+L1umXCmIHyl3+8TDweuKlTaE37nzNkM51YyRQOm/ouSDryFA+T4sV/B8vpsNT70T0VAUWgTyOgRLNPT7+evCLQEYFV647IY0+DaB7LjIu3Y++5/W3woEL5Jtzns6ePEDf0NZ22SHONNO19Vhp2/MbEUzrdv6u3d3n9UnzF34i3/wR1mXc1+Ho8RaAXIaBEsxdNpp6KIpAuAp9uOiqPP7NF9qMKkLaOCDApaOK4gfIX//VqyctzIDEU6wbJOmFUC2rc/yII50uxpT3yr9vfXwJTHhJ/5c1INvJhjM6JdY88MR2UIqAIdDkCSjS7HHI9oCLQcxGgfubzr++UFasP99xBdtPIWBnoysWV8uX75whd6am01kgztCz3gGy+IMGD76TSRdb3cQcGQS/zBvy7Q9y+/jieksysg64HUAR6MQJKNHvx5OqpKQJOEbhQG5QPVhyQXzyxQVpTV+Jxetgev33/Er9cflm53LBsnJSPKBGXK3Xy1RpulBDIZhMsm8FD7/Woc/cUDRNfxTIIxN8AYfYRPWpsOhhFQBHITQSUaObmvOmoFYGsIBCJtMpuWDWfQOb5xq3Hs3KMXOt04ICALJhbJtddNU5GldPCl36j3mX4wl5YNl+R5qMfSWsLpYi6kdmDOHuKK0AyrxbfyKvEU1Se/klqD4qAIqAIAAElmnoZKAKKQAcE6hqaZTNKT7I60N4DfVvmaCBkjRbMHinLrxwrYyqd1zrvAGznL9C9DNUdhgv9dcgerZZwPcp9hls6b5X17648lLkcME7yR14p+cMXaYZ51hHXAygCfQsBJZp9a771bBUBWwjU1TfLmg1V8sJrO6XqWI2Ew91obbM14sxvVApL5sI5ZbLsijFCwfbstFaJQMQ9eOQNaa5eDZf6vqioe1fELdCKWTBUvIOniK8MCU4DZ6DSUFF2TlN7VQQUgT6LgBLNPjv1euKKQHIEgs0hWbn2sDz36k6pPl4roVAk+Q69aG1JsU8Wz6+Q5VdkwZKZAKfmU+uluepdaTm9QyKNp+FOr4c3PQsEH/qYbn+JEWDPH7lIfOXLQTiHJxiVLlYEFAFFID0ElGimh5/urQj0egTe/Xi/sWwe7SNksyCQJ1cvHmUqAVWUZSYm0+5F0hqqR33yTRKsel9aTm2V1mAd6pQHUU0ozbrzsF663Hni8gbE5SuR/PKFiMW8DrGYZWa53fHpdoqAIqAIOEVAiaZTxHR7RaAPIvDuCpBNWDYPH62BkS0LVrYegqkHQuw3IrP85msnyvCh/bptVCZZqGa/BKs/lJYTn8KlXoWxwKJssAf+ZgqSzQOy4k1mfPSv21ckngFjJH/YQvxbAgsmy0mmnjnfbcDogRUBRSDnEFCimXNTpgNWBLoegRa4zT9efUhefnOX7DvYe8Xcb71ugiGZQ1AFKJXqP5mbGZLJCP7fYiyakdrD0nJ+B/7tkkhdtUQaTiO2E651Jg9F2oU0eLywUHrhFu8v7oLByCQfhco+k8RbMgFyRSgjiXUulxccMzUd0Mydn/akCCgCfQUBJZp9Zab1PBWBNBFoaGyR1aiF/vq7e2TXvjNp9tazdvfle+Taq8bKLbBkDh5YgHrmPYmItRrCKZBEohu9NQw3Oj+HGiXSAtd6qMGQUoFr3I1kHre3QASZ5OLOR1Uf/vOBV6K6D0imNkVAEVAEuhoBJZpdjbgeTxHIYQRqIOjOMpVvvr9Pdu45ncNn8tnQ+xXlyxWLKuXW6yYJ65nTfd7jG13orWF40sPmL/6DIYMcuzwglR7zt8efgw5QEVAE+gQCSjT7xDTrSSoCmUPgfE2TrN9c3SvI5oD+0Yo/Ny4bL2Wo+KNNEVAEFAFFILMIKNHMLJ7amyLQJxCIkc033tsnu/bmpmVzYCkq/kAn8zq4zEeVZ1iMvU9cBXqSioAioAhYI6BE0xoj3UIRUATiIEA3+rpN1fLyW7tk/6FzWZF8jHPYjCwyFX/moOIPxNjHVGZLjD0jQ9VOFAFFQBHIaQSUaOb09OngFYHuRaAe5SpZQeh5SB9VHatFBaF2GdDdO7SERy/tj4o/l5UpyUyIkK5QBBQBRSBzCCjRzByW2pMi0CcRaG4Jy4o1h0E2d5gKQpRC6qmtuJ9Pli6MVvwZXaHu8p46TzouRUAR6D0IKNHsPXOpZ6IIdCsC76GC0POv7ZKjqI0e6oGWzYDfK9csHY2KP+OlYqQm/nTrxaIHVwQUgT6DgBLNPjPVeqKKQPYReH/FAXnuNVQQqjrfo2I2XaiSc/O146GTOUGGDem+ij/ZnwE9giKgCCgCPQsBJZo9az50NIpATiNAN/pKuNFffmu37D1wtkecCysx3hKr+DOwuyv+9AhIdBCKgCKgCHQZAko0uwxqPZAi0DcQqG9oMQlCr7+7t9ulj/xwlzOz/JbrUPGntKdV/Okb14OepSKgCPRtBJRo9u3517Pviwigfnaodp+Ezu6QcONJkVCTKU/oDgxGXeyJqIs9XlwsY5hGM9JHEHV/CxWEtu8+lUZPqe9qEn8WVcit106S7q9dnvp56J6KgCKgCOQyAko0c3n2dOyKgBMEWiMSaTwlwaq3peXkZpDME9KKWtnC2tkut7hYJ7tgiHgHThbf8EXiHTDFSe+XbHuBFYS2HEMFob2yY3fXirpTwmjRvDK54ZrxUq4Vfy6ZG12gCCgCikBXIaBEs6uQ1uMoAt2JAGpih2oPSfDQ69J89CMJ18GSGa8hoNHtHyB5Q+eIf/QtkjdwerytbC+Lkc3X39kju/adsb1fOhsOgot8wdyRcu2VWvEnHRx1X0VAEVAEMoGAEs1MoKh9KAI9GQGSzJoD0nToNQkefFNamxssR+vKK5T84ZdJYPx9cKWPM651y50SbFBbF5RPWUHoTVYQYjZ6a4It018cI5nLlmrFn/TR1B4UAUVAEUgfASWa6WOoPSgCPReBNktm04GXYc0kyWy0PVaXxyf5IxeAbN4vnuIx4vLk296384YNjdEEoWgFIehsZkHUPeYuV5LZGX39rggoAopA9yGgRLP7sNcjKwLZRQAxmaH6o9K093cSPPyOI5LZfmC+yqskMO7etMkmyeXHaw7JcyhXWQ1R90xWEIpV/FF3efuZ08+KgCKgCHQ/Ako0u38OdASKQOYRgHs63HRKGnb8QpqPfIikH2SWp9FiZDNdNzqH8N6KaAWhquqajNRG9/sgYXTlGFT8GaeJP2nMse6qCCgCikA2EFCimQ1UtU9FoJsRiCCbvG7D30vLsTUgmcGMjMZXcUU0ZnPA5LT7+2AlKgjBsnnwyPm0+7r1+omm4s/QwUVp96UdKAKKgCKgCGQWASWamcVTe1MEuhmBVomEGqRu/d9Ky/ENbYk/mUm+YYxm/shF4h97Z9rZ6MHmsHyy9rC88vZu2bM/tQpCbrfLEMybUVZysFb86ebrTg+vCCgCikB8BJRoxsdFlyoCuYcAdTJbaqRu4/+TlhMbQTLrJdMFx2PZ6P4xt0neoFlpYVTf0CxrNxyV19/bKzv3ONPZLAjkybKlo03FH2aaezzutMaiOysCioAioAhkBwElmtnBVXtVBLoWAZDMcMNxxGT+XJqrV8NdjuzyLMkIufKLJX8YdDbHQGdz0Oy0zjOVCkIlxT5ZurBSbl4+Qegup2VTmyKgCCgCikDPRECJZs+cFx2VImAfASNhdEQa9z0tzYffb4vJzIy7PNEg3L5iyRsGnc1xd2akgtCmbcflnY8OyLZdJxNKH5FQspTkosvK5Zolo6V8ZEmi4elyRUARUAQUgR6CgBLNHjIROoy+hgCIYCQsreFooo6pLY6qPI5bTIydOpmH34K7PL3scifHd/tKJL9sqRROfwS10Qud7HrJthR1343KQRtQsvJQ1Xk5fa5BamubJRJplQDc5ANK/DJ8WD+ZNG6QzJw6TMqGF1/Shy5QBBQBRUAR6HkIKNHseXOiI+rFCLSGQZ4gOxSuq5LWxtMSDqLWOJqnYBDqjA8Sb79RqDkOEmWHdMZI5sFXHYuxZwpiT+FwKbzsu5I/+DJ0mQJRbjeQcDgidKXvO3ROjp+slXPnmyB/1CpFhXkyGJbMClgwRwztJz7IGWlTBBQBRUARyA0ElGjmxjzpKHsBAq2QHAqd3yvNJ1ZLy6l1Eq45elHf0hUoFm//seIbsVTyBs8F8RyWvOzjxYo/L4Fk0pJpv+JPJqF05ReJb9SVUjT9e+CZmU3IiYWY2uHcmTwn7UsRUAQUAUUgcwgo0cwcltqTIpAQgdZIi7ScXCuNe55DRvgGbBc/htLlKxB/5Q3iH3WTePqVg7zFsd4x8QcVfxr3PCXBI+91G8nkybo8eeIdNE5KlvyQXxKev65QBBQBRUAR6JsIKNHsm/OuZ93FCIRq9knDVlTpqf7E+sggb/7K5RKY+AAsmyM6WQpR8Qcu94btP5Xmqo8vWkStO83SFm4PLLEV0v/qnyjRzBLE2q0ioAgoArmMgBLNXJ49HXvOIFC3+Z/g4ka98baYTKuBG3H0siVSOO3r4g4Mubh5tOLP36Hiz6fdTzI5KrcXWeeV0v+qf1WieXGW9IMioAgoAopADAElmjEk9K8ikCUEItC3rFv/j4jNXO9A29IlrvwC6FVehqzub4JsDoYYez36+Ru43jeBZDY46CtLJ4ZuXV4/ZI5mSPGCv+pkec3eMbVnRUARUAQUgdxBQIlm7syVjjRHEWg5vUHqN/+HhM7ucngGIJu+IskbMhPi6LfCIvqaNNOSmYWKPw4HdnFzd2CgFEx5EDGld4Boppd1frFT/aAIKAKKgCLQaxBQotlrplJPpKci0HxylTRs+aWEzu1xPkSQN5c3IJ7iCgnXHukxlkxzIh64zQdOlOJ5f9bBve/8JHUPRUARUAQUgd6KgBLN3jqzel49BoGWs1ukftNPJHRmR48ZU9oDgZSRp6QSCUv3ib/8urS70w4UAUVAEVAEeicCSjR757zqWfUgBCJNZ6IxmsfXmmpAPWhoqQ0FVlaSTEowUYrJlZdeVaDUBqF7KQKKgCKgCOQCAko0c2GWdIw5j0DDrl9L04FXJVJ3IrfPhZZMuPH9o68Xf8X1SFjSeuO5PaE6ekVAEVAEsouAEs3s4qu9KwIGgVDtQWna87QEqX3ZHC07mXPQ0JLZrwyJSbeAZF6rJDPnJlAHrAgoAopA1yOgRLPrMdcj9lEEWk6tl6Z9L0jz8XXSGuqekpEpQw+S6S4YHI3JLFsGkol67NoUAUVAEVAEFAELBJRoWgCkqxWBTCLQcmYTLJvPSLB6NeI1Q5nsOqt9UWapcPoj4ht5BWIy+2X1WNq5IqAIKAKKQO9BQIlm75lLPZNcQAB1ykPndrTVKf84F0Ys4s2TfnO/D/H4BSCZRRiz6mXmxsTpKBUBRUAR6H4ElGh2/xzoCPoYAq2RZgmf3wOyiZjNIx/14LMHoSTJvAwkc8hlIJlwl8OFrk0RUAQUAUVAEbCLgBJNu0jpdopABhFoDQclfGGvNO4l2VyBcpKRDPaega4Yk+nvL4UzviH5Q9ssmcg416YIKAKKgCKgCDhBQImmE7R0W0Uggwi0hmHZvEDL5pPSXI3SkiCfPaIxu7xoGBJ/7hdf2TWoTFSAYakls0fMjQ5CEVAEFIEcQ0CJZo5NmA63lyGAhKDQ+Z3Gjd58fANKTNZ37wkancwyCaC2uo8SRpr4073zoUdXBBQBRSDHEVCimeMTqMPvHQi0nN4QlT46sRE6m7Xdc1K0ZJqKPze0ibGrhFH3TIQeVRFQBBSB3oOAEs3eM5d6JjmOQMupddK0/yVp7g6yaSyZ5aj4EyOZWvEnxy8nHb4ioAgoAj0CASWaPWIadBCKQBSBz8gm3OhdVUGIlsx+I1Hx5zZYMpdrxR+9GBUBRUARUAQyhoASzYxBqR0pAplBoOV0WwWhY0gQCjVlptNEvTC7vGCQFEx8UHzlV0cljBJtq8sVAUVAEVAEFAGHCCjRdAiYbq4IdAUCoTObIX2ECkJVn0D6KJy1Q7LiT9GMb0n+iCVtYuxZO5R2rAgoAoqAItAHEVCi2QcnXU85BxAAuQyd3xWtIHQ4O6LuLm++FFGMfej8NpKpEkY5cGXoEBUBRUARyCkElGjm1HTpYPsSAtEKQhR1f0qCmSSbSPxxF5aidjnE2AfPjUoYqRh7X7q09FwVAUVAEegyBJRodhnUeiBFwDkC0QpC+6KWzaqVGXGju/L7SWDqQ+Ivv17c1MlUkul8YnQPRUARUAQUAVsIKNG0BZNupAh0HwKfVRB6SpozkCDk8volr2y+FE7+qngKhoFoervv5PTIioAioAgoAr0aASWavXp69eR6DQKM2Ty73SQINZ9IU/oImeau/ALxjVwqgXF3o9xkucC02Wug0hNRBBQBRUAR6DkIKNHsOXOhI1EELBHIaAUhj1f8oyDQPvoW8RSPggddyablBOgGioAioAgoAo4QUKLpCC7dWBHofgQ+E3VPv1ylC2TTN/omEM6blGx2/9TqCBQBRUAR6HUIKNHsdVOqJ9QXELhINo+vl9aW+rRO2ZDNMTdLYPRtqBBUiZhNlTlKC1DdWRFQBBQBReAiAko0L0KhHxSB3EIg6kZ/HglCa1FBKJjW4Kmp6R9/jxSMvw/xm8hE16YIKAKKgCKgCGQAASWaGQBRu1AEuguB0NktkD56uq2CUCStYXhLx0lgwt3iK7surX50Z0VAEVAEFAFFIIaAEs0YEvpXEchFBJiNfm5nlGweSa+CkLFqjrlFCqc9olnouXgt6JgVAUVAEeiBCCjR7IGTokNSBJwgENXZzEQFIZf4Kq5CxaBHxB0Y4mQIuq0ioAgoAoqAIhAXASWacWHRhYpAbiFwsYIQy1VWfSISCaV0AvllS0A0vyaeQmhralMEFAFFQBFQBNJEQIlmmgDq7opAT0HA1Ea/AMvm7ieRILQOCUKNjofmq7hGCmd8Q9z+QY731R0UAUVAEVAEFIHOCCjR7IyIflcEchmB1oi0nN0qTXufFacVhFx5AfFD5qhgylfE5fHlMgo6dkVAEVAEFIEegoASzR4yEToMRSCTCLScXi9N+16UlhMbJdJca6tr76BJEhiPrPOR19jaXjdSBBQBRUARUASsEFCiaYWQrlcEchSBi6LuIJutFmTTHRhorJn+0Ter2zxH51uHrQgoAopAT0RAiWZPnBUdkyKQIQSMZfPAq7BsbohaNiPhjj2jBKXb11/yy5aKv/IG8ZaM67hevykCioAioAgoAmkgoEQzDfB0V0UgFxAI1+xHJvo7EqxeJa2N56S1LSPd5QbJ7DdEfOXXiG/EFZA0GpYLp6NjVAQUAUVAEcghBJRo5tBk6VAVgXQQiATPSej8NgnXHjH1zL3FY8Q7YLq4vIF0utV9FQFFQBFQBBSBhAgo0UwIja5QBHoZAshIb0UlIeE/NpdHaNXEB/NV/6MIKAKKgCKgCGQaASWamUZU+1MEFAFFQBFQBBQBRUARMAgo0dQLQRFQBBQBRUARUAQUAUUgKwgo0cwKrNqpIqAIKAKKgCKgCCgCioASTb0GFAFFQBFQBBQBRUARUASygoASzazAqp0qAoqAIqAIKAKKgCKgCCjR1GtAEVAEFAFFQBFQBBQBRSArCCjRzAqs2qkioAgoAoqAIqAIKAKKgBJNvQYUAUVAEVAEFAFFQBFQBLKCgBLNrMCqnSoCioAioAgoAoqAIqAIKNHUa0ARUAQUAUVAEVAEFAFFICsIKNHMCqzaqSKgCCgCioAioAgoAoqAEk29BhQBRUARUAQUAUVAEVAEsoKAEs2swKqdKgKKgCKgCCgCioAioAgo0dRrQBFQBBQBRUARUAQUAUUgKwgo0cwKrNqpIqAIKAKKgCKgCCgCioASTb0GFAFFQBFQBBQBRUARUASygoASzazAqp0qAoqAIqAIKAKKgCKgCCjR1GtAEVAEFAFFQBFQBBQBRSArCCjRzAqs2qkioAgoAoqAIqAIKAKKgBJNvQYUAUVAEVAEFAFFQBFQBLKCgBLNrMCqnSoCioAioAgoAoqAIqAIKNHUa0ARUAQUAUVAEVAEFAFFICsIKNHMCqzaqSKgCCgCioAioAgoAoqAEs0E10BruElaQ/X41yit4aBIa+SzLV0ecXsLRDw+cef1E3z5bJ1+UgR6KALNzWE5e75Rztc0icft6qGj7DiscKRViovyZUD/gAT8eR1X5si3M+eA+YVGCYUj4nYlxj2Cc/X5vDKwNCD9Cn05cnY6TEVAEVAEkiOgRJP4gESSUEaCZyTSfF5ag7USaTqL7+ektaXWrJNIuA3JVhDLPHHlFYNfBsRdMERcvhJx5xfj7wBx+/qLy+NPjrquVQS6AYFTZ+pl1foq2bHrlHi97m4YgbNDtuKnFo5EZNyoUpk3e6SUjyhx1kEP2frDVYdk684T0tDQIu4kBJ9EtBSEetFl5TJ14pAeMnodhiKgCCgC6SHQp4kmLZWtIJbhxtMSrquS8PndEqo9IOHaKok01uApFwK6eNolaa58kM1AqXj6lYu3ZCz+jRN30UgQTpLOAdgzsQUjSbe6ShHIOAIHDp+Tp1/cJivXHsl439nscM6M4XLnTZNl+uSh2TxM1vr+xRMb5MOVB+XchSbLYwwZVCj33zFNli0dY7mtbqAI9DQE+LJ0Dl6TerxUWTa8SdKCX1Lsl4JAbnorLM9RNzAI9Emi2RpphqWyTsI1B6T55FppOfGphM4fls+slqlfHa78IvEOHCf5Q+dL/rDLxZUPa2deEfhmz7cgpX7WumcuIHD46AV5/tUd8u7HB3JhuBfHuPCyMrn9hkkyefzgi8ty6cOTL2yRtz/cL6dON1gOu7K8v9x76xRZsqDSclvdQBHoaQicx8vUm+/vlS2w4LtoZEliZ4mEW6VsZLEsxbWuFvyeNpOZHU8fI5qt8JK3wHK5S5oOvynN1asl0nAms4jGenO7xV1YKv7Rt4i//HpYN0vhcvdgbZJfXmxf/asIZAEBQzRfA9H8KLeI5qI2ojkpV4nmi1vl7Q9INOstZ3UUiOY9t4FozleiaQmWbtDjEDh+sk4ee3qTrFgDw42NNnbUALnluoly9eLRNrbWTXIVgT5FNFvDjdK457cSPPSuhOtPwoLJBJ/W7M0dA/+ROOQdUCH+CfdL/uB5iOXMzTiz7IGkPXcVAko0uwrpjsd5UolmR0D0W69FgHHgjz65UT5ebY9oTho/yHgrGJesrfci0DeIJqyYofM7pGHHoxI6dwBJPnXgl7Hkni6YXGSlu/P7SX7ZElg4b0Yc5/guOKgeQhHoiIASzY54dNU3JZpdhbQep7sRINH81VMb5aNVSjS7ey560vF7PdFsbamRYPVH0rT7OVgxjyKDnEHKWbRiJpldN7LTvUOmi3/UjYjhXJhkS12lCGQeASWamcfUTo9KNO2gpNv0BgSUaPaGWcz8OfRqohlpOiXBqvek6cAbEr5wMPPopdCjK79Q8gZNER/Ipm/ElSn0oLsoAqkhoEQzNdzS3UuJZroI6v65goASzVyZqa4dZ68lmpHGk7BkfijB/a9I6II9M35XQe/KCyAzfZIExt4u+cOXdtVh9Th9HAElmt1zASjR7B7c9ahdj4ASza7HPBeO2CuJJoXWm499LE37XkRM5v4eOQ8ur1+8gyZLYOKDSBKa2yPHqIPqXQgcPHJennllm3z0Sc968bJCed6sEXIHdDRzVQJFiabVDOv63oKAEs3eMpOZPY9eRzQpwt5yfJU07n1OWk5tySxaGe6Nls08xGwWTv898RSOVK3NDOOr3XVE4Ej1BXn1nT2yblN10lKIHff67BtFFIIoY1lf32z+frYm8ae8PLcUFeaLH8LMrPTjtLVip6mThsj1V42TieMGOd29R2yvRLNHTIMOogsQoFj7L5F1/sHKg7aONmXiYLnjxkkyf3aZre11o9xEoNcRzdC5ndKw67fSXPVxTsyIK68AmejXSWDSFyDsXgyyiae5NkUgCwjU1AVlz/4zwgpBHo/b8RFYPvHYiVrZsuOEHK2utbX/4IEFMnPaMKkYWYJykg6ZJjZnCcqy4cUyfswgGTggYOuYPW0jJZo9bUZ0PJlAgC+BoVBEQhBeN0p+6LSuoRlZ55scEc3brp8os6cNjzuk2B2D9x4v7lnJSrjG7SADCyO4b/E8ef+CPLbk53njPqb5Iq2P7/iA9yqi2RpqkPpt/y7Bg2+h8o91ubf4kHTDUsgfFS/675I3eI7QpW6rsT57K0pk2jQTuSgW7/LG7xr9tIZRLQn/BFJQpva7UGMUu5jqDtgX+7vc+SIeH/6ynx5AiCFRZcaNSk8SIRb4DlyiqgIYufnV486A8ZoxY/zmHDJ9N8CxW+3KZeHYLmirUl81XqNFXlga1cwD++Wtlv+4H84Fc+jyoFwb58GFv5k+l3iDards2+6TprrQ2g3V7ZYm/jgZOnn3oaRiogdJ4j3TX8MHREtLWJrxL4yHYRjl8SLAM/aTIXR8cJF0e/A3P88jefiX6YdZTyCahhQAA+LREoriQXxa+Q9Qx7CIPdC9XmLhNg/39Gfisx6IfQjHj83BZ2vif4rOT+y33HEbzmUzLOycX0MEML+xfnk+nFeSk/x8j/jwL3o/6NhHsm/si9cM+ydu5hrCi0/7Y3yGV/Q4ecCtqxvntgVEiGOMEb9Ip3Hy3D2e6LXOMeZjbt3AJp27OL0b9JKcPtPQRgJFztc0yTuogrVt1ylbMJSjMhArf00eN/giru135LXJa5RlKkcO7yeFBXgGJWi8rnk9UB6b82/VvF638bTE245YNvHaag5JA8ppnjnXIE3BMEplemXi2MEondlxnpuCIanFi3zs2ojXZ/tlHB+vzf4lfsfXZft++Jm/Yx6/Dp4mJ21ACTyquA66ovUiogmwD70mTXuehWbmgQxghyvBPNjbHvDtf5Ikebw9k9QYYpPu4fC21n+49Fvwv1EzvQKdWf9KIsGzEqmvBi+EJqhVw3l4CkeIp4Du+XZ98zxAMiP1x6Tl7BZpgTU4gprvkcYzkIECUce2Lg80QP2l4i4YhjGOF2/pNPRVDu5WgPUkTO36sxpHRtZHcSfBZCxu6Px2aYFGaqTueHTczbWYEpBlnDNDE0xJUIzdjTHnDZgsHtSid6EkaJTsZeJHBgJTe0jCSD6zcy24vAHMw3BxB4Z0RMOQ5iBiinE+pzcggW2fhBtOSmszq8ngnHE+bl8xsMc84By8A2eKp6gS+qwsb8qbXtfMw8Ztx+T513bKxi3HO44/wbfxY0rl7lumyMK5XSPIzBt9zNLCG/+eA2dk74GzchJVeRg/xmV8GPO6JbEsLsqXgaUFMhg1xseNLpXxowZKUZFP8vAQ4sM5E5d3dxJNkjGW+mtsapHjJ2tl76FzchAWbZKDmtom1KSOvszkI7ShqCBP+uOBPmRwISzQ/WVMxQAZNhQldfFAdMOUkwksSE4OHDqLhzheDG00PgxZ/z3g/6wWNueYNbX5YGWpw72w0lcdq5EzZxslGGwx80ZiOWhgoQwf2k8mjC2V6ZOGSSFCOLwgW1aEE90bzIIYIyvd7Np32ngBTp6ql7PnG0A8ed9vlTwcw+A1qEgqy0pMaMdoYMaXllQ8Bjbg6LAJCQb/NTS2CBP99hw4LdXHa+UExslSkCRL/C2QUJGglcIjMARjZfWpcaNKgU+B+Q2QLFth0uHAbV/4m/rZ4+tkzXrIBhK0LLa5M0fIvbdNlUlJwmf2HjwLgntS6uqazTwnGg4xc+M6qCzrb1z2PP9Yi72Q8Z6xfku1bEd/VUdr5EJt0GDUv9gn//fPrzPXZPvfw1Zch0+9uE1OnrLxPMbBOCdlI0rku19f2OHajo3Dyd9a/A5Wrj0sz72yA7vZmwi+SP7Xb10uvF67ovUaohmBXmbd6r+W5hPrgDVuBGk2V0F/yUNmuHfARPHige7yDcSzHnFmkSAIwDFDLkJnt0nozH5YTxvTPBp2B5EonPl18ZUvj5artOgxWPW2NO19AURrv8WWXO2SwPi7pWDy5411z+wAYtMCkta0/0XUet8srUEQtIvEmRdr+wuWljTejPAXljRPSZnkj7xcfMOvAPHp2tiaSNMZxN6uleDR96XlzG6RFlr/KL4fvfmbc7s4dt5A8C82dpK1fkMQFzsb0lJXgThPAkdL/IYc7cviv8CsbtO/oNrUm+bhY7E1XiSGi38MypKOvqPDpk2HXpHg4Tcwn4fxFG1qm4vO88Bz4QOf85AnngGjzPXiG74U10zX3DA2bm0jmlvtEU2SNxLNrqr8QfJBYvDJ2iOyFS7+czVB8zDmAyRmveND0TxaopcG8Iw+aPnAKe7nQ9LRYJSArJCJKHnZD+Qk3dadRJNhEms3VuPF4JgcqrpgrJl80BIDYmIa/xAL/iEWuLzc+MuH0cRxA2UukrEuR+UWkr50G4nQ3/94hSFEdvpavKBCbl4+QcZURq9vjvns+Wg97Q9WHpALmF++OOCUzPl0nFsXziNqteaLxOL55XLV5aMN+Ux27Hq4fxnHzOo2fFGph0UrilkUN95eDGTtrh9eOwWBPDy4+8sViypRUnFMskOkvY4kksl9azZUyUb8Fo+ADHGMUYv9pePkATmnsbml5Z4xz/Nmj5S5M0YIQ1yctpOn6+Snv1kn9G7ELiWnfdjd3g7RfOH1ncbbUof5stPmTB8u3/9Pi81LZWz7Q1Xn5fX3GMd+TM7hOou084IAPinB/eFv/vx68zLG77G2Hy9wz726w3ZFJO5LS/v/+ZPlUo6wIhLPVFs1wpn+9ZdrZdtOGCZ4YdpoY0YPkO98dYEh2zY2T3uTXkM0G/c9BWvmCxKGZSvlhl+hp2SE+Cqul/whcw3hc4FYIXgS/2JWI8wkXaV018LFGao5KM3HVyDLfS2sarBqpdE8JSOlaO4fSV7pVMteSDQbd/9OQmf3WG5LUlIw8T4pQBwo3ci0BDbufUKaD6+QSPN5WC/hrrVNzvELoZUTFk138UgQnaXir7gVHt30H0LJToQW3Objq40uahgW69aW+qir3+4vK9Y5QwAwViOeP2gq5np5eln/hmj+M7RaX8X1YG2lIUn3j7tTAiSasLyGYUFu2PlzWDH3gOxfwDTgJmn3nECSadH04jwCY2+FPmv21Qt6KtEk2Vi/uVreW3EAcahnjZWH7iQ+fJ00Ega6xQoC+YZksQbzzCnDzEPBST/tt+0OonnwyDn5aPUhkJATpsZ6Y1PIWLjaj8vOZ1oGaU0cAbflYpDv+SAmg2EpTLVVH6+Rv/7BR8YCaaePqxePkluvn2SIJmOMSZhfQ0Jb1bFaEEB4NWzOL93GJIKVsOZdf/U4uQwWsvZW0thYSNzeQl16EvRaWMboir1IyGMbJfhLkk6XdD+QkQljB8pDd06HRbifsQgn2CWlxTv3npYPPzmIF6mTcu5CozRxbmmld9DIkUh0AsCE8dOL4L6eN2uksQLb7YYWzV88sUFWfXrE9i3Lbt+dt+PLzn23TYPbemDnVRe/v/7uHnkWVj2Oy6rRm7Fgbpl8BxZFei/YOPfPvbpTDoNs8vfS+doiUS8d4Je/+pNrL7Focvs1G47KD37yie3rhZ6Ch+6eLtdeOVb6wYuSSmM4x+59Z+Qv//F9c8+z28fXH54rSxdWmhdru/uks12vIJqMa6tZ+acSOr0V5MPe20xn0FwoEemruAKk6Qa4iYcaIpIwprHdzq1hvPU0nTUuz+Dhd6MWVRuEo10Xn30ECSqcQavmMkNyP1tx6afg0XelcdfTIJqw6lk0lzcfMkoPGKIZrjsMYvOYtJzcCFfzeezp7EHc4VC0qhUMMgL0/nF3i7d4HEwiJOSZbS1nNsNi+BbGvAlYt7n10z0Ebhp0oXtLKmCdXYxqTSTLzt/qSdDrt/wIluFXQdjx8mHRPCXlhmj6K65DuMI2adj2KxQTgFWcoQp2CWanYzChzDsQUlnjoMs6bHGntZn92hOJ5lG4TUkwadmhxYyuxEw0EhO6XklKrgThGYHPqbSuJprvrdiPZIxDsGCeN2TJhAqkMvB2+9ACVtrfL9MnD5Wrl4xOWWqKyWR/9f8+tE00ly0dLbdeN1ECcOvTwvjuR/sNkWih+zqFRnLF5LLlV46B1XH0RbJJovbSGzvhgjxixhbES0qKP0c6UMTv98r40QPlc3fPMCSZ+KXbGhD+8D6u81WfVskhWDPpMu1MhlI5Bl8m+sNaPX3yEEdze4pE88kNxnuQKlZ2x3sZiOa9FkTzjff3Gqvi8RPW7muqYCwE0fz21xaYRyBjSn/zzCaElZw3MbnxxmWIZmlA/uq/Lb+EaPJlZN/Bc/KTx9bKnn1n4+1+yTK+1E6ZMAhkd5Hp75INbCygS38Ffhf/8etPbV2vvDapAvK//3iZcd3zBawrWu4TTUxw88lVUrf+XxBrmJo10104FETjWvGVXQ3XZiVwdw5+K2IlQxf2SvDIu3CBvpNyMlLeiLmwPn4ebvvpSec/ePS9NqK5K+l2XOny90Of9yPZaK407ntOmo9+jNi/Bsv9bG1gCBuCikuniH/CXRj3THBNv61d7WwUrP7A4NlyCi8RsPhlvJEsY/7zRyySwIQHYSFE5r+T+TdE88cgmq/YIpoU6veDEHoCw5C49nO8HG3DjS61h2Z7LGil9aLiVOG0L4E8T8wK4efxehLR5M19F97mX3t7j2xFLNV5WHf4hp/Jxni70gEFMnv6MLkOEksMBXDauoJo8kHPOExadVasOWxcqUxiyXRjaMEkJHiRpPFB7TS2zxDNH4BoVtfYGtqdN082ltSde07JK2/tMaoHtnZMshHjJ+nivnHZeFm2dIyJ26XblbidPN1gEoCS7G57Fd2hc2cMl/tun2bIplOsYgfidU437stv7ZJP4dJn3CgtrZlunFvKDXFuF8yxDonKZaJJcs1wnv8MonkaiT4//Mkq2Y1Y32QvZcmIJufiLKSd3v5wnzz+jH1ZxUK8QP3Z719pXkpScZ8zNvd3L22DhfuQrcuB1tt5c0bKN74wz4QB2NopAxv1AqIZltqN/yDNR0ierE3mnTHzFA2HJfNqlIS8ySRpdF7v6DvcnqGa/XCjvox/r8M16pxAuHzIrJvxTWPVdNFln6A5IZpuxpsOnY34nABczx+CsFm/8SU4bOLFCDvIGzrTCNDnDZiSEVd68NiHUdH9MzszEwebaPQYu9tfIr7Ka6NkMw+WK7762WlOieaAMYgRnYHwhTpYad9J2YoZb2hULMgfsUAKZ30PhJnWN5vnEK+zBMt6CtGkBWofgv9JEJiYRJKVzcaHMF2LJD4jh/VzRLC6gmheQLbvmx/sg9t3n0n0yYSlKxGeAVjrJoJs3njNeFuEpH0/TonmVbAkM4llG9zEfKnIVGO27QyERNxwzThD3J55eTviPRkbnakjRPshobkdOpHLrhgjQ5GI47RxHs+ea0QC3g5ZgYQPxqRmc25pxeeLxC3XTZA500ckHW4uE01anBfPq5Av3DcTMZl75YnntljOvRXRZNws5eP+Ci9S9KrYvZa++rk5csXCSpNZnxTwTiv5ArIZcej/+ou15hrutDruV4ZK/KevzMe9DCGC+QlUaOLumd7C3CaaAJpJQBc++C6ScyC3YpJC7ANCcpFfthSJMveYTGr7eybZEvGboQt7jLWq5fj6JBsmXhWY/KAExtx2aWZyu12cEM1o9nUAYQVwBzXZsyS0O5Sjj/llS2A9fQixrmNBbFO7kBmnGDq7VRp2PIpkq93RGFJHo0hh4zbLbMHULyJ84nq41UnUbDSHRJOZ4678AGJj60D4nb8YWY2IMcVF878v+UMXZYTsdz5eTyCalDGhRYxv8sx4dRqf1vmc7H6ny+nKy0fJA5Br4me7FqpsE01mGJOEPPPyNpAShGB0QeODevKEwYibmyqTkTRltzklmsOGFJkEpljSj93j2NmO0jIj4UYnwbRrYbXTb+dtmOzBa4ZWQidWKxIVxmC+9vZueenN3SiSkLo7v/OYkn3niwSLJJCEjRwGpQtYgOO1XCaaTOqZD8vefMzJT3+9zmTqxzvH9susiCa3PXO2Qf7l56tl07YTtl8IOI6H75lpYmXbH8/qM2OUGU7y7499asuTQzc5f09/Cbc51RLouu+qltNE0xASSNvUfPTnsHg5tNLBipU/fB4sWPcixnB2RvGmnmfz6fVS/+k/IqaQxM7Za3J+Gdy44zEuuKETNSdEM1Ef2VoemHQfsqpvBXlP/kYc9/gg6uH6Kqnb8mMJncBbJrU9u6whS7VwgBTN/n1cE7PsETWHRDPrp2IsyyBCs/8A+FMEObM3k+4mmnyLP4HYsJff3IV/u7MOZ+cDMLbr65+fa6whJFt2WjaJJgWymSH95PNbbWdy2xmznW3o9psN1/DXHpoLawx1Xa2vNadE0844cmGb22+YJDdfO8FRLB6luFatq5Kf/Wa90UnsyvPkdX7l4kp58M4ZxsUab26ZdPPz366X1RgjSXE2G7PO77t9KpKBBiU8jJMYzQGIN2YYDBPC7Lqd7RBNWjI/+fSw/Nuj62wn33EslDli/HMiUh/vpOk2f+Wt3fIGLLJ2Gn+vl0N54ZtfnG8kuOzsk6ltcptohuql6eDz0rD18WgyhQNU3IH+qMbzOWTr3om9rG+QDro2mzJLumHbTzC+92Fptc5Gbt+/p38FEnc+h5jR5e0Xd/icFaIJkmKg4F0jjTuHO1AsBdO+hvEvcxivCQs1Eqsa9z8rjdufxPk6uHsxm5wi5l5k7zEhCQTQZHCHGo0ltwN4Fl/yRy6AFNSXEes4Fn3Ff5u/2EVPI5ocGMZcsvRvkCA0DVCkL89z8VzxobuJJuWLmOVKOQ8nlYb49k5LDR+gvJnzyjKizMgWZXa63caHzaCBAfnj7yyVCujwMXPUqmWLaFJMfCskTZ6DW9WurinHyrsdNSCJB8W7yQ+pSxmEIDV1Ltmv3caQggeRXb0crmE7CS99lWhOnThE7rhpkgm/sIMt42s5tz+HTmWVzSpcsX75AsTrnPPBuebcMjOdFlEnMcy8Lv7w20tkFqr28Frp3Eg0KW/0KeSz2je+DNp9fHB8Lvw2+Tfh3R4r+EJjpaPphGgSH4qv85qvt5k8aIdoMqzhDGI1//h/vQlrNBKFbaoifA3u86WL4D7vZz+/YR1UNn777BajE9we/0Sfh0Ifly/JlLOK9+KQaL9MLM9pohlpvoCM338yMj1Os819Zcg0pjWzdHomcLy0D7h/wzUH5PyHf/CZ6PalW8Vd4vIVScGUL4AE34X1/Ale2jJFNBnXZyScQEjo0uXxWqFNKcimZza/M+mjz8bJDH6GJHgHWEs1XdwL1suW05vkwoo/dRAGgZtUfiGsd4Pgrq+EiPlIkE3Ir1DvFCLqlEIK10DMnRZvB6EVhXO+B6J8VVus48URXvohU0TTkHwSfcy3Ifp42KPvVFvBtM8jwe1mxJ7ad2vaOVZ3Ek3etCmM/KunNuLmes7OcM0NlQ9JxvlRi7GyvMRYaEIhPBAQ+0YZm30QZ6YlgiTLbrvzZliolk+UQRB7t2rZIpqnz9abBBnq99lpvLSojUltUFZkGYWEmIFIdCLxpvWM2fvUYzwJYftGmzFmJPAD4Ib7m7+41iRNWbnjMkE0eR4cMx/8bCxTymvDLrmxgxW34bnQ3cj/oXdD0uwSh87HoMWXerLMoLfzkKe1ilb7N9/f17mruN8JBSV7CiDMziIJlHFiyVYK1JPwHIaGKv+dglC/E1UGyjR9G3qL5SMQ8tOGd2wATH7htbcWsj4MCeB8kNQylMPuMRjDypcVxobG5WSYVGJOV/5N0FOl2Hyi5oRoJuoj2XJDNBPIG7Xfj4la//boGlg2q4xMUvt1iT4vXVghd940Gfeo0kSbdFjOpKW3UYHpl5CXsvOizN8Lr4v/+YfXmCpZHTrrgi+5TTQhdVOz+s8Qx4cfowMSQTJVOP2r4h97O0iJ9YMi1Xmg9NGFj7+HeMMDuBvat5rQIhWY9CBiHR9M6L5Nm2jypgFy6StfCEmchbDeTYCkEkgJlpPAh2sPQKpplTRXr0I2P2SQ7JZYbAPLlYebx5QvmRAA4m2nhWr2QXrpl3hxWGlnc2yDfmHBLJjyQFSWyk+3SsdjtcKi2XxyNeI9fwkZoWO4TuzNg3fIVCmc8mXrsIp0iaa5eeMmXVCCmFxoxDEBDCQ50nAO8lPMsifhTPiunxCn/JGXScHUb0ByakzCbVJZ0Z1E8yyyQ9/CzZVv8XYaoWVFFCZ83ADtxAEkVSAP7Rtv0kwqehkuqDXrq2xbfArxYGS2KBMnOj+A2/fPz9kgmrwi3kbiD5NYmIVsp5Fwj8PD5u5bpkIbdGjccR9D9aB3PjpgSA6tYHYarboPQg/wOht6gOkQTc4nsaY1qmwklDQwB/y9n0amOEsE8kUhVSLY/jx5DNa05ssJhczzkTRB8sDKQIyZTJXU3oqa3vcjA53xvckaScT7Kw/KTx5dazv+mFjMmjZM7rhxssmo72xd5phpgXzj/T3y4uu7bF/nHOf3HllohN07l39kn7QINqEak7fNenoGLz9PIIyDJMtOI5G9afl4WHrLjNj8pfuA4uM4HhBZfz4UQpLI8WSbaPL6o97l3/7F9ULrIL/Ha7Qab9lxXP75p6vNy2y8bTovYzWurz00x8SMdl4X7zt/R7xn0XVup5X2D0C6apR8/t5ZdjbP+Da5TTQbT8Fi+B0IpZ92ZP3xFA2Ea/cbsFhdA0ATXC0ZgJqu24adP0UFn9dh1bT3MIgd1j/uVpPB7QkMjS3q8Dcdokn3snfwJLjnvyJelrykVdOUk8TdlQ3ExtTuxvgZ+9qw59cSPPA+PjtJXoHwdcVViIG9DxV4JkT7TfJfYtV8bKXUrv4/4FY2MohBxt2FA6XfvD8DmRodJeS0Cl7SeKNCfyhNWbvu/6Cq0HZ7yUVwxRfN+rb4KpEYRNH+RC0NohmdB+hfjr7FWH6jovfR6zESPI8XqE3SVPWutBzbmOjoCZd7+4+A+P9/Q79TEm6TyoruJJqMV/stskOpIWinDR1cJA/fO1PmI8OSD9541jZyeNaFroEe3XOv75C33ttnywrBh8wDcBlTHsfKqpkNonkaSQe/e2k7LF57bZEriohTjuhh6DqSMCRKSiF5YNznNliO/+Vna2xlzxKLYcD6L75/lWXVnXSIJq1q1DOlrilF42MEn25mWqapMbkBCgScy3TavNkjZMmCShMP2A8lSnkc4kIr3Q7ILFHp4Agsjk61PK9CItk9t04x+oXJxsdSii+/scuQzWTbxdYxxo96o3ffPNWIsNN6Fa/F5paFDX7y6Ke2rnP2M2fmcFw3M41HoHO/0Xfg2Iuwy5Q1/cUTG81cdN423vepkwaDHE/CnJbFW41ln/WdiNjFdsw+0YTUGbD+6z+9VLA9NobYX74s/MlfvS2sGEQrr1XjvYnJVxRv70zo4+1LtzlLAW/ZfiLe6kuWjUXJ0a88NDtl/dtLOnS4ILeJJmpBn3vna1FNSAdWH0OyJn8J1X/mOYTL4eaoIx48+rbUb/yZiT10srcPup4BaF96+42Ou1uqRJPySfkj5psYRLefZTWjVoG4B+FCEClWEmpCecSmvS/B0nYy4aadV7AKTmDcXUgMur3zqku+04JKjc+mva9csi7eAorqF839jrE4RuMQowQt3rZmGa6PCJKMaj/9O5SuhKsR52XVfKOWwyILIXpYexO2FImm298fRHwJNDUfgHu+BGQWsTntiTJrn8MaG647EsV+z0sJhxBvBbVTixf+D+DDhDILbOJ1kGBZdxHN2vqgvAq9zN+hnrCdLPPhqNF9A+R3rrtqrAn4T3A6FxezdF8NpGN+8qu1shEZo3QdWzVaM79w3yyILsMTkKRlg2h+8MlBCIzvshWfRSmfyyHlwsxWkmKrBzZj7BgLS9L2Lz9bnVDAuv0pk9z8/jcXQW90eJulsf3azz6nSjRprbsRli9muNN61z42lrf+5paQkf55B4LurByUKtm8E3GUSxeOMtm5tJy2fzkhUaMFnHJDjE0k6aRFz25jVSXKY1ll6VOLkclddHNbNRJhZi1/AZaqEoQwWDXOLQkzE0hegGWTGfdWjTGf331kkcwDwU/0ghLrgy9Ajz65UT5adSi2KOnfyRAsZ6LUwrnlSbezszKTRJPWf1bDYrjNCGTeD4I3hMk0fGFlQhKF/60aPS+UG2OIgZ1GKS+GVpAUJmu83qmp+gxeNM/bmD+GVFDw/ruwTHelpFH7c8hxonlCzr75RUQ7Wz8U2p90/siFxi3tLZ3WfnHmP7Oe+Ol1UrsW2ecNpxz176u4ss0aOCnufqkQTVrQ8obOgqj3N9qE6eN2HXdhpOk0ylY+BfH093Eu9vTsWJHIB2tdIRKDkloFccTmYx9DEuqniKk8Evf47RcaWaryJVI49VsJQwvab3/xM0hh436S2RcRGmDt2vH2r0RMMQvjAAAz1ElEQVQIw8Ntlu+LvXT8kALRdOVB73IYXNvTvo7Y0kRv8tHDsNRp+MI+xCL/GNbYnbYIstkTQvTFC/5c8obNb3uZ6DjsVL91F9HkQ/1FWJLsuOQCCPKfP7tMvnj/LFggGHdsv+1GnXRa8hgjZ9X4AP7mFy8zJI4380Qt00STSUyPPb0JYQSwvjaGEh324nLGt91+w0TjnrQimbGdSEhI1n78yzWmjCUr5Vi1G5ePw3EmG+tmom1TIZqMJb1p2XhjZYy6y+P3zjEfRYlLEk2KuztpJJSzpg0FGZ9lZGaSESoeh7HCtNztRzUYu824tkFkZ00dnnAXhofQYvoyxm8nKWv6lCHyRbzsjEMVIrsNwzchAP/801Wyfbc9shyz3lvVRD+F+F7GUH+06rCt4fBljUST4unptkwQzai+6lBz/2A8KD0BJJ0kaOblBu/ssQQ6q/HuPXBGfgSNywOwatppFWUlJuFpKazpyRqvkd8hZOaNd/faSohkdbPrET50B3DurpbTRDPccELOvemcaFqRuIxNBkhIy9lNcAf/rSNLII/PGuLG7ZzA9ZkK0WRVmoJJD0HWaXFKpxiuPQgy+DO4ctciZNMeuTe6mlORwd1vVMJj0nLXdPAVqAf8DFa85oTbRVe4xFs6EfI9/yklt3C44bjUb/6xiT21iutlolTB5IdhdbwbRDlBXFUKRNM7YBys1feCwC63ONfoaiOXdWyF1EEuy7bcExhFv3l/DOv1Ymdk3GJE3UU0aeWhq8iO3uHYUQPkNtxUr1w0yuJsLl1Nl9e/IjaOki206lk1Sq7Q3ZWs/nemiSYx+NXTG00SBklDskYyTJLGRAOn9ZRJdDZuOyY/+vlaY8VLdhyuGzt6gHwL0inJqic5JZokgLTy2JUG4vyxZvWvntpkO3aVY6f18ve/dTlE3FElDp+tGmM2WeebOoZMpLLTZk4diszzyTIbWdyJGjPNKc7eOZM73vZ8iVp2xWhTeYjkx2l75e1dsIrvtoXTQtRC5zWUTF6Ix89losk65qyKRKt8JRQligop2eUU1c+2p/X7Rz9fY+bSTkEJH667u2HxNiVXTfzxZ321/7Rp23FzjdDjYKfxBedz98ww1YfsbJ+NbXoB0fxSm0XT4o7bDr388sUgcSjJ6CQjut3+tj/Sonlmo9Su+TvnFs1yZG3Tdd4//luIU6LJzGw/Kt8UTPkKxMiRlZ1ia4JFsHHvC8jktrY88hB5g6eY88gftiThEekeNm7zPS8k3Ca2gufhK1uK+Mn/gsQZ6wdCbL/2f5lwxJKRkQbrmrT+cbeZ8bNkZNzmlGgi9tNXfiWS0b6JjHCbVggcg7JP5z/4z3D/249HLpr3R+IbuQREM3MJb91BNJnkQZf5S8jCtcqwpAuXVTZ4Y7WKnYw7n1j4Idx+z0AM/hCydK3akgUVxiIzfkziucw00fxk3RF57pUdsttGpRySPpKbJfMRi+2wkcQy0eMv//EDVDw5a6kLSGsj3eeUw0lkEXRKNJmQw/AEzml7N3ayU2Fy17OvbkcNaHv3KFqqRsJNSiFrknG75OJdxIS+BOvjAdTHttOiyTqwaCYhmnyhehEhEcwQt2rTQYrvInEFMUqlMYmMoRHbUeeboSPJGq1tDL2g+z9Zy0WiyRhcusVJpPl75n0jUZxrsnOPt44lYZm0Y+cFmftfeXml3ImErlEVA+J1Z5a9+MZOE0ZkJwmQlYCuWTIaczfDVghRwoOmuSKniWaEFs23v4oYTcaZJP+htMcpb9gMWPZQT3zQnPaLM/8ZRDN4/COpX/9jZBDbczfHBuGrXAaC80DCrGGnRNNbOh7k+m6QtGtjh0jpLyWbGnY8hpruH2J/a8w9JeWI07wNcZp3JTxeC8TtG/c8jRrsaxJuE1vhKS4X/3gkSo2+O7bI8d/g0XekcfczSLbZZblvPmSwjKh/Ihksh0TTEP6xCCeY+ojlsdtvQKtvzZo/h4j9NntWTdw8DdE0Fs3cJpp8eDEJ6F1kQ1s1ysjcDBkU1pdOtdH9+m9IlrATaD9x3EBzLGrTJWqZJpq0eDHG7tgJ6wRDPmSY7Tw6yYMr0bhjy3+CyiMrYLmzE/fIUILFeFj3gzUoXnNKNFl7m5naM6cmeNGLcxBeL9E4x21x1l66iFbfBUiU+r0vzhNaley2XQizYF1rWpjsNCuiyRjQp17cKq+gElBtbXJrOkk3tUsfvGu6DChxFh4SGyu55Q///RMjCm/1Akci9uUHZxuLXzISlotEk3N+LbDkPcPJi0YMx2R/KRn2i99ukPVbjtlK2rPyxjC+ljGw7+Elx069e4adsJzo8qVjkw0z6+tym2gy6/z9b8EyhTdKizey9kh6SkYibvDrcCEvbb8445+Z7dy47wlp3Pksyg3WOOrfP+ZmxAc+gPrr8R9gTommr+IauIE/h9jMUY7GccnGkAeqR2nIpj04pxAJfvLmLhgo/jE3mAz3RFsGq9+Xxl1PgPhZx1WRaDL0wZE+Z6cDh2v2gih/ANmpvZ3WXPo1b/A0EM17El8rDommu2gIiPft+PfApQdLsoRSWfVb/0WCBz9A9r91kgDNMr2FaDJukhnWa6DXZ9UYQ8bs6jlJiJ9VHw2om/7CqztlD2KsrG4rQ1HS7XPI5KbFLVHLNNH82ePr5YOVB20Rv8vnlaP04UhoFfoTDc9y+UqUt2Spzws2srkpqs1QgiGD4ntNnBLNxbDEMis5mcW48wnUwJX9MazS//7Yus6r4n6n3NBNqNpzD3Quk8Xadt6Z50Idw9XAxk6zIpokEYxvZAKJlbB6HuR+FiKukQkkMT1RO2PosA3cwtTp3IzM5XqLMBFaeeklYIJdEVQLErVcI5q0vDMW80++txRlGQO2reaJzr/zcr48MJ76Hciy8bq0aoWFeZBiG29eruIlHO1GLfXHn9mMuGnrlxvO2VLcl6jfylCA7my5TTSRoFLzyR9J6BxcJA50NJkUUzjjEfGNugmJEol/NOlODMlB7dr/KS3HN9mT1IkdEFcIxc4LoKXpQkZyvOaIaMJdGxh/F4jmFzMSr9d04HlYBJ9GQo2Nix1Z7n5kbxdO/3a80zDLmg69AjL+uL3+PF6cA6wl/BWl2sAeGAtqJ87U03+UsQT7K26KfzSHRNNYeMffCUxuj99fgqUUz2/YBZf/3lftSWUBn95CNNdvqYYwtD0pDwbz+xG4T909Gwb3uGjz0mK1EDsWA5KUz0NCieQqkWs3k0STD65/+o9VQve5nYxnurPNA8va+RAXCy6kPAtjzKzID7e9/uqxcsu1EyEIH/++5ZRoMgaRMWujyhO7Ennc9o2xtSTHP0Yihp1GK9ZdiI27BWSzs/5ksv2p3cnykCvX2nPRWxFN6lySlNjJ2Oa1ZpJUYI2LQLcxpYbrvBnVgngd2amyRcLPWNlk8ci5RjQZmsHiC7csn5TWIyUZ/vytvoD48p17EPZkozEx6nPQpS0bcelviNZuJrvZccWzvCava4YEJAplsTGcjGyS20QTsjt1G/4WiR0bQDTtJafEUPOPhcUQ0jtpW/hiHXb+y7i64BnIL31DWlnv3Mo00m5/I3Y+GZWBUO8cWSjt1nz20QnRdPkKTJZ9YMJDn3WQxqfmo+8ZV3fLaWvXM6sN+SquRkzlf014RFNycudvopbphFt1zwpPv2Fw1d8tgTEJXP8OiaYXxNVPoll5i6MTYhJQ497HYfl9HkSz1nrfXkQ0P0HJSWbi2r1RW4OTuS1IbB+6a4ZJuEnkds0k0aTV64f/vsrUN7ejz5e5M7XXE2Pc+GBLJNHilGjSPXyLIZr2LTK1IJp09f8bkrrsNEoEccwktN1JNA9VnZfHIYnDRLSe2K5H0QO6YcvjEKDYeHOJaDI2k67q//4HVyUM9YidVzp/z0HeiKE/rOTDF0WrRkklhrswMal948vAj3+x2rzY2FGbYEY/r+sFc8rad9Mtn3OaaLa21ILw4OG7+wVnFkNATfd5AJV3/BU3ZgV4M7aDL0rj1l/bi6lrNwq6Vwsmo4RgZQIrGrZ1QjTdBQNANFE9Z+w97Y6S+scWVAwyMZXHN1p2QtLsK79Kiub8YcJtG/c+DWH734CQ2yBQCXvJzgp3QamxBgfGPxj/AA6JJuvY+8fdKYFRt8XvL8FSQzQhnN+4+8U+RzQpxM1EoH0OpGQSwJiVxcw854MhUVxiJonmhdom+ScQzQ1wndl5aGXlhJN0umDuSLigpyZ0dTslmsaiCQtpsuSIzsPpMqIJzUiGMWTKonkQhQiovbgaFap6Yrua8b4g4yRCiVouEU2Wvlw0r8woJSQ6n0wtf+nNnUY148xZa01Nus+vuny0fP3huR0Of/xUnfFmMHnLTrsVLwV8SWPhiu5uuU004U5sOb1Walf9rcOqNYAdlkLGDrLUoycwPOPzEK4/Jhc+QNWixnOOrJkcSN5QZIgh4zx/yMKE41KimRCajK5wB4pBDBF2MPHz8ftVohkfl7alzHpmjFA6OnnvrdgPornbkWZh0kFleCXjEkk0i+GCjdcySzSDIJqf9FiiSffw/XdMSyhKrkQzcdZ5T7doGqKJ63xMksSyXCKaVBq4A7qm114xLt7PNqPLtu8+adznduJ5GbpDJYFvIjmtfawz74PPvLzDltuc1YW+/OAsZJyPSRjSk9ETtOgsp4kmq7u0Np+Xc+8yIQhZ3Q7c08TFXThIAmMhX2NcypjdDLVwfbU07H5cgvvfwJisK9B0Pqx/PMY09k7xFCWWJHFCNF2+wjbXeQKrXOcBWHxvrkbyDmI0W07vtNgSfB7i5MZ1Pvv7Cbdt3PcMYjThOje1vRNu1i0r3IH+UYvmhM/FP74Szfi4tC3NBNFcseYwJF92yq69zpQbkg4sgytZVvA2Es0ECTeZJJqskETX+QZksdqJmczgadrqas6M4cjenSqTxsWvlqREMzHRVIumrUss4UZOBdt5b2Im/dSJQxL2makV9SjrypflpyHTZkeInwlKfEFnMk+s0W3OghW1dckVCbg9tVp5X2Kxhp7QcptoEkHEZtas+e9tCTfWWdAdQHe7oVM5Bi7l25O6qTvsY/GFguBBlGuk1mRr0wWLreOsRjWdohnfFF/lDTC6xreQcC8nRBOZESBLSC5C3GeyPuOMJu6ipkMvg2g+hYo11tmWLl8RsF2G5KvvxO2LC5sOvmRc55E6ey6BhB1lYYVaNDuC2h06mms3Vhm307adPe/6IDqU36FFk4lB8VomiSarAv0QyUDMAmeN757WZs+ARfO2aTIJpSLjNSWaiYlmNbLYf/O7zcIXq57YepvrnATz21+dL6yck+3GalIrEWv+1Atb5dARa15Atz7jnR/5/GVmaMxY/9/Qs6VGrJ0XzIeghLFs6WgZiNKZPaHlPtGERanp8KuoKvMYLGL2srraA88MZu+AsXCj3wJx62Upi4CzzzBqaQePvCfBQ28hg9qahLUfR+yzd+A4KZj6Ncs67I6IJmpd+0ZdB6L5MEoexpdLih3f8i/wbtj1GxOj2Rqst9ycMY7+0dfj2F9LuG2w6m30+VsJnzuYcJvYClceJCgKB0PsHHFCDpQGYvs7+otzdQcGSP7Iq3FtXB1/V7VoxselbWkmLJrbdp2Ey2i7rN98LOmxuJIZ1nQ3MTM2EoHHwzr23rLPRBvw4cFszmuWjjEB94mkcTJJNHk+P/nVGvkIyS719dYJkIMg90QsfMAl2zGdFP2eCt3LKxaOggB6cVzYlGgmJpqUj/oVNBLf/fgArlvrC5fC4sOHFokbgvOtNpJM4k6IzYXQ6UC97JGyCDXJ27tzO++eK65zSkLNmj5Mvoca7iR1XdEOHz2P0qi7oYG7z/JwLCIwEck83/+9xZBd8uPeVy3Usz15yvqZy0x66tnOmW5dm95yIBnaIPeJJn4AkcaTUrPqf0LmCLqIKZAPkk1PCZI0ypeLd+hl4i1ClpbLaxvi1lC9hC7sRfb7StTsXoWqOakHcwcm3w/pm1ssCaEzoskKPdPEDz1IX5raoRFYbBt2/ApWyLdshQV4ikfCYnwLQgHuS4hnM5OLYCFtObEp4TaxFQx3yB+xALqWl2OunYclxPqx9zdiqup4CkeCcA6Nv4sSzfi4tC3NBNGk6PGTsAR8+MmhpMfiSsr5MMuS+oJRyRbrB7Zlpwk2IBegePWIYf1kMB76zGKN1zJJNNn/b5/bLO9AvP70mYZ4h+uwjLFeLB9IcmCHvHTY2eEXEtlBpYVIPihMWIVEiWZiosnymY8/u9nI1zQ2hSzRZ5jCMrzkFEBMPdtzy2ud1xD/se53opYrRJNqEaxy9J2vLzIvYYnOJ5PLKRHGkqUUcKd6hFXjfeUrcO1TE/iXT26Q9/ACYsdtzgSn+2+fbvRBrY7RVet7AdGMQlW/7d8gZv0OSKd1WcG44LrcsJIVg8QskbwhsxAfWSbugqGocliYQGIIBBfySpGGY4bgNp/8VEKnt6FUoLVZPO7xsdAdKEV29u8jGegy6HvmJdrMLHdKNN3+EvGNpnA6tDSTuOSTHhQrg0fegjUTVXXO7rHa1Kz3DpyIxCbU9R6RwCKIrUIXdps+gwfftuzT7e8vjPlkCUcnLwOWHae6gRLNpMhlgmjypvzE81vktbf3SAsexskarYpXXj5KHoIOXaoVU5L1n8q6TBPNtz/aLy8jC/+gjdKH0ycPlduhf3jZzDQ9GamceJx9lGgmJpqE65W3UH8cc3v8pLXl6rJZIxCHx3jYQXGQ7p5FTonm5AmDTAnXhbCUptucxGiynj1fwL791QVC62FXte27T0ErdaPs2G3tfe1f4oc+7xjM8TT5i795R/YfOocysMnvf3zZfeQLc2XxvIous9Tawa7XEE2SlfpN/4oElW0pWTXbg+UuHiZ5A6eJt3QKKvMMF3c+Yjgu1tXGq124BXJKDSBIB6Tl7GYJndqeFsGMHds/FlnwE5AFXwiLqkVzSjTZHQl0wdQv4dymW/Qef3UEAvn12/5Dmqs+Rpa/vXhYWh8LpnwRsbAT43eKpREkdDXtf1Eatj9mbaXED8k7cDII+fdQnnNswj67bIUSzaRQZ4Jo8gAv4wH83Ks7xI48CI9JcrV0QWXSsXXVykwTTZY+pAyOneogtPBSZJti28xE7e6mRDM50VyzoQqasbtk286TllM1sDQgy6Azei/kpJzof1p2nMYGqRBNXpsL5nQ90VzURjSTldRMA4q4uxKfd/Ci+OTzWy3DeijIPxmhKHfdPEX+9p8/QiWw5rh9tl9It/l/+85So2ObqIBE++276nOvIZoErGH7fxiXrslAzwSCHg+snCWwbCImMJ9aVC7EwoSR6X5BIvWnYNHEWyeIRiYaLXX9Fv0vyRsAQnaR1CbuORWiyTrbJH60Brp9AxN3HmcNwwOaDr4iTfteQfypzdAAVCTyj7rRVGFy0TKcpAWr3sGLAmvCo5yoRYtaNa8AaX4E1tnU6vzyENQ6jQTPm+pQtF6n1JRoJoUtU0RzHWKUKNq+eduJpMfjSlor5qPs4lcfmiMliG9KtdGSSlcVcgaF1oU8b/ziCVb9Z5poMoOV7rf3Vx4Uulut2vQpsGreMAkxW3hpRkWZVBrd4ucuNJoEJOqFJkp8supbiWZyonn0eI08jypYrNVuI0xTaLH+0gMzQSyc3c/bz1NLKGzKmdJaRvH6dF5InBLN8WNK5bYbJuKlcFT7IaX0ORcsmiyysHXHSfm7H30s9Q3J3ecej8tIplWiXjn3sfNbvwYJQA/eOT1p9aaUwE1zp15FNMNwYzds+Skysj+GZcw6xiVN7DK2u8uTBz3P+5CQdBcIoL0KGKkQTQ6Y7nnfqGVGF9KQNIQMWDWW0mw+vhIJV78CyTxitfnF9UY+iuLk4x+4uCzRh5azWxCn+VtYS1cn2qTDcnfBECma+x3JGzQHZJOWGgcPUJBDnhMxbNr/AsIkyqVo5nchxQTLdYI4uw4Hb/9FiWZ7NC75nCmieRqWgJcRSP8irD1MOrFqjCWj2+k2EKxkMWXx+mH3zS0hU32HZI7E9bbrJ0E0vH9KbrZME02Ome5VlqM7fqIu3il0WEbX4CLUPP/CfTNNFqpTssmH4/kLTag3v02OVF8wkiusWuIUVw5KiWZyoknpG17ntHjZieOjxZoudGousuSg09sXVQwOH71g6qsfP1knVy6qlMXzK6NlSztcRfa+kGg+ioQmxiLaaUxWu+6qscZqF8+Fzd96jGBxfbJrNxeIJjGpQsw5a9pTOSKTjdj84bcXy8ypwxLGSGfyeE766lVEkycePPpONIbQRnlEJ0BlbVtY/TwDyqT/kh9GiY7NA6VKNNm9sWyWXy6FU74BSy3qqSYhm62Qj2ra9zR0Lp8x1j+bwzOb5Y+Yj1CAew0ZtNqvtaVeglXvSd26/2e1aXQ97qguX7H0m/d99D/XUdxpuKFaggdehFrB27BMn0Oop1+8Q6ZIv8v+PBom4ZC01m/5MQjrK6Z+utXgtTKQFUKJ1zMY/leoBc2SbnYas3IpyMza204aEzFoUXrz/b1GHDlaqi6quTdlwmAnXZlts0E0Ga/17CvbbT/QY4Tki/fPcix5QrFpEh/qmAZRG5tJCjcsGy+3OsSVYCjRTE40idHm7Scg57XDlsoCt2etdrqBv/a5uY4J4ur1R3Ad7ZDd+86wK6MWQOv3tVemFpZ0AtVrWK/dLtHkMadB6/Fz98yIK/JPK/qWHSckHGqF9XaIDIKCQqKWK0SzDiVS1244amTKEp2L0+UkmQPgdfn7/3G9DOifupfP6XHtbt/riCYtVbRSNe75HRJ1UkwMsoteBrajW7548V8i3nAMCJ9911w6RJOvvUwIchcNhmzPFSBZs028o5sWPYYHIP40XHdEWs5slpZjKxGHuh9uZmS4OgkTAIEumPQQiOb9IHI2Lny8ubac2yb1W36EmNfd9pAFQWb8bP7oZUaayls8CueV2FUagZB+8MQK6Jx+AA3Qg9GypeacgAf0S0kCi2b9l+hcWCRjXRygWjQvQhHvQ6Ysmuyb2eevvrPHSITEO1bnZbz5UrqEmdesmc2xJLLC0XJyoaZJNm07Lh/CirkfiTZ0m8fElSljRMme+++YKgsRT5bMstJ5HNkgmrQyvvTGLkM27WSi0tJFy2xFWYncCJJ42cyRcJHSAhbfE0BL16GqC/LBqgOyZt1ROXu+CZYlhA3B2kuX3mBYjBkDex80M5nBa7cp0bQmmgyNeOuDfcYySLytGuewIOA1FvcbrxkP2Z7hUhjIT2jdpIt8y84T8jH0OhkLegalNGNWQ8YrDhlUYCS77kWikdPGvh6Ftc6OQkSsb14/LJM4c9pQGTksKot1Dhb0E7CwHkJZzrN4sZw/u0xYgWvYkMTlFHOFaFIh4Bg8EX/612/Ledxz7MxxDKtEf334bS+HB+ehO2eY33Wi7bprea8jmgQy0ngK8YQUFf+d7aSV7pgAT+FwxBk+LL6yZfBpJ88y7zy+tIhmrDMEn9Gi6cqDFhtiUSmuzrtTa3M9MLwAIlaPzzW2LHWxLmN/84bONCQzf+h8LIr/MIttG/vLmMlg9QqpW/t3sUW2/rp8iKOFrqYXElWeYpCAwBBYbaM3LBOHiSSmSB3UAc4fQtLWWWkN4pzClwZWuyBs7y6ulMKpX4SVdBbIZ+K354sDU6J5EYp4HzJJNBlLtm7TMfnlExuQlWvtMuZ4Yg9hZqBXlBVL+cgSY9ErhLi6B0SU1kve7E+drpd9B87hcyMIZxCWO5Kqjk95kk3qFrLeMyt20FVpp2WDaPK4Bw6fMy70dyF1ZKfxV+hFVn5pf7+J4RozaoB5wJfCApIPyRqSy9o6YAGyUFVdI0eO1hjyTQtMZw1OEhL2MwfZ7IwJKwGhT0Ra249NiaY10eR1Rwvjs69ul9Ug+XYa3xcYQ0xrFq/RyrL+hjAWF/tMolBzcwRxmE2GVPIF4gT0GHndNyIOOd7cDkRSCa2k90Emhy8kdhv7+yVc529/uP/iS5qdffnyUgBy7PNFjS0kvixIEAyGjED5VVCSePiembBoJhYgzxWiSTxqoJn6+LObjEyZVSa5Hfxo1f7T7y3Fy/RAo+1rZ5+u3KZXEk2+IoTrDrclr7yUElHK9iR4iqgveROq5twIUgT3tcOWEaLZ/piwQLrwj6SwlfGtKeiRxrqjdbBg6peF1Y3cbYQvti7pX5A2U75z56OQqnoPm3Z80CfdF+OmmLsrD3qGsKC63NEMW7r+aeWmlba12YZVFlZSb/+xiGNdDkmmpYn1M2ODUaIZQyLu30wSTR7gzLkGoyf3a1RQcdqYxcmHpt+XB8Ll5hVjHoZBPNCaoHFHy2Dnh27nY9CSOQKVRJYsrEA82yg8zIuMha/zdu2/Z4to0o396cZqeQYu9P0Hz7U/pOVnxrsx8SOAGD+Kubvx0kmrLslmE8g3rWpWWo7Egn3MQEIKXenj8ZCjYH6ypkTTmmgSP8Znrt9SLY8+sVFO2dBLbY85M9CLeJ3jRSg/n3GNmFtoDpNsNoG41ePFwaqqFOeWLw/zoDW5HG50EldeJ1aNvx9Kkb0KKTK+oGSqGaJ5L4gmwmEStVwimsR/197T8tc/+NDyd5bofGPLOd9j8dL4P76PwiKwbCZwUsQ275a/vZNoAkqSpXDtIWk69BpIy+sgGfbiurpiFjzFEIcfda34ypdZE5kEA8o40UxwnFQW+yqvgTXzPlgYxzvevTUchOVxl9Rvhgv93MFuS+rKGzod1YwgBTVoJs4hiUVWiWbSOc400WT5tapjF5CYsl0+WnUo6bGzuZLJRr/3lfnCmM1EFYFix88W0WT/dCuyZCHjNc/Bvd3VjQ81uuTvhATLjdeMM/GCycagRNMe0SSGnNt3P94vT7+wzVjYk+GarXWFhXnypftny4K5ZSYD2s5xXn9vj9F5raqutbO5rW16m0WTVmsS8f/1D+8bPVwrfeBkIFER43r89h68IzXZwmR9Z2pdryWaBIhkk3F5TYdfR1wexNwZswli0G0NskXGWlZxDWIKl4BkDkt5KI6IJvVZaBzsgnP3DposBVO+AK3OGUnjJZOdON3azcc/lsZdTyCW8jAsksllIJL1lco6t6+f+CqXo3TmreLpV5m8CyWaSfHJNNHkwejW3n/orDz94jaTOBGLL0s6kAyujGVx333zZOOKt9LhyybR5GmdhNv/zQ/2Inlpn9TA7d+VjeEEleX9ISo9RWZNHY5wgsRVYzguJZr2iSatg8zifh76se+tOGgSscBPurTNnDrUZIRPGDvIcm5jA9uK+M8XXtspa2Ftz1TrbUSTuDD++2koOdD6S1d6Ko0vemUjSlDhaIHxKKTSR1fs06uJpgEQRCCCOMPgoZeRkb5SwucPgrikNqnpTAirDnlLJ0p++TWmjrnbh1rdaTQnRNOVX2C0QFGTz5E8kbPhuUwZz4JJ96Oy0UIT++ls/0u3ZpxtE6zR4fNIRgp1xZy5QP7hIipbCqmpO011qGQZ+WbESjQvnbh2S7JBNNk9XU87954ymoPbdyEmGy7BbDfGINL1TvmQ+5CYwOQgEi2rlm2iSevIacRVsloQa6BTisgqBMBqzHbW0003GpJP11091ugg5tnAQommfaLJOSAZIdnkS9X6zceE9dC7Ym45lxNQceguvExNnTAEbvjkLxDtrxcm1bHAwktv7jZhGO3Xpfq5NxJN/m4PItnpH/51JRIday+JCbeDFb0JM6cNk+9/a7GjpDw7fWdym95PNNuhRemj4KF34ZrdC6kelIrsCksZNDI9EAPPGzpDfBXXmwo5VuUl2w054UcnRNOQJ1hR3f5ByMh/FWSTAeYZfDWmpRZJOP5xt8JSe40jmaaEJ9i2InjkdYQ/vGNKXrY2MwEkg+Nuf3DKTEGbM79skQTGPQCsSrE2ics8tq8SzRgScf9mi2jyYLxR70Sc0/OwnuxB8gStAszGzkYjoWSCBAWymY1LmRUmMNhp2SaaHAMtXXTFURaH0ikkdOm445KdF60oTNyg2DZrbTMxym5ToumMaBJXXueU9HoWQu4btx6Tk0jksYqxtDsfnbdjbCbF+MdUDjCWTIaG2HmZ6tzPp5uOyrMvb5ftNkotdt433neWlWUy0OBekgzU/hz/7z99JBuhdsHYaKdtGBK/bl4+wSQoOt23K7fvU0STwDLZJFj1ljQfWwPCVR2V7cm0uDvuxCSTLkjveEqQ9FN5HYjmIlj57Imx27kAnBBNV55PAhMfhJXuVpz3Smnc8VuTmZ+2SxqJM0y+8fQrhwD8vZI/7HLH2fN2zrXlzAZpOvCatJzaIq2oJZ9Ri7Q5hwDKfg5HLfhrETt728VEIjtjYziC6mgmRiqbRDN2VGagv/XhXlmPjHRm09K6mSmrDx+8tBowk3fRZeVGk9OJdYdj7AqiGcOCf6kByqxfWkmYVBKTaGq/TaqfGY9KyagpKI13PaR0pjrUFVWi6ZxoxuaqGSEjb3+0Tz5eddgI5zc0MiM7My9WfHmg8sAglLXkyxTLlpbDJZtq43X3MWKof/vcloxI+BiiefcMI6uVaEy5lAzU/hw4boZHUPLISaOHZeqkwfLI5+dKxcjMcQsnY7C7bZ8jmjFgQjV7TWWYlurVIJzHTTwn/LNR00BsI6d/SVpg3WP2s7t/Oax7V4u/Alnl0KzMdHNGNJFdOuEB6Fo+DJLWjCSb7dKw45ewEh6IkjaQJUctdp6BAShpOU8Kxt4n7sKRjrpwunEEZT+bT6yCRfoNCZ3eg/lC3GY682XOAS8DcJXnD5sDEn47rLLOk5eiRPNHxlLcGrLOsvRAgsk/HtWSQGidNM5b455fQ7LrRSS22Qiyx02oaN4fIXN+MbLwE2dqOhkDt6VFhRZEO3W2uX1XEE0eh23z9uOmjvC2nacuWjdTJZwkmLTk9EcJS5ZwvHrJaJk2cUj0QA7/++QLWw3xo4SSVassLzEW0yVp1mmvQgWf91ZAAxPWzZOnozqJzDym5dNp4wON1lviQUsXqwItmIPkEBBOp80x0URJvVsgJzW6wn6oUS0suysQQvBvj661NTxmzt9x02S5DcdxUjOcmpE/e3y9rFx7xNZxZkEn8o4bJ8usacNtbZ9oI8paffDJQfl0UzVkuaJzmyrhdLfNLV+exo8ZaITaFyLxx45UVaLxxZZTbJ3zwOu/EaQ4FW8D45/pxufv74E7piUtKeuYaOI8v/21BSlV+4qdYyb+MjTiBz9ZBevvKWO9ttsnizAsWVAhv/dlSgj27NZniSZYCv6P+E1oLLac2WhITMupbdBbjFZIcDptlPRx9xsueUNmGcte/sBZ8Lwifov/stCcEU2fFCALPDDx4WgddZy3EbY/jNrljIG8AFe6gzAClpbMH34ZYhmXm6Sf6DnacyOmBQXnK3gOAvJbpLn6A2k5uQkJXgiBcNqgl0lLc/6wBeIbDsH6/hPa5imFc8CY6jb8wFhceT1ZNU/xCIQY3C6BMfdYbdphPa24Dbt+Jk17qaBgTVi4c9G8P8TLztKMEk26xBjovwW1d+00EhNW57li4Sg7m6e1DV2MTBTig5gPf7qjjkAzMJVWNqJY5s4YIZfPL5dxo0qNQHuqD9/Hnt5okjnOnrNWvhgO6aT7bp9qyFwq447tQ0JJkl2N2tkbthyTNRuPQif0bEpSKpS5mQwL5gLUj582aWhKZSxj46qG6P5f//AjU4YvtizZ3ytQEpGVasZiDuy2mrqgsab9+2PrbO1CV/FN146Xe26Zaqkg0L5DEoSfP75BPvnUHtGcNnkIiOYkI5bfvh+nn3md451Bqk/UGHmrNRuqZC/mNhU9RupS0j1Oaz3/Uo+RL1mZaHynoWzYnv3QBIUqwubtJx15GkgwJ44fZEIz5kCEfnCSqkAc7+vv7ZXnYBmk0LtVo1QTX5a+88jCbiea/K3+9DfrjIqGk6Sg0bi3UtP3GpDwnt76MNFsmxqQg9ZI0CSbtIYbJXRhHyycByQCaaRwI4S+EcvJqjgmGaU1HLVYomSh5BWiLnmxSRjxFFVAymcsYvzwpgrrEavTROtvZ2/6HRPNiW1E0xUL6m7FOfG8GkHctsO6uVVCNTjvhhM4Z1jM2sIJ+HBlqUfWSPcUjwYpm2Rki9yBwR30KrN3pp16NvPVbMbNspW0zpo5q4MYe+NZk/jFczJ3YsRYUoTdaGtCz9NTOKztHCbi88ioxifnyqFYfocRYTz1O34KS+ub5hpJRkZa8XQwFs0xt4m//IYO3Vh9aY3Aorn/d9K05wUzb0mPgzuXC1WmCmd9z5BpW5WZrAbQtp7l4FhjexuIplW2NYkO64Pf+v/bO5vYKqoojl9awAKlDS2gFIoi1fIRMX6AxqjBRKWJjS6M0Rgl0cSdiSsX7t24c+GKhTHEGGPAjcaFEGPCAhaCIsGITfyifEuRUiy11Hr+tx0p7Zs385h5r/eNv5vAa+dN5577O/e9+c/9OKen2222TDS1KPrS1shJFC9QeYV/6//TApBfdBJ6+iJXjEgJUhVtaFFWlZbFTT4A+UqbLlxjMQM7LEOJRuz0fppNLuXapnWTX9vo4sCFK2Vv4hqV6rSg8s/0rPc3wXLXTPuerqm2aipTG4Z+/nXAi7yTpy/ZxpIrfl2n4iuOm68abNRSI1sa4dNIrlJNKsB9123tfiRJO8o1dZ5FiEgEvLvjgBfAWgKtWKZxRX6U0Oyx0C2VTA1qrarE104LHK7+kPRZUbt6t3W7bVu7KhrRHLCYrh99esR2V9uDekI98sNGE5q9NiUtsZ5HiXyr/nxu4LJFYlA/H7RRziG/aUgcRmzdn+KjaqRW7ZSQ1IND58oWY7rEIga02u9N1s8b/Tka4cyzSBRrrbBi1CpSRN8v5322H40GX7IHgpGRMbPPsk1piYrZp1A9bbYWes3qNttF3WZLVhb7/qiMXkn97jPbDKd1ocoqlFR0rfst2cCbrz+c+fOdVFea9zU6rQ1fiq2Ztjy0udNtt5Syt1hWpdALQvM6D0l8DfvRvvGr1lnt5u6Dl5vA9OsZvdCcNzEqaDdyTZM7mxZXruw5jRYkvFFBwvP9oF5n3pRfsgvNaxfzgnN0aKLd2pFv07QTQtPfCUw8KwC6TTPr1QtpSympts92keicFMt6SJgING9T6hqdNV95X3gfmc9MYMs//7VBAd1zGW220YW/TtlDiY2Emz3lbpzjet/6SoNtOmq4Kf0Ijcdsf/vPlXNuzB4E7EM70bZY/rrrWaDmZsuSpID5ubRzojLd1P6wANJD9pr0xa9RF61vVEo73eBqXaIRTolOZRjRiI/EizIMXbWfVXQD1pTwXD813Ojt1Q0vq6Ca2lYJPIlc3XAVaSyuKEboAhO9GrlpyZmXuozaPmwjTGIh8amwUArQruPWvbw/xUIpAfWqm7v8J4GS9FAR16bpx7XO8LiJ/7/NBl/KfF2Kh7IWaROWBH/aor/TqOZp2xCVVIe46DOrPiqBU06UTq9f/lRu70tRaJoybdFDV/PC+T6zzSJ7zbOon8uXCrCvIP5iLJ96/yptqPnW93Hfzxtco73Kr9G/pM9xHraKs2zTA482vegzqL43ajnMZb8EroL9+/5n9inrlpIJzFdihZTiV0JWmwO1dlXCNa5IeKu+lSsW+9HlWrQ/zpbouLjs2PmNRY2wAS7rv0ml1TI+9dgaaW1MFLPQC0IzlYfM8fqk+B3Pmg6P78SpLpfDSXkKzZnmqL26EU+2M0ehMrOuKhzxtstfst/+Vd1fES+1pVzfkE06RV8M5c7zZ5X4r5J6onbfSD0lqp5ySDfNiO6UwzN+jM7RjaLqLphRe/wBfZR1c1OphW2qy9ep+nytpf+bDV6RbZFFteChG73vQFGlMa86TcI8rdCYehlfhf5LUXSWhMeN9NHp/OKqUx3yfa1FTcS6Fn6Na3vc8ek+yspGQlZiWyO9ZfvMpDM0fZ636C/V1sgmCem45A6acdn5yWG/7lbfr0ll47rlfknJFsvcVA8FoVkPXiphY3WFZokKOQQBCEAAAhCAQEUE9h887nPXt9vo/Lo7lvmp7mZbnqKiB5XjttzhS1tfeuBQv89Fn/R8JEHe81iXDz9VLvd7RUZW+WSEZpUBV+vyCM1qkeW6EIAABCAAgewEtNToA1srvN82J2o5zO2Wk7zD1p0usxS2GuEctilzbeQ6aGs006wtlUVKf/ts7wb3+KO2LyRlLN/sLcl2BYRmNn6z9tcIzVlDT8UQgAAEIACBRAKHLfKFYon+2Hdtk4/WVGrDndagDtkmKW3aSjNdHlX2yIOr3dPb1vlwVNGx0F8RmqF7KMY+hGYMGA5DAAIQgAAEZpmANmO9//EhH0v04qBtss2hKAXuS8/d7cOfaTNXvRSEZr14apqdCM1pQPgVAhCAAAQgEAgBbfBRKC9NjedVtlgsW02bd69dmtcla3IdhGZNMOdfCUIzf6ZcEQIQgAAEIJCVgDb0fLj7O/fVvl8sT31yXM809WnK/Y3XHnBbLNC8Qo/VU0Fo1pO3ptiK0JwCgx8hAAEIQAACARCQyFRczLfe3uOTI1Sy/rKc+U9Z9qreJ7p9EPty54X4HkIzRK+ksGnkxF43fGyXZfTpSzx7zlwLfnvn827h+pctmFt9PQklNo4TIAABCEAAAoEQUCD6XZ8fdV/s7fMZkbKapfiuG7uXu1dfvNfduqo1t+QJWe2q5O8RmpXQCujckf49bvin3emEpqVhXNAtobkdoRmQDzEFAhCAAASKRUAB2t95b5/74dg5n6UpS+uU/natpeJ85YV7nHKbxwV8z1JHLf4WoVkLylWoY8zyko+eP2JpCS31oSuXgsrG8Rssj237XW7e0k0J51bBUC4JAQhAAAIQ+J8Q0G7zg0dOum+/P+WOHjtraUov35DgbF40391n+dif3LrWdXcttTS55e7zYcNFaIbtn1jrxi0f+fjVy5ZaQDmDkxLbWb7YyTzlsRfkDQhAAAIQgAAEMhMYNbF58vSgz/qjHOy/9180wTnkg7IrSHupfOaaIm9qmuvalyx0q1a0+DiZmzbcXFfxMuPAITTjyHAcAhCAAAQgAAEIZCAwcGHYnTgz6M6cNaFpO9C1UWisRD5zCc0FFhuzvc2EZkeL6+xodRrVLEJBaBbBi7QBAhCAAAQgAAEIBEgAoRmgUzAJAhCAAAQgAAEIFIEAQrMIXqQNEIAABCAAAQhAIEACCM0AnYJJEIAABCAAAQhAoAgEEJpF8CJtgAAEIAABCEAAAgESQGgG6BRMggAEIAABCEAAAkUggNAsghdpAwQgAAEIQAACEAiQAEIzQKdgEgQgAAEIQAACECgCAYRmEbxIGyAAAQhAAAIQgECABBCaAToFkyAAAQhAAAIQgEARCCA0i+BF2gABCEAAAhCAAAQCJIDQDNApmAQBCEAAAhCAAASKQAChWQQv0gYIQAACEIAABCAQIAGEZoBOwSQIQAACEIAABCBQBAIIzSJ4kTZAAAIQgAAEIACBAAkgNAN0CiZBAAIQgAAEIACBIhBAaBbBi7QBAhCAAAQgAAEIBEgAoRmgUzAJAhCAAAQgAAEIFIEAQrMIXqQNEIAABCAAAQhAIEACCM0AnYJJEIAABCAAAQhAoAgEEJpF8CJtgAAEIAABCEAAAgESQGgG6BRMggAEIAABCEAAAkUggNAsghdpAwQgAAEIQAACEAiQAEIzQKdgEgQgAAEIQAACECgCAYRmEbxIGyAAAQhAAAIQgECABP4FH3XKX+g8aPoAAAAASUVORK5CYII=;" parent="o-EWsilDcgqO-dhvd1zq-5" vertex="1"><mxGeometry x="120" y="66.07" width="56.19" height="34.93" as="geometry"/></mxCell></root></mxGraphModel></diagram></mxfile>